<svg width="114" height="19" viewBox="0 0 114 19" fill="none" xmlns="http://www.w3.org/2000/svg">
<path d="M43.7272 15.4917C42.8878 15.4917 42.1183 15.3454 41.4188 15.0529C40.732 14.7477 40.1405 14.3152 39.6445 13.7556C39.1485 13.196 38.7605 12.5155 38.4807 11.7142C38.2136 10.9129 38.0801 10.0035 38.0801 8.98603C38.0801 7.96852 38.2136 7.06549 38.4807 6.27692C38.7605 5.47563 39.1485 4.8079 39.6445 4.2737C40.1405 3.7268 40.732 3.31343 41.4188 3.03362C42.1183 2.74109 42.8878 2.59482 43.7272 2.59482C44.5667 2.59482 45.3298 2.74109 46.0166 3.03362C46.7162 3.31343 47.3139 3.7268 47.81 4.2737C48.306 4.82061 48.6876 5.49471 48.9547 6.296C49.2345 7.08457 49.3744 7.98124 49.3744 8.98603C49.3744 10.0035 49.2345 10.9129 48.9547 11.7142C48.6876 12.5155 48.306 13.196 47.81 13.7556C47.3139 14.3152 46.7162 14.7477 46.0166 15.0529C45.3298 15.3454 44.5667 15.4917 43.7272 15.4917ZM43.7272 13.0688C44.5794 13.0688 45.2535 12.7063 45.7495 11.9813C46.2456 11.2436 46.4936 10.2452 46.4936 8.98603C46.4936 7.73958 46.2456 6.76659 45.7495 6.06706C45.2535 5.36752 44.5794 5.01776 43.7272 5.01776C42.8751 5.01776 42.201 5.36752 41.7049 6.06706C41.2089 6.76659 40.9609 7.73958 40.9609 8.98603C40.9609 10.2452 41.2089 11.2436 41.7049 11.9813C42.201 12.7063 42.8751 13.0688 43.7272 13.0688Z" fill="#CBDFE7"/>
<path d="M56.4447 15.4917C56.025 15.4917 55.5989 15.39 55.1664 15.1865C54.7467 14.9702 54.3524 14.6586 53.9836 14.2516H53.9073L53.6783 15.2628H51.4843V1.88892H54.2888V5.17038L54.2125 6.62033C54.5814 6.28964 54.9756 6.03526 55.3954 5.8572C55.8278 5.66642 56.2666 5.57102 56.7118 5.57102C57.2841 5.57102 57.7992 5.68549 58.2571 5.91443C58.715 6.14337 59.1029 6.4677 59.4209 6.88742C59.7516 7.29443 59.9996 7.79682 60.1649 8.3946C60.343 8.97967 60.432 9.63469 60.432 10.3597C60.432 11.1737 60.3176 11.8986 60.0886 12.5346C59.8724 13.1705 59.5735 13.7111 59.1919 14.1562C58.8231 14.5887 58.397 14.9194 57.9137 15.1483C57.4431 15.3772 56.9534 15.4917 56.4447 15.4917ZM55.796 13.2023C56.2793 13.2023 56.6927 12.9861 57.0361 12.5537C57.3795 12.1085 57.5512 11.3962 57.5512 10.4169C57.5512 8.71258 57.0043 7.86041 55.9105 7.86041C55.3509 7.86041 54.8103 8.14659 54.2888 8.71893V12.5918C54.5432 12.8208 54.7976 12.9797 55.052 13.0688C55.3063 13.1578 55.5544 13.2023 55.796 13.2023Z" fill="#CBDFE7"/>
<path d="M64.4466 15.2628L61.2606 5.79996H64.0842L65.3052 10.2643C65.4324 10.7349 65.5532 11.2182 65.6677 11.7142C65.7948 12.1975 65.922 12.6872 66.0492 13.1832H66.1255C66.24 12.6872 66.3545 12.1975 66.4689 11.7142C66.5961 11.2182 66.7233 10.7349 66.8505 10.2643L68.0906 5.79996H70.7806L67.69 15.2628H64.4466Z" fill="#CBDFE7"/>
<path d="M72.258 15.2628V5.79996H75.0625V15.2628H72.258ZM73.6507 4.40725C73.1801 4.40725 72.7922 4.27371 72.4869 4.00661C72.1817 3.72679 72.0291 3.37067 72.0291 2.93823C72.0291 2.50579 72.1817 2.15602 72.4869 1.88892C72.7922 1.62183 73.1801 1.48828 73.6507 1.48828C74.134 1.48828 74.5219 1.62183 74.8145 1.88892C75.1197 2.15602 75.2724 2.50579 75.2724 2.93823C75.2724 3.37067 75.1197 3.72679 74.8145 4.00661C74.5219 4.27371 74.134 4.40725 73.6507 4.40725Z" fill="#CBDFE7"/>
<path d="M79.1522 15.4917C78.6689 15.4917 78.2619 15.3264 77.9312 14.9957C77.6133 14.6523 77.4543 14.2325 77.4543 13.7365C77.4543 13.2278 77.6133 12.808 77.9312 12.4773C78.2619 12.1339 78.6689 11.9622 79.1522 11.9622C79.6356 11.9622 80.0362 12.1339 80.3542 12.4773C80.6849 12.808 80.8502 13.2278 80.8502 13.7365C80.8502 14.2325 80.6849 14.6523 80.3542 14.9957C80.0362 15.3264 79.6356 15.4917 79.1522 15.4917Z" fill="#CBDFE7"/>
<path d="M85.8259 15.4917C85.3426 15.4917 84.9356 15.4154 84.6049 15.2628C84.2742 15.1101 84.0071 14.9003 83.8036 14.6332C83.6128 14.3534 83.4729 14.0227 83.3839 13.6411C83.2949 13.2468 83.2503 12.808 83.2503 12.3247V1.88892H86.0548V12.4392C86.0548 12.7317 86.1057 12.9352 86.2075 13.0497C86.3219 13.1642 86.4364 13.2214 86.5509 13.2214C86.6145 13.2214 86.6653 13.2214 86.7035 13.2214C86.7544 13.2214 86.818 13.2087 86.8943 13.1832L87.2377 15.2628C87.0851 15.3264 86.8879 15.3772 86.6463 15.4154C86.4173 15.4663 86.1439 15.4917 85.8259 15.4917Z" fill="#CBDFE7"/>
<path d="M88.7092 15.2628V5.79996H91.5138V15.2628H88.7092ZM90.102 4.40725C89.6314 4.40725 89.2434 4.27371 88.9382 4.00661C88.6329 3.72679 88.4803 3.37067 88.4803 2.93823C88.4803 2.50579 88.6329 2.15602 88.9382 1.88892C89.2434 1.62183 89.6314 1.48828 90.102 1.48828C90.5853 1.48828 90.9732 1.62183 91.2657 1.88892C91.571 2.15602 91.7236 2.50579 91.7236 2.93823C91.7236 3.37067 91.571 3.72679 91.2657 4.00661C90.9732 4.27371 90.5853 4.40725 90.102 4.40725Z" fill="#CBDFE7"/>
<path d="M93.9818 15.2628V5.79996H96.2712L96.462 7.00189H96.5383C96.9453 6.62033 97.3905 6.28964 97.8738 6.00982C98.3571 5.71729 98.9231 5.57102 99.5718 5.57102C100.602 5.57102 101.346 5.90807 101.804 6.58217C102.275 7.25627 102.51 8.1911 102.51 9.38667V15.2628H99.7053V9.74916C99.7053 9.06234 99.6099 8.59175 99.4191 8.33737C99.2411 8.08299 98.9486 7.95581 98.5416 7.95581C98.1854 7.95581 97.8802 8.03848 97.6258 8.20382C97.3714 8.35645 97.0916 8.57903 96.7864 8.87156V15.2628H93.9818Z" fill="#CBDFE7"/>
<path d="M104.9 15.2628V1.88892H107.628V9.55838H107.704L110.699 5.79996H113.752L110.432 9.69193L114 15.2628H110.967L108.83 11.5807L107.628 12.9352V15.2628H104.9Z" fill="#CBDFE7"/>
<path d="M15.9735 3.73148L9.58407 0V1.59921H5.85693C2.62224 1.59921 0 4.2245 0 7.46296C0 10.7014 2.62224 13.3267 5.85693 13.3267H14.9086C17.9638 13.3267 20.4726 10.9847 20.7416 7.99603H18.598C18.3396 9.80435 16.7862 11.1944 14.9086 11.1944H5.85693C3.79849 11.1944 2.12979 9.5238 2.12979 7.46296C2.12979 5.40212 3.79849 3.73148 5.85693 3.73148L15.9735 3.73148Z" fill="#CBDFE7"/>
<path d="M12.2463 14.3928H21.8065C23.865 14.3928 25.5337 12.7222 25.5337 10.6614C25.5337 8.60053 23.865 6.92989 21.8065 6.92989H12.7549C10.8772 6.92989 9.32385 8.31997 9.06549 10.1283H6.92183C7.19084 7.13965 9.69968 4.79762 12.7549 4.79762H21.8065C25.0412 4.79762 27.6634 7.42291 27.6634 10.6614C27.6634 13.8998 25.0412 16.5251 21.8065 16.5251H18.1033V18.1243L12.2463 14.3928Z" fill="#CBDFE7"/>
</svg>
