<svg width="238" height="497" viewBox="0 0 238 497" fill="none" xmlns="http://www.w3.org/2000/svg">
<path d="M0.0507812 98.9933C0.0507812 97.65 1.06636 96.561 2.31913 96.561C3.5719 96.561 4.58748 97.65 4.58748 98.9933V158.99C4.58748 160.333 3.5719 161.422 2.31913 161.422C1.06636 161.422 0.0507812 160.333 0.0507812 158.99V98.9933Z" fill="#161616"/>
<path d="M0.0507812 176.827C0.0507812 175.484 1.06636 174.395 2.31913 174.395C3.5719 174.395 4.58748 175.484 4.58748 176.827V197.907C4.58748 199.25 3.5719 200.339 2.31913 200.339C1.06636 200.339 0.0507812 199.25 0.0507812 197.907V176.827Z" fill="#161616"/>
<path d="M232.934 93.3179C232.934 91.9746 233.95 90.8856 235.203 90.8856C236.456 90.8856 237.471 91.9746 237.471 93.3179V114.398C237.471 115.741 236.456 116.83 235.203 116.83C233.95 116.83 232.934 115.741 232.934 114.398V93.3179Z" fill="#161616"/>
<path d="M1.56301 20.2692C1.56301 9.07482 10.0261 0 20.4659 0H217.056C227.496 0 235.959 9.07482 235.959 20.2692V476.731C235.959 487.925 227.496 497 217.056 497H20.4659C10.0261 497 1.56301 487.925 1.56301 476.731V20.2692Z" fill="#161616"/>
<mask id="mask0_0_19535" style="mask-type:alpha" maskUnits="userSpaceOnUse" x="5" y="10" width="228" height="468">
<path d="M5.34375 23.5118C5.34375 16.3474 10.7601 10.5396 17.4416 10.5396H220.837C227.518 10.5396 232.935 16.3474 232.935 23.5118V464.569C232.935 471.733 227.518 477.541 220.837 477.541H17.4416C10.7601 477.541 5.34375 471.733 5.34375 464.569V23.5118Z" fill="#CFCFCF"/>
</mask>
<g mask="url(#mask0_0_19535)">
<path d="M3.07617 23.5118C3.07617 12.3175 11.5393 3.24268 21.9791 3.24268H215.545C225.985 3.24268 234.448 12.3175 234.448 23.5118V473.487C234.448 484.682 225.985 493.757 215.545 493.757H21.9791C11.5393 493.757 3.07617 484.682 3.07617 473.487V23.5118Z" fill="white"/>
<rect width="228.718" height="467.7" transform="translate(4.79883 10.2881)" fill="white"/>
<rect x="15.8769" y="105.705" width="181.543" height="24.3011" rx="3.21632" fill="white" stroke="#E5E5E5" stroke-width="0.714737"/>
<path d="M32.0838 121.495H31.2081V118.442H27.8781V121.495H27.007V114.889H27.8781V117.729H31.2081V114.889H32.0838V121.495ZM36.5299 121.495C36.4815 121.398 36.4422 121.226 36.412 120.978C36.0218 121.383 35.556 121.586 35.0146 121.586C34.5307 121.586 34.1329 121.45 33.8214 121.178C33.5129 120.902 33.3586 120.554 33.3586 120.134C33.3586 119.623 33.5522 119.227 33.9394 118.945C34.3295 118.661 34.877 118.519 35.5817 118.519H36.3984V118.133C36.3984 117.84 36.3107 117.607 36.1352 117.435C35.9598 117.259 35.7012 117.171 35.3594 117.171C35.06 117.171 34.8089 117.247 34.6063 117.398C34.4036 117.55 34.3023 117.733 34.3023 117.947H33.4585C33.4585 117.702 33.5447 117.466 33.7171 117.239C33.8925 117.01 34.1284 116.828 34.4248 116.695C34.7242 116.562 35.0524 116.495 35.4093 116.495C35.9749 116.495 36.418 116.638 36.7386 116.922C37.0592 117.203 37.2256 117.592 37.2377 118.088V120.347C37.2377 120.798 37.2952 121.156 37.4101 121.423V121.495H36.5299ZM35.1371 120.855C35.4002 120.855 35.6498 120.787 35.8857 120.651C36.1216 120.515 36.2925 120.338 36.3984 120.12V119.113H35.7405C34.7122 119.113 34.198 119.414 34.198 120.016C34.198 120.279 34.2857 120.485 34.4611 120.633C34.6365 120.781 34.8619 120.855 35.1371 120.855ZM41.2529 117.929C41.2529 117.699 41.1651 117.518 40.9897 117.385C40.8143 117.249 40.5738 117.181 40.2683 117.181C39.9719 117.181 39.7239 117.258 39.5243 117.412C39.3277 117.566 39.2294 117.748 39.2294 117.956H38.3946C38.3946 117.53 38.5731 117.181 38.93 116.908C39.2869 116.636 39.733 116.5 40.2683 116.5C40.843 116.5 41.2907 116.624 41.6113 116.872C41.9319 117.117 42.0922 117.468 42.0922 117.925C42.0922 118.145 42.0256 118.348 41.8926 118.533C41.7595 118.717 41.5704 118.864 41.3254 118.973C41.8971 119.166 42.1829 119.547 42.1829 120.116C42.1829 120.567 42.009 120.923 41.6612 121.187C41.3133 121.45 40.8491 121.581 40.2683 121.581C39.7027 121.581 39.2354 121.444 38.8664 121.168C38.5005 120.89 38.3175 120.515 38.3175 120.043H39.1523C39.1523 120.282 39.2581 120.488 39.4699 120.66C39.6846 120.83 39.9508 120.914 40.2683 120.914C40.589 120.914 40.8476 120.84 41.0442 120.692C41.2408 120.544 41.3391 120.352 41.3391 120.116C41.3391 119.841 41.2559 119.644 41.0895 119.526C40.9262 119.405 40.6706 119.345 40.3228 119.345H39.4835V118.637H40.3954C40.967 118.622 41.2529 118.386 41.2529 117.929ZM43.3489 121.495V116.586H45.2635C45.9168 116.586 46.4174 116.701 46.7652 116.931C47.1161 117.158 47.2915 117.492 47.2915 117.934C47.2915 118.16 47.2234 118.366 47.0873 118.551C46.9512 118.732 46.7501 118.871 46.4839 118.968C46.7803 119.038 47.0178 119.174 47.1962 119.376C47.3777 119.579 47.4684 119.821 47.4684 120.102C47.4684 120.553 47.3021 120.898 46.9694 121.137C46.6397 121.376 46.1724 121.495 45.5675 121.495H43.3489ZM44.1882 119.34V120.819H45.5765C45.9274 120.819 46.189 120.754 46.3614 120.624C46.5368 120.494 46.6246 120.311 46.6246 120.075C46.6246 119.585 46.2646 119.34 45.5448 119.34H44.1882ZM44.1882 118.669H45.2726C46.059 118.669 46.4522 118.439 46.4522 117.979C46.4522 117.519 46.0801 117.282 45.3361 117.267H44.1882V118.669ZM51.6106 121.495C51.5622 121.398 51.5229 121.226 51.4927 120.978C51.1025 121.383 50.6367 121.586 50.0953 121.586C49.6114 121.586 49.2136 121.45 48.9021 121.178C48.5936 120.902 48.4393 120.554 48.4393 120.134C48.4393 119.623 48.6329 119.227 49.02 118.945C49.4102 118.661 49.9577 118.519 50.6624 118.519H51.479V118.133C51.479 117.84 51.3913 117.607 51.2159 117.435C51.0405 117.259 50.7819 117.171 50.4401 117.171C50.1407 117.171 49.8896 117.247 49.687 117.398C49.4843 117.55 49.383 117.733 49.383 117.947H48.5391C48.5391 117.702 48.6253 117.466 48.7977 117.239C48.9732 117.01 49.2091 116.828 49.5055 116.695C49.8049 116.562 50.1331 116.495 50.49 116.495C51.0556 116.495 51.4987 116.638 51.8193 116.922C52.1399 117.203 52.3063 117.592 52.3184 118.088V120.347C52.3184 120.798 52.3758 121.156 52.4908 121.423V121.495H51.6106ZM50.2178 120.855C50.4809 120.855 50.7305 120.787 50.9664 120.651C51.2023 120.515 51.3732 120.338 51.479 120.12V119.113H50.8212C49.7928 119.113 49.2786 119.414 49.2786 120.016C49.2786 120.279 49.3664 120.485 49.5418 120.633C49.7172 120.781 49.9425 120.855 50.2178 120.855ZM57.6447 121.495H56.8054V119.399H54.5505V121.495H53.7067V116.586H54.5505V118.714H56.8054V116.586H57.6447V121.495ZM62.1725 116.586H63.0119V121.495H62.1725V117.915L59.9086 121.495H59.0693V116.586H59.9086V120.17L62.1725 116.586ZM66.3964 121.586C65.731 121.586 65.1896 121.368 64.7722 120.933C64.3548 120.494 64.1461 119.909 64.1461 119.177V119.023C64.1461 118.536 64.2383 118.102 64.4228 117.72C64.6104 117.336 64.8705 117.037 65.2032 116.822C65.5389 116.604 65.9019 116.495 66.292 116.495C66.9302 116.495 67.4263 116.706 67.7801 117.126C68.134 117.546 68.311 118.148 68.311 118.932V119.281H64.9854C64.9975 119.765 65.1382 120.157 65.4073 120.456C65.6796 120.753 66.0244 120.901 66.4418 120.901C66.7382 120.901 66.9892 120.84 67.1949 120.719C67.4006 120.598 67.5805 120.438 67.7348 120.238L68.2474 120.638C67.8361 121.27 67.2191 121.586 66.3964 121.586ZM66.292 117.185C65.9533 117.185 65.669 117.309 65.4391 117.557C65.2092 117.802 65.0671 118.147 65.0126 118.591H67.4716V118.528C67.4474 118.102 67.3325 117.772 67.1268 117.539C66.9212 117.303 66.6429 117.185 66.292 117.185Z" fill="#343434"/>
<path d="M21.3631 98.6235H20.4874V95.5702H17.1574V98.6235H16.2863V92.0178H17.1574V94.8579H20.4874V92.0178H21.3631V98.6235ZM25.8092 98.6235C25.7608 98.5267 25.7215 98.3543 25.6913 98.1063C25.3011 98.5116 24.8353 98.7143 24.2939 98.7143C23.81 98.7143 23.4122 98.5782 23.1007 98.306C22.7922 98.0307 22.6379 97.6829 22.6379 97.2625C22.6379 96.7513 22.8315 96.3551 23.2187 96.0738C23.6088 95.7895 24.1563 95.6473 24.861 95.6473H25.6777V95.2617C25.6777 94.9683 25.59 94.7354 25.4145 94.563C25.2391 94.3876 24.9805 94.2999 24.6387 94.2999C24.3393 94.2999 24.0882 94.3755 23.8856 94.5267C23.6829 94.6779 23.5816 94.8609 23.5816 95.0757H22.7377C22.7377 94.8307 22.824 94.5948 22.9964 94.3679C23.1718 94.138 23.4077 93.9566 23.7041 93.8235C24.0035 93.6904 24.3317 93.6239 24.6886 93.6239C25.2542 93.6239 25.6973 93.766 26.0179 94.0503C26.3385 94.3316 26.5049 94.7203 26.517 95.2163V97.4757C26.517 97.9264 26.5745 98.2848 26.6894 98.5509V98.6235H25.8092ZM24.4164 97.9838C24.6795 97.9838 24.9291 97.9158 25.165 97.7797C25.4009 97.6436 25.5718 97.4666 25.6777 97.2489V96.2417H25.0198C23.9914 96.2417 23.4773 96.5426 23.4773 97.1445C23.4773 97.4076 23.565 97.6133 23.7404 97.7615C23.9158 97.9097 24.1412 97.9838 24.4164 97.9838ZM30.5322 95.0575C30.5322 94.8277 30.4444 94.6462 30.269 94.5131C30.0936 94.377 29.8531 94.3089 29.5476 94.3089C29.2512 94.3089 29.0032 94.3861 28.8036 94.5403C28.607 94.6946 28.5087 94.8761 28.5087 95.0847H27.6739C27.6739 94.6583 27.8524 94.3089 28.2093 94.0367C28.5662 93.7645 29.0123 93.6284 29.5476 93.6284C30.1223 93.6284 30.57 93.7524 30.8906 94.0004C31.2112 94.2454 31.3715 94.5963 31.3715 95.053C31.3715 95.2738 31.3049 95.4764 31.1719 95.6609C31.0388 95.8454 30.8497 95.9921 30.6047 96.101C31.1764 96.2946 31.4622 96.6757 31.4622 97.2443C31.4622 97.695 31.2883 98.0519 30.9405 98.315C30.5926 98.5782 30.1284 98.7097 29.5476 98.7097C28.982 98.7097 28.5147 98.5721 28.1457 98.2969C27.7798 98.0186 27.5968 97.6436 27.5968 97.1717H28.4316C28.4316 97.4107 28.5374 97.6163 28.7491 97.7887C28.9639 97.9581 29.2301 98.0428 29.5476 98.0428C29.8683 98.0428 30.1269 97.9687 30.3235 97.8205C30.5201 97.6723 30.6184 97.4802 30.6184 97.2443C30.6184 96.9691 30.5352 96.7725 30.3688 96.6545C30.2055 96.5335 29.9499 96.473 29.6021 96.473H28.7628V95.7653H29.6747C30.2463 95.7502 30.5322 95.5142 30.5322 95.0575ZM32.6282 98.6235V93.7146H34.5428C35.1961 93.7146 35.6967 93.8295 36.0445 94.0594C36.3953 94.2863 36.5708 94.6205 36.5708 95.0621C36.5708 95.2889 36.5027 95.4946 36.3666 95.6791C36.2305 95.8606 36.0294 95.9997 35.7632 96.0965C36.0596 96.166 36.297 96.3022 36.4755 96.5048C36.657 96.7074 36.7477 96.9494 36.7477 97.2307C36.7477 97.6814 36.5814 98.0262 36.2487 98.2651C35.919 98.5041 35.4517 98.6235 34.8468 98.6235H32.6282ZM33.4675 96.4685V97.9475H34.8558C35.2067 97.9475 35.4683 97.8825 35.6407 97.7524C35.8161 97.6224 35.9039 97.4394 35.9039 97.2035C35.9039 96.7135 35.5439 96.4685 34.8241 96.4685H33.4675ZM33.4675 95.797H34.5519C35.3383 95.797 35.7314 95.5672 35.7314 95.1074C35.7314 94.6477 35.3594 94.4103 34.6154 94.3951H33.4675V95.797ZM40.8899 98.6235C40.8415 98.5267 40.8022 98.3543 40.772 98.1063C40.3818 98.5116 39.916 98.7143 39.3746 98.7143C38.8906 98.7143 38.4929 98.5782 38.1814 98.306C37.8729 98.0307 37.7186 97.6829 37.7186 97.2625C37.7186 96.7513 37.9122 96.3551 38.2993 96.0738C38.6895 95.7895 39.237 95.6473 39.9417 95.6473H40.7583V95.2617C40.7583 94.9683 40.6706 94.7354 40.4952 94.563C40.3198 94.3876 40.0612 94.2999 39.7194 94.2999C39.42 94.2999 39.1689 94.3755 38.9663 94.5267C38.7636 94.6779 38.6623 94.8609 38.6623 95.0757H37.8184C37.8184 94.8307 37.9046 94.5948 38.077 94.3679C38.2525 94.138 38.4884 93.9566 38.7848 93.8235C39.0842 93.6904 39.4124 93.6239 39.7693 93.6239C40.3349 93.6239 40.778 93.766 41.0986 94.0503C41.4192 94.3316 41.5856 94.7203 41.5977 95.2163V97.4757C41.5977 97.9264 41.6551 98.2848 41.7701 98.5509V98.6235H40.8899ZM39.4971 97.9838C39.7602 97.9838 40.0098 97.9158 40.2457 97.7797C40.4816 97.6436 40.6525 97.4666 40.7583 97.2489V96.2417H40.1005C39.0721 96.2417 38.5579 96.5426 38.5579 97.1445C38.5579 97.4076 38.6457 97.6133 38.8211 97.7615C38.9965 97.9097 39.2218 97.9838 39.4971 97.9838ZM46.924 98.6235H46.0847V96.5275H43.8298V98.6235H42.986V93.7146H43.8298V95.8424H46.0847V93.7146H46.924V98.6235ZM51.4518 93.7146H52.2912V98.6235H51.4518V95.0439L49.1879 98.6235H48.3486V93.7146H49.1879V97.2988L51.4518 93.7146ZM55.6757 98.7143C55.0103 98.7143 54.4689 98.4965 54.0515 98.061C53.6341 97.6224 53.4254 97.0371 53.4254 96.3052V96.1509C53.4254 95.664 53.5176 95.2299 53.7021 94.8488C53.8897 94.4647 54.1498 94.1653 54.4825 93.9505C54.8182 93.7328 55.1812 93.6239 55.5713 93.6239C56.2095 93.6239 56.7056 93.8341 57.0594 94.2545C57.4133 94.6749 57.5903 95.2768 57.5903 96.0602V96.4095H54.2647C54.2768 96.8935 54.4175 97.2851 54.6866 97.5846C54.9589 97.881 55.3037 98.0292 55.7211 98.0292C56.0175 98.0292 56.2685 97.9687 56.4742 97.8477C56.6799 97.7267 56.8598 97.5664 57.0141 97.3668L57.5267 97.7661C57.1154 98.3982 56.4984 98.7143 55.6757 98.7143ZM55.5713 94.3135C55.2326 94.3135 54.9483 94.4375 54.7184 94.6855C54.4885 94.9305 54.3464 95.2753 54.2919 95.7199H56.7509V95.6564C56.7267 95.2299 56.6118 94.9002 56.4061 94.6674C56.2005 94.4314 55.9222 94.3135 55.5713 94.3135ZM62.3994 96.532H61.7869V98.6235H60.943V93.7146H61.7869V95.7925H62.3359L63.9873 93.7146H65.0036L63.0618 96.0738L65.1669 98.6235H64.1007L62.3994 96.532ZM69.8989 98.6235H69.0596V96.5275H66.8047V98.6235H65.9609V93.7146H66.8047V95.8424H69.0596V93.7146H69.8989V98.6235ZM71.0286 96.1237C71.0286 95.6428 71.1223 95.2103 71.3099 94.8261C71.5004 94.442 71.7636 94.1456 72.0993 93.9369C72.438 93.7282 72.8237 93.6239 73.2562 93.6239C73.9246 93.6239 74.4645 93.8552 74.8759 94.318C75.2902 94.7808 75.4974 95.3963 75.4974 96.1645V96.2235C75.4974 96.7014 75.4052 97.1309 75.2207 97.512C75.0392 97.8901 74.7776 98.185 74.4358 98.3967C74.097 98.6084 73.7069 98.7143 73.2653 98.7143C72.5999 98.7143 72.06 98.4829 71.6456 98.0201C71.2343 97.5574 71.0286 96.9449 71.0286 96.1827V96.1237ZM71.8724 96.2235C71.8724 96.7679 71.998 97.205 72.249 97.5347C72.5031 97.8644 72.8418 98.0292 73.2653 98.0292C73.6917 98.0292 74.0305 97.8628 74.2815 97.5301C74.5326 97.1944 74.6581 96.7256 74.6581 96.1237C74.6581 95.5853 74.5296 95.1498 74.2725 94.8171C74.0184 94.4813 73.6796 94.3135 73.2562 94.3135C72.8418 94.3135 72.5076 94.4783 72.2535 94.808C71.9995 95.1377 71.8724 95.6095 71.8724 96.2235ZM80.5652 98.6235H79.7258V94.4087H77.4664V98.6235H76.6226V93.7146H80.5652V98.6235ZM83.4416 96.532H82.8291V98.6235H81.9852V93.7146H82.8291V95.7925H83.378L85.0295 93.7146H86.0457L84.1039 96.0738L86.2091 98.6235H85.1429L83.4416 96.532ZM90.1063 93.7146H90.9456V98.6235H90.1063V95.0439L87.8424 98.6235H87.003V93.7146H87.8424V97.2988L90.1063 93.7146Z" fill="#9E9E9E"/>
<rect x="15.8769" y="157.166" width="181.543" height="24.3011" rx="3.21632" fill="white" stroke="#E5E5E5" stroke-width="0.714737"/>
<path d="M29.711 171.096H28.5132L28.1503 172.957H27.5015L27.8644 171.096H26.7801V170.475H27.9824L28.2955 168.869H27.1249V168.238H28.4179L28.79 166.351H29.4388L29.0667 168.238H30.2645L30.6365 166.351H31.2898L30.9178 168.238H31.8433V168.869H30.7953L30.4822 170.475H31.503V171.096H30.3643L30.0013 172.957H29.348L29.711 171.096ZM28.6312 170.475H29.8289L30.142 168.869H28.9442L28.6312 170.475ZM32.3968 170.461C32.3968 169.708 32.5753 169.103 32.9322 168.646C33.2891 168.187 33.7564 167.957 34.3341 167.957C34.9088 167.957 35.364 168.153 35.6997 168.547V165.988H36.539V172.957H35.7677L35.7269 172.43C35.3912 172.842 34.9239 173.047 34.325 173.047C33.7564 173.047 33.2921 172.814 32.9322 172.349C32.5753 171.883 32.3968 171.275 32.3968 170.525V170.461ZM33.2361 170.557C33.2361 171.113 33.3511 171.549 33.5809 171.863C33.8108 172.178 34.1284 172.335 34.5337 172.335C35.066 172.335 35.4547 172.096 35.6997 171.618V169.363C35.4486 168.901 35.063 168.669 34.5428 168.669C34.1314 168.669 33.8108 168.828 33.5809 169.146C33.3511 169.463 33.2361 169.933 33.2361 170.557ZM39.8827 173.047C39.2173 173.047 38.6759 172.83 38.2585 172.394C37.8411 171.955 37.6324 171.37 37.6324 170.638V170.484C37.6324 169.997 37.7247 169.563 37.9092 169.182C38.0967 168.798 38.3568 168.498 38.6895 168.284C39.0252 168.066 39.3882 167.957 39.7784 167.957C40.4166 167.957 40.9126 168.167 41.2665 168.588C41.6203 169.008 41.7973 169.61 41.7973 170.393V170.743H38.4717C38.4838 171.226 38.6245 171.618 38.8937 171.918C39.1659 172.214 39.5107 172.362 39.9281 172.362C40.2245 172.362 40.4755 172.302 40.6812 172.181C40.8869 172.06 41.0668 171.899 41.2211 171.7L41.7338 172.099C41.3224 172.731 40.7054 173.047 39.8827 173.047ZM39.7784 168.646C39.4396 168.646 39.1553 168.77 38.9254 169.019C38.6956 169.264 38.5534 169.608 38.499 170.053H40.958V169.989C40.9338 169.563 40.8188 169.233 40.6132 169C40.4075 168.764 40.1292 168.646 39.7784 168.646ZM45.631 171.654C45.631 171.428 45.5448 171.252 45.3724 171.128C45.203 171.001 44.9051 170.892 44.4786 170.802C44.0552 170.711 43.7179 170.602 43.4669 170.475C43.2189 170.348 43.0343 170.197 42.9134 170.021C42.7954 169.846 42.7364 169.637 42.7364 169.395C42.7364 168.993 42.9058 168.653 43.2446 168.374C43.5863 168.096 44.0219 167.957 44.5512 167.957C45.1077 167.957 45.5584 168.101 45.9032 168.388C46.251 168.675 46.4249 169.043 46.4249 169.49H45.5811C45.5811 169.26 45.4828 169.062 45.2862 168.896C45.0926 168.73 44.8476 168.646 44.5512 168.646C44.2457 168.646 44.0068 168.713 43.8344 168.846C43.662 168.979 43.5758 169.153 43.5758 169.368C43.5758 169.57 43.6559 169.723 43.8162 169.826C43.9765 169.929 44.2654 170.027 44.6828 170.121C45.1032 170.215 45.4434 170.327 45.7036 170.457C45.9637 170.587 46.1557 170.744 46.2797 170.929C46.4068 171.11 46.4703 171.332 46.4703 171.595C46.4703 172.034 46.2949 172.386 45.944 172.653C45.5932 172.916 45.138 173.047 44.5784 173.047C44.1852 173.047 43.8374 172.978 43.5349 172.839C43.2325 172.699 42.995 172.506 42.8226 172.258C42.6532 172.007 42.5686 171.736 42.5686 171.446H43.4079C43.423 171.727 43.5349 171.951 43.7436 172.117C43.9553 172.281 44.2336 172.362 44.5784 172.362C44.896 172.362 45.1501 172.299 45.3406 172.172C45.5342 172.042 45.631 171.869 45.631 171.654ZM48.4756 172.957H47.6363V168.048H48.4756V172.957ZM47.5682 166.746C47.5682 166.609 47.6091 166.494 47.6907 166.401C47.7754 166.307 47.8994 166.26 48.0628 166.26C48.2261 166.26 48.3501 166.307 48.4348 166.401C48.5195 166.494 48.5618 166.609 48.5618 166.746C48.5618 166.882 48.5195 166.995 48.4348 167.086C48.3501 167.177 48.2261 167.222 48.0628 167.222C47.8994 167.222 47.7754 167.177 47.6907 167.086C47.6091 166.995 47.5682 166.882 47.5682 166.746ZM49.6234 170.461C49.6234 169.696 49.8004 169.088 50.1543 168.637C50.5081 168.184 50.977 167.957 51.5607 167.957C52.1596 167.957 52.6269 168.169 52.9626 168.592L53.0034 168.048H53.7702V172.839C53.7702 173.474 53.5811 173.974 53.2031 174.34C52.828 174.706 52.3229 174.889 51.6877 174.889C51.3339 174.889 50.9875 174.814 50.6488 174.662C50.31 174.511 50.0514 174.304 49.873 174.041L50.3085 173.537C50.6685 173.982 51.1085 174.204 51.6288 174.204C52.0371 174.204 52.3547 174.089 52.5815 173.859C52.8114 173.63 52.9263 173.306 52.9263 172.888V172.467C52.5906 172.854 52.1324 173.047 51.5516 173.047C50.977 173.047 50.5112 172.816 50.1543 172.353C49.8004 171.89 49.6234 171.26 49.6234 170.461ZM50.4673 170.557C50.4673 171.11 50.5807 171.546 50.8076 171.863C51.0344 172.178 51.352 172.335 51.7603 172.335C52.2896 172.335 52.6783 172.095 52.9263 171.614V169.372C52.6692 168.904 52.2836 168.669 51.7694 168.669C51.3611 168.669 51.042 168.828 50.8121 169.146C50.5822 169.463 50.4673 169.933 50.4673 170.557ZM55.8345 168.048L55.8617 168.665C56.2367 168.193 56.7267 167.957 57.3317 167.957C58.3691 167.957 58.8924 168.542 58.9014 169.713V172.957H58.0621V169.708C58.0591 169.354 57.9774 169.093 57.8171 168.923C57.6598 168.754 57.4133 168.669 57.0776 168.669C56.8054 168.669 56.5664 168.742 56.3608 168.887C56.1551 169.032 55.9948 169.223 55.8798 169.459V172.957H55.0405V168.048H55.8345Z" fill="#343434"/>
<path d="M21.1453 147.989C21.0636 148.688 20.805 149.227 20.3695 149.609C19.937 149.987 19.3608 150.176 18.6409 150.176C17.8606 150.176 17.2345 149.896 16.7626 149.336C16.2938 148.777 16.0594 148.028 16.0594 147.091V146.455C16.0594 145.841 16.1683 145.302 16.3861 144.836C16.6069 144.37 16.9184 144.013 17.3207 143.765C17.723 143.514 18.1887 143.388 18.7181 143.388C19.4198 143.388 19.9823 143.585 20.4058 143.978C20.8292 144.368 21.0757 144.91 21.1453 145.602H20.2697C20.1941 145.076 20.0292 144.695 19.7751 144.459C19.5241 144.223 19.1717 144.105 18.7181 144.105C18.1615 144.105 17.7245 144.311 17.4069 144.722C17.0923 145.134 16.935 145.719 16.935 146.478V147.118C16.935 147.835 17.0848 148.405 17.3842 148.828C17.6836 149.252 18.1025 149.463 18.6409 149.463C19.1249 149.463 19.4954 149.355 19.7525 149.137C20.0126 148.916 20.185 148.533 20.2697 147.989H21.1453ZM24.1759 149.491C24.4754 149.491 24.737 149.4 24.9608 149.218C25.1847 149.037 25.3087 148.81 25.3329 148.538H26.1268C26.1117 148.819 26.0149 149.087 25.8365 149.341C25.658 149.595 25.4191 149.798 25.1196 149.949C24.8232 150.1 24.5087 150.176 24.1759 150.176C23.5075 150.176 22.9752 149.953 22.579 149.509C22.1858 149.061 21.9892 148.45 21.9892 147.676V147.535C21.9892 147.057 22.0769 146.632 22.2523 146.26C22.4277 145.888 22.6788 145.599 23.0054 145.394C23.3351 145.188 23.7238 145.085 24.1714 145.085C24.7219 145.085 25.1786 145.25 25.5416 145.58C25.9075 145.909 26.1026 146.337 26.1268 146.864H25.3329C25.3087 146.546 25.1877 146.286 24.9699 146.083C24.7552 145.878 24.489 145.775 24.1714 145.775C23.7449 145.775 23.4137 145.929 23.1778 146.238C22.9449 146.543 22.8285 146.986 22.8285 147.567V147.726C22.8285 148.291 22.9449 148.727 23.1778 149.032C23.4107 149.338 23.7434 149.491 24.1759 149.491ZM27.9869 146.868H29.2618C29.8183 146.874 30.2584 147.02 30.5821 147.304C30.9057 147.588 31.0675 147.974 31.0675 148.461C31.0675 148.951 30.9012 149.344 30.5684 149.64C30.2357 149.937 29.7881 150.085 29.2255 150.085H27.1476V145.176H27.9869V146.868ZM32.8188 150.085H31.9749V145.176H32.8188V150.085ZM27.9869 147.553V149.4H29.2346C29.5492 149.4 29.7926 149.32 29.965 149.159C30.1374 148.996 30.2236 148.774 30.2236 148.493C30.2236 148.22 30.139 147.998 29.9696 147.826C29.8032 147.65 29.5688 147.559 29.2664 147.553H27.9869ZM38.3084 145.176V150.085H37.4645V145.87H35.795L35.6952 147.708C35.6407 148.551 35.4986 149.155 35.2687 149.518C35.0418 149.881 34.6804 150.07 34.1844 150.085H33.8486V149.345L34.0891 149.327C34.3613 149.297 34.5564 149.14 34.6743 148.855C34.7923 148.571 34.8679 148.045 34.9012 147.277L34.9919 145.176H38.3084ZM41.1848 147.993H40.5723V150.085H39.7285V145.176H40.5723V147.254H41.1213L42.7727 145.176H43.789L41.8472 147.535L43.9523 150.085H42.8862L41.1848 147.993ZM47.7043 150.085C47.656 149.988 47.6166 149.816 47.5864 149.568C47.1962 149.973 46.7304 150.176 46.189 150.176C45.7051 150.176 45.3073 150.04 44.9958 149.767C44.6873 149.492 44.533 149.144 44.533 148.724C44.533 148.213 44.7266 147.817 45.1138 147.535C45.5039 147.251 46.0514 147.109 46.7561 147.109H47.5728V146.723C47.5728 146.43 47.4851 146.197 47.3096 146.024C47.1342 145.849 46.8756 145.761 46.5338 145.761C46.2344 145.761 45.9833 145.837 45.7807 145.988C45.578 146.139 45.4767 146.322 45.4767 146.537H44.6329C44.6329 146.292 44.7191 146.056 44.8915 145.829C45.0669 145.599 45.3028 145.418 45.5992 145.285C45.8987 145.152 46.2268 145.085 46.5837 145.085C47.1493 145.085 47.5924 145.227 47.913 145.512C48.2337 145.793 48.4 146.182 48.4121 146.678V148.937C48.4121 149.388 48.4696 149.746 48.5845 150.012V150.085H47.7043ZM46.3115 149.445C46.5747 149.445 46.8242 149.377 47.0601 149.241C47.296 149.105 47.4669 148.928 47.5728 148.71V147.703H46.9149C45.8866 147.703 45.3724 148.004 45.3724 148.606C45.3724 148.869 45.4601 149.075 45.6355 149.223C45.8109 149.371 46.0363 149.445 46.3115 149.445ZM52.2004 150.652H51.479L54.2375 143.479H54.9543L52.2004 150.652ZM59.8133 146.968L60.9022 145.176H61.8822L60.2761 147.603L61.9321 150.085H60.9612L59.827 148.248L58.6927 150.085H57.7173L59.3733 147.603L57.7672 145.176H58.7381L59.8133 146.968ZM65.8066 150.085C65.7582 149.988 65.7189 149.816 65.6886 149.568C65.2985 149.973 64.8327 150.176 64.2913 150.176C63.8073 150.176 63.4096 150.04 63.0981 149.767C62.7896 149.492 62.6353 149.144 62.6353 148.724C62.6353 148.213 62.8289 147.817 63.216 147.535C63.6062 147.251 64.1537 147.109 64.8584 147.109H65.675V146.723C65.675 146.43 65.5873 146.197 65.4119 146.024C65.2365 145.849 64.9779 145.761 64.6361 145.761C64.3366 145.761 64.0856 145.837 63.8829 145.988C63.6803 146.139 63.579 146.322 63.579 146.537H62.7351C62.7351 146.292 62.8213 146.056 62.9937 145.829C63.1691 145.599 63.4051 145.418 63.7015 145.285C64.0009 145.152 64.3291 145.085 64.686 145.085C65.2516 145.085 65.6947 145.227 66.0153 145.512C66.3359 145.793 66.5023 146.182 66.5144 146.678V148.937C66.5144 149.388 66.5718 149.746 66.6868 150.012V150.085H65.8066ZM64.4138 149.445C64.6769 149.445 64.9264 149.377 65.1624 149.241C65.3983 149.105 65.5692 148.928 65.675 148.71V147.703H65.0172C63.9888 147.703 63.4746 148.004 63.4746 148.606C63.4746 148.869 63.5623 149.075 63.7378 149.223C63.9132 149.371 64.1385 149.445 64.4138 149.445ZM68.7465 145.176V149.4H70.5431V145.176H71.3825V149.4H73.1745V145.176H74.0184V150.085H67.9027V145.176H68.7465ZM78.9908 145.857H77.344V150.085H76.5046V145.857H74.8895V145.176H78.9908V145.857ZM81.4816 150.176C80.8162 150.176 80.2748 149.958 79.8574 149.522C79.44 149.084 79.2313 148.499 79.2313 147.767V147.612C79.2313 147.125 79.3236 146.691 79.5081 146.31C79.6956 145.926 79.9557 145.627 80.2884 145.412C80.6241 145.194 80.9871 145.085 81.3773 145.085C82.0155 145.085 82.5115 145.296 82.8654 145.716C83.2192 146.136 83.3962 146.738 83.3962 147.522V147.871H80.0706C80.0827 148.355 80.2234 148.747 80.4926 149.046C80.7648 149.342 81.1096 149.491 81.527 149.491C81.8234 149.491 82.0744 149.43 82.2801 149.309C82.4858 149.188 82.6657 149.028 82.82 148.828L83.3327 149.227C82.9213 149.86 82.3043 150.176 81.4816 150.176ZM81.3773 145.775C81.0385 145.775 80.7542 145.899 80.5243 146.147C80.2945 146.392 80.1523 146.737 80.0979 147.181H82.5569V147.118C82.5327 146.691 82.4177 146.362 82.2121 146.129C82.0064 145.893 81.7281 145.775 81.3773 145.775ZM87.5429 145.87H85.279V150.085H84.4351V145.176H87.5429V145.87ZM90.746 150.652H90.0246L92.783 143.479H93.4999L90.746 150.652ZM98.7491 150.176C98.0837 150.176 97.5423 149.958 97.1249 149.522C96.7075 149.084 96.4988 148.499 96.4988 147.767V147.612C96.4988 147.125 96.591 146.691 96.7755 146.31C96.963 145.926 97.2232 145.627 97.5559 145.412C97.8916 145.194 98.2546 145.085 98.6447 145.085C99.2829 145.085 99.779 145.296 100.133 145.716C100.487 146.136 100.664 146.738 100.664 147.522V147.871H97.3381C97.3502 148.355 97.4908 148.747 97.76 149.046C98.0322 149.342 98.377 149.491 98.7944 149.491C99.0909 149.491 99.3419 149.43 99.5476 149.309C99.7532 149.188 99.9332 149.028 100.087 148.828L100.6 149.227C100.189 149.86 99.5718 150.176 98.7491 150.176ZM98.6447 145.775C98.306 145.775 98.0217 145.899 97.7918 146.147C97.5619 146.392 97.4198 146.737 97.3653 147.181H99.8243V147.118C99.8001 146.691 99.6852 146.362 99.4795 146.129C99.2738 145.893 98.9956 145.775 98.6447 145.775ZM103.386 147.621H101.172V146.936H103.386V147.621ZM104.996 145.176L105.019 145.72C105.379 145.297 105.864 145.085 106.475 145.085C107.162 145.085 107.629 145.348 107.877 145.875C108.041 145.639 108.252 145.448 108.512 145.303C108.776 145.158 109.086 145.085 109.443 145.085C110.519 145.085 111.067 145.655 111.085 146.796V150.085H110.246V146.846C110.246 146.495 110.165 146.233 110.005 146.061C109.845 145.885 109.576 145.798 109.198 145.798C108.886 145.798 108.627 145.891 108.422 146.079C108.216 146.263 108.097 146.513 108.063 146.827V150.085H107.219V146.868C107.219 146.154 106.87 145.798 106.171 145.798C105.621 145.798 105.244 146.032 105.042 146.501V150.085H104.202V145.176H104.996ZM115.386 150.085C115.338 149.988 115.298 149.816 115.268 149.568C114.878 149.973 114.412 150.176 113.871 150.176C113.387 150.176 112.989 150.04 112.677 149.767C112.369 149.492 112.215 149.144 112.215 148.724C112.215 148.213 112.408 147.817 112.795 147.535C113.186 147.251 113.733 147.109 114.438 147.109H115.254V146.723C115.254 146.43 115.167 146.197 114.991 146.024C114.816 145.849 114.557 145.761 114.215 145.761C113.916 145.761 113.665 145.837 113.462 145.988C113.26 146.139 113.158 146.322 113.158 146.537H112.314C112.314 146.292 112.401 146.056 112.573 145.829C112.748 145.599 112.984 145.418 113.281 145.285C113.58 145.152 113.908 145.085 114.265 145.085C114.831 145.085 115.274 145.227 115.595 145.512C115.915 145.793 116.082 146.182 116.094 146.678V148.937C116.094 149.388 116.151 149.746 116.266 150.012V150.085H115.386ZM113.993 149.445C114.256 149.445 114.506 149.377 114.742 149.241C114.978 149.105 115.148 148.928 115.254 148.71V147.703H114.596C113.568 147.703 113.054 148.004 113.054 148.606C113.054 148.869 113.142 149.075 113.317 149.223C113.493 149.371 113.718 149.445 113.993 149.445ZM118.321 150.085H117.482V145.176H118.321V150.085ZM117.414 143.874C117.414 143.738 117.455 143.623 117.536 143.529C117.621 143.435 117.745 143.388 117.908 143.388C118.072 143.388 118.196 143.435 118.28 143.529C118.365 143.623 118.407 143.738 118.407 143.874C118.407 144.01 118.365 144.123 118.28 144.214C118.196 144.305 118.072 144.35 117.908 144.35C117.745 144.35 117.621 144.305 117.536 144.214C117.455 144.123 117.414 144.01 117.414 143.874ZM120.581 150.085H119.741V143.116H120.581V150.085Z" fill="#9E9E9E"/>
<rect x="4.80078" y="74.6138" width="228.716" height="0.714737" fill="#EFEFEF"/>
<path d="M86.2745 58.5917C86.2079 59.2964 85.9478 59.8469 85.4941 60.2431C85.0404 60.6363 84.437 60.8329 83.6839 60.8329C83.1576 60.8329 82.6933 60.7089 82.2911 60.4609C81.8918 60.2099 81.5833 59.8545 81.3655 59.3947C81.1478 58.935 81.0343 58.4011 81.0253 57.7932V57.1762C81.0253 56.5531 81.1357 56.0041 81.3565 55.5293C81.5773 55.0544 81.8933 54.6884 82.3047 54.4314C82.719 54.1743 83.1969 54.0457 83.7383 54.0457C84.4673 54.0457 85.054 54.2438 85.4987 54.64C85.9433 55.0363 86.2019 55.5958 86.2745 56.3187H85.1312C85.0767 55.8438 84.9376 55.5021 84.7138 55.2934C84.493 55.0816 84.1678 54.9758 83.7383 54.9758C83.2393 54.9758 82.8551 55.1588 82.586 55.5247C82.3198 55.8877 82.1837 56.4215 82.1776 57.1263V57.7115C82.1776 58.4253 82.3047 58.9698 82.5587 59.3448C82.8158 59.7199 83.1909 59.9074 83.6839 59.9074C84.1346 59.9074 84.4733 59.8061 84.7002 59.6034C84.927 59.4008 85.0707 59.0635 85.1312 58.5917H86.2745ZM89.2144 59.9528C89.4896 59.9528 89.718 59.8726 89.8995 59.7123C90.0809 59.552 90.1777 59.3539 90.1898 59.118H91.2288C91.2167 59.4235 91.1214 59.7093 90.9429 59.9755C90.7645 60.2386 90.5225 60.4473 90.217 60.6015C89.9116 60.7558 89.5819 60.8329 89.228 60.8329C88.5414 60.8329 87.997 60.6106 87.5947 60.166C87.1924 59.7214 86.9913 59.1074 86.9913 58.324V58.2106C86.9913 57.4635 87.1909 56.8662 87.5902 56.4185C87.9894 55.9678 88.5338 55.7425 89.2235 55.7425C89.8072 55.7425 90.2821 55.9134 90.648 56.2552C91.017 56.5939 91.2106 57.0401 91.2288 57.5936H90.1898C90.1777 57.3123 90.0809 57.0809 89.8995 56.8994C89.721 56.718 89.4926 56.6272 89.2144 56.6272C88.8575 56.6272 88.5822 56.7573 88.3887 57.0174C88.1951 57.2745 88.0968 57.6662 88.0938 58.1924V58.3694C88.0938 58.9017 88.189 59.2995 88.3796 59.5626C88.5732 59.8227 88.8514 59.9528 89.2144 59.9528ZM93.2477 57.394H94.3275C94.7297 57.394 95.0806 57.4635 95.38 57.6026C95.6795 57.7418 95.9063 57.9369 96.0606 58.1879C96.2179 58.439 96.2965 58.7308 96.2965 59.0635C96.2965 59.5686 96.118 59.9739 95.7611 60.2794C95.4042 60.5849 94.9294 60.7392 94.3365 60.7422H92.1452V55.8333H93.2477V57.394ZM98.2156 60.7422H97.1131V55.8333H98.2156V60.7422ZM93.2477 58.2786V59.862H94.3229C94.5921 59.862 94.8038 59.7955 94.9581 59.6624C95.1154 59.5263 95.194 59.3342 95.194 59.0862C95.194 58.8382 95.1169 58.6431 94.9626 58.501C94.8114 58.3558 94.6057 58.2817 94.3456 58.2786H93.2477ZM103.71 55.8333V60.7422H102.607V56.7225H101.219L101.128 58.4329C101.071 59.2556 100.912 59.8469 100.652 60.2068C100.395 60.5637 100 60.7422 99.4678 60.7422H99.1275L99.123 59.8257L99.3498 59.803C99.5918 59.7698 99.7672 59.6231 99.8761 59.363C99.988 59.0998 100.059 58.6219 100.089 57.9293L100.18 55.8333H103.71ZM106.627 58.8004H106.069V60.7422H104.967V55.8333H106.069V57.7932H106.554L107.911 55.8333H109.272L107.498 58.1834L109.422 60.7422H107.988L106.627 58.8004ZM112.961 60.7422C112.912 60.6484 112.87 60.4957 112.834 60.284C112.483 60.6499 112.053 60.8329 111.545 60.8329C111.052 60.8329 110.65 60.6923 110.338 60.411C110.027 60.1297 109.871 59.7819 109.871 59.3675C109.871 58.8442 110.064 58.4435 110.452 58.1652C110.842 57.8839 111.398 57.7433 112.121 57.7433H112.797V57.4212C112.797 57.1671 112.726 56.9645 112.584 56.8132C112.442 56.659 112.226 56.5818 111.935 56.5818C111.684 56.5818 111.478 56.6454 111.318 56.7724C111.158 56.8964 111.078 57.0552 111.078 57.2488H109.975C109.975 56.9796 110.064 56.7285 110.243 56.4956C110.421 56.2597 110.663 56.0752 110.969 55.9421C111.277 55.8091 111.621 55.7425 111.999 55.7425C112.573 55.7425 113.032 55.8877 113.373 56.1781C113.715 56.4654 113.891 56.8707 113.9 57.394V59.608C113.9 60.0496 113.962 60.4019 114.086 60.6651V60.7422H112.961ZM111.749 59.9482C111.967 59.9482 112.171 59.8953 112.362 59.7894C112.555 59.6836 112.7 59.5414 112.797 59.363V58.4374H112.203C111.795 58.4374 111.488 58.5085 111.282 58.6507C111.076 58.7928 110.973 58.994 110.973 59.2541C110.973 59.4658 111.043 59.6352 111.182 59.7622C111.324 59.8862 111.513 59.9482 111.749 59.9482ZM117.193 58.3785H114.812V57.4892H117.193V58.3785ZM119.848 58.8004H119.29V60.7422H118.187V55.8333H119.29V57.7932H119.775L121.132 55.8333H122.493L120.719 58.1834L122.642 60.7422H121.209L119.848 58.8004ZM127.406 60.7422H126.304V58.7596H124.394V60.7422H123.291V55.8333H124.394V57.8794H126.304V55.8333H127.406V60.7422ZM128.377 58.2424C128.377 57.7614 128.472 57.3289 128.663 56.9448C128.853 56.5576 129.121 56.2612 129.466 56.0556C129.811 55.8469 130.207 55.7425 130.654 55.7425C131.317 55.7425 131.854 55.9558 132.265 56.3822C132.679 56.8087 132.903 57.3743 132.937 58.079L132.941 58.3376C132.941 58.8216 132.847 59.2541 132.66 59.6352C132.475 60.0163 132.209 60.3112 131.861 60.5199C131.516 60.7286 131.117 60.8329 130.664 60.8329C129.971 60.8329 129.416 60.6031 128.999 60.1433C128.584 59.6806 128.377 59.065 128.377 58.2968V58.2424ZM129.479 58.3376C129.479 58.8427 129.584 59.239 129.792 59.5263C130.001 59.8106 130.292 59.9528 130.664 59.9528C131.036 59.9528 131.324 59.8076 131.53 59.5172C131.739 59.2269 131.843 58.8019 131.843 58.2424C131.843 57.7463 131.736 57.3531 131.521 57.0628C131.309 56.7724 131.02 56.6272 130.654 56.6272C130.295 56.6272 130.009 56.7709 129.797 57.0582C129.585 57.3425 129.479 57.769 129.479 58.3376ZM138.036 60.7422H136.934V56.7225H135.019V60.7422H133.917V55.8333H138.036V60.7422ZM140.953 58.8004H140.395V60.7422H139.293V55.8333H140.395V57.7932H140.881L142.237 55.8333H143.598L141.824 58.1834L143.748 60.7422H142.314L140.953 58.8004ZM147.287 60.7422C147.238 60.6484 147.196 60.4957 147.16 60.284C146.809 60.6499 146.379 60.8329 145.871 60.8329C145.378 60.8329 144.976 60.6923 144.664 60.411C144.353 60.1297 144.197 59.7819 144.197 59.3675C144.197 58.8442 144.391 58.4435 144.778 58.1652C145.168 57.8839 145.725 57.7433 146.447 57.7433H147.123V57.4212C147.123 57.1671 147.052 56.9645 146.91 56.8132C146.768 56.659 146.552 56.5818 146.261 56.5818C146.01 56.5818 145.805 56.6454 145.644 56.7724C145.484 56.8964 145.404 57.0552 145.404 57.2488H144.301C144.301 56.9796 144.391 56.7285 144.569 56.4956C144.748 56.2597 144.99 56.0752 145.295 55.9421C145.604 55.8091 145.947 55.7425 146.325 55.7425C146.9 55.7425 147.358 55.8877 147.7 56.1781C148.041 56.4654 148.217 56.8707 148.226 57.394V59.608C148.226 60.0496 148.288 60.4019 148.412 60.6651V60.7422H147.287ZM146.075 59.9482C146.293 59.9482 146.497 59.8953 146.688 59.7894C146.881 59.6836 147.027 59.5414 147.123 59.363V58.4374H146.529C146.121 58.4374 145.814 58.5085 145.608 58.6507C145.402 58.7928 145.3 58.994 145.3 59.2541C145.3 59.4658 145.369 59.6352 145.508 59.7622C145.65 59.8862 145.84 59.9482 146.075 59.9482Z" fill="black"/>
<circle cx="213.858" cy="117.856" r="8.93421" fill="#F5F5F5"/>
<path d="M213.27 119.088C213.27 118.685 213.315 118.363 213.405 118.124C213.495 117.885 213.659 117.65 213.897 117.419C214.137 117.186 214.297 116.997 214.377 116.853C214.456 116.706 214.496 116.552 214.496 116.39C214.496 115.903 214.289 115.66 213.877 115.66C213.681 115.66 213.524 115.726 213.405 115.859C213.289 115.988 213.228 116.169 213.223 116.399H212.072C212.078 115.849 212.24 115.418 212.56 115.107C212.883 114.795 213.322 114.64 213.877 114.64C214.438 114.64 214.873 114.788 215.182 115.085C215.491 115.379 215.646 115.795 215.646 116.334C215.646 116.579 215.596 116.811 215.495 117.03C215.395 117.246 215.219 117.487 214.968 117.752L214.646 118.085C214.445 118.295 214.33 118.542 214.301 118.824L214.285 119.088H213.27ZM213.155 120.415C213.155 120.222 213.215 120.064 213.334 119.94C213.455 119.813 213.61 119.749 213.798 119.749C213.985 119.749 214.139 119.813 214.258 119.94C214.379 120.064 214.44 120.222 214.44 120.415C214.44 120.605 214.381 120.762 214.262 120.886C214.145 121.01 213.991 121.072 213.798 121.072C213.605 121.072 213.449 121.01 213.33 120.886C213.213 120.762 213.155 120.605 213.155 120.415Z" fill="#343434"/>
<circle cx="213.858" cy="169.317" r="8.93421" fill="#F5F5F5"/>
<path d="M213.27 170.549C213.27 170.145 213.315 169.824 213.405 169.585C213.495 169.346 213.659 169.111 213.897 168.88C214.137 168.647 214.297 168.458 214.377 168.314C214.456 168.167 214.496 168.013 214.496 167.851C214.496 167.364 214.289 167.121 213.877 167.121C213.681 167.121 213.524 167.187 213.405 167.32C213.289 167.449 213.228 167.629 213.223 167.86H212.072C212.078 167.31 212.24 166.879 212.56 166.567C212.883 166.256 213.322 166.101 213.877 166.101C214.438 166.101 214.873 166.249 215.182 166.546C215.491 166.84 215.646 167.256 215.646 167.795C215.646 168.04 215.596 168.272 215.495 168.491C215.395 168.707 215.219 168.948 214.968 169.213L214.646 169.546C214.445 169.756 214.33 170.003 214.301 170.285L214.285 170.549H213.27ZM213.155 171.876C213.155 171.683 213.215 171.525 213.334 171.401C213.455 171.274 213.61 171.21 213.798 171.21C213.985 171.21 214.139 171.274 214.258 171.401C214.379 171.525 214.44 171.683 214.44 171.876C214.44 172.066 214.381 172.223 214.262 172.347C214.145 172.471 213.991 172.533 213.798 172.533C213.605 172.533 213.449 172.471 213.33 172.347C213.213 172.223 213.155 172.066 213.155 171.876Z" fill="#343434"/>
<rect x="4.79883" y="449.399" width="114.358" height="28.5895" fill="#20AF48"/>
<rect x="119.158" y="449.399" width="114.358" height="28.5895" fill="white"/>
<rect opacity="0.1" width="228.716" height="5.7179" transform="matrix(1 0 0 -1 4.79883 449.399)" fill="url(#paint0_linear_0_19535)"/>
<path d="M44.7786 465.594C44.6969 466.293 44.4383 466.832 44.0027 467.214C43.5702 467.592 42.994 467.781 42.2742 467.781C41.4938 467.781 40.8677 467.501 40.3959 466.941C39.9271 466.382 39.6927 465.633 39.6927 464.696V464.06C39.6927 463.446 39.8016 462.907 40.0193 462.441C40.2401 461.975 40.5517 461.618 40.9539 461.37C41.3562 461.119 41.822 460.993 42.3513 460.993C43.053 460.993 43.6156 461.19 44.039 461.583C44.4625 461.973 44.709 462.515 44.7786 463.207H43.9029C43.8273 462.681 43.6625 462.3 43.4084 462.064C43.1574 461.828 42.805 461.71 42.3513 461.71C41.7948 461.71 41.3577 461.916 41.0401 462.327C40.7256 462.739 40.5683 463.324 40.5683 464.083V464.723C40.5683 465.44 40.718 466.01 41.0175 466.433C41.3169 466.857 41.7358 467.068 42.2742 467.068C42.7581 467.068 43.1286 466.959 43.3857 466.742C43.6458 466.521 43.8182 466.138 43.9029 465.594H44.7786ZM45.6179 465.19C45.6179 464.709 45.7116 464.277 45.8992 463.893C46.0897 463.508 46.3529 463.212 46.6886 463.003C47.0273 462.795 47.413 462.69 47.8455 462.69C48.5139 462.69 49.0538 462.922 49.4652 463.384C49.8795 463.847 50.0867 464.463 50.0867 465.231V465.29C50.0867 465.768 49.9945 466.197 49.81 466.578C49.6285 466.956 49.3669 467.251 49.0251 467.463C48.6863 467.675 48.2962 467.781 47.8546 467.781C47.1892 467.781 46.6493 467.549 46.2349 467.087C45.8236 466.624 45.6179 466.011 45.6179 465.249V465.19ZM46.4617 465.29C46.4617 465.834 46.5873 466.271 46.8383 466.601C47.0924 466.931 47.4311 467.096 47.8546 467.096C48.281 467.096 48.6198 466.929 48.8708 466.597C49.1219 466.261 49.2474 465.792 49.2474 465.19C49.2474 464.652 49.1189 464.216 48.8618 463.883C48.6077 463.548 48.2689 463.38 47.8455 463.38C47.4311 463.38 47.0969 463.545 46.8428 463.874C46.5888 464.204 46.4617 464.676 46.4617 465.29ZM52.6864 464.573L53.7752 462.781H54.7552L53.1491 465.208L54.8051 467.69H53.8342L52.7 465.852L51.5658 467.69H50.5903L52.2463 465.208L50.6402 462.781H51.6111L52.6864 464.573ZM59.7957 465.29C59.7957 466.037 59.6248 466.639 59.283 467.096C58.9413 467.552 58.4785 467.781 57.8947 467.781C57.2989 467.781 56.8301 467.592 56.4883 467.214V469.577H55.649V462.781H56.4157L56.4566 463.325C56.7983 462.902 57.2732 462.69 57.8811 462.69C58.4709 462.69 58.9367 462.913 59.2785 463.357C59.6233 463.802 59.7957 464.42 59.7957 465.213V465.29ZM58.9564 465.195C58.9564 464.641 58.8384 464.204 58.6025 463.883C58.3666 463.563 58.043 463.403 57.6316 463.403C57.1235 463.403 56.7424 463.628 56.4883 464.079V466.424C56.7394 466.872 57.1235 467.096 57.6407 467.096C58.043 467.096 58.3621 466.937 58.598 466.619C58.8369 466.299 58.9564 465.824 58.9564 465.195ZM63.8971 467.69C63.8487 467.593 63.8094 467.421 63.7791 467.173C63.3889 467.578 62.9232 467.781 62.3818 467.781C61.8978 467.781 61.5001 467.645 61.1885 467.372C60.88 467.097 60.7258 466.749 60.7258 466.329C60.7258 465.818 60.9194 465.421 61.3065 465.14C61.6967 464.856 62.2441 464.714 62.9489 464.714H63.7655V464.328C63.7655 464.035 63.6778 463.802 63.5024 463.629C63.3269 463.454 63.0683 463.366 62.7266 463.366C62.4271 463.366 62.1761 463.442 61.9734 463.593C61.7708 463.744 61.6695 463.927 61.6695 464.142H60.8256C60.8256 463.897 60.9118 463.661 61.0842 463.434C61.2596 463.204 61.4955 463.023 61.792 462.89C62.0914 462.757 62.4196 462.69 62.7765 462.69C63.3421 462.69 63.7852 462.832 64.1058 463.117C64.4264 463.398 64.5927 463.787 64.6048 464.283V466.542C64.6048 466.993 64.6623 467.351 64.7772 467.617V467.69H63.8971ZM62.5042 467.05C62.7674 467.05 63.0169 466.982 63.2528 466.846C63.4888 466.71 63.6596 466.533 63.7655 466.315V465.308H63.1077C62.0793 465.308 61.5651 465.609 61.5651 466.211C61.5651 466.474 61.6528 466.68 61.8282 466.828C62.0037 466.976 62.229 467.05 62.5042 467.05ZM69.9312 467.69H69.0918V465.594H66.837V467.69H65.9931V462.781H66.837V464.909H69.0918V462.781H69.9312V467.69ZM74.459 462.781H75.2983V467.69H74.459V464.11L72.1951 467.69H71.3558V462.781H72.1951V466.365L74.459 462.781ZM80.2935 463.462H78.6466V467.69H77.8072V463.462H76.1921V462.781H80.2935V463.462ZM82.0266 464.473H83.3014C83.858 464.479 84.298 464.625 84.6217 464.909C84.9453 465.193 85.1071 465.579 85.1071 466.066C85.1071 466.556 84.9408 466.949 84.6081 467.245C84.2753 467.542 83.8277 467.69 83.2651 467.69H81.1872V462.781H82.0266V464.473ZM82.0266 465.158V467.005H83.2742C83.5888 467.005 83.8322 466.925 84.0046 466.764C84.177 466.601 84.2633 466.379 84.2633 466.097C84.2633 465.825 84.1786 465.603 84.0092 465.431C83.8428 465.255 83.6084 465.164 83.306 465.158H82.0266Z" fill="white"/>
<path d="M161.546 464.918L163.066 461.084H164.077L161.741 466.587C161.584 466.938 161.437 467.188 161.301 467.336C161.165 467.481 161.004 467.593 160.82 467.672C160.638 467.747 160.41 467.785 160.135 467.785C159.896 467.785 159.743 467.772 159.677 467.744L159.704 467.055L160.117 467.073C160.434 467.073 160.67 466.92 160.824 466.615L160.938 466.379L161.11 465.975L158.86 461.084H159.835L161.546 464.918ZM164.567 467.005L164.858 466.646C165.184 466.223 165.37 465.588 165.416 464.741L165.493 462.781H168.655V467.005H169.286V469.133H168.446V467.69H165.021V469.133H164.182L164.186 467.005H164.567ZM165.561 467.005H167.816V463.557H166.305L166.255 464.727C166.204 465.704 165.972 466.463 165.561 467.005ZM173.246 467.69C173.198 467.593 173.159 467.421 173.129 467.173C172.738 467.578 172.273 467.781 171.731 467.781C171.247 467.781 170.85 467.645 170.538 467.372C170.229 467.097 170.075 466.749 170.075 466.329C170.075 465.818 170.269 465.421 170.656 465.14C171.046 464.856 171.594 464.714 172.298 464.714H173.115V464.328C173.115 464.035 173.027 463.802 172.852 463.629C172.676 463.454 172.418 463.366 172.076 463.366C171.777 463.366 171.525 463.442 171.323 463.593C171.12 463.744 171.019 463.927 171.019 464.142H170.175C170.175 463.897 170.261 463.661 170.434 463.434C170.609 463.204 170.845 463.023 171.141 462.89C171.441 462.757 171.769 462.69 172.126 462.69C172.691 462.69 173.135 462.832 173.455 463.117C173.776 463.398 173.942 463.787 173.954 464.283V466.542C173.954 466.993 174.012 467.351 174.127 467.617V467.69H173.246ZM171.854 467.05C172.117 467.05 172.366 466.982 172.602 466.846C172.838 466.71 173.009 466.533 173.115 466.315V465.308H172.457C171.429 465.308 170.915 465.609 170.915 466.211C170.915 466.474 171.002 466.68 171.178 466.828C171.353 466.976 171.578 467.05 171.854 467.05ZM179.294 462.781V467.69H178.45V463.475H176.781L176.681 465.313C176.626 466.156 176.484 466.76 176.254 467.123C176.028 467.486 175.666 467.675 175.17 467.69H174.834V466.95L175.075 466.932C175.347 466.902 175.542 466.745 175.66 466.46C175.778 466.176 175.854 465.65 175.887 464.882L175.978 462.781H179.294ZM183.817 462.781H184.657V467.69H183.817V464.11L181.554 467.69H180.714V462.781H181.554V466.365L183.817 462.781ZM189.652 463.462H188.005V467.69H187.166V463.462H185.551V462.781H189.652V463.462ZM191.385 464.473H192.66C193.216 464.479 193.657 464.625 193.98 464.909C194.304 465.193 194.466 465.579 194.466 466.066C194.466 466.556 194.299 466.949 193.967 467.245C193.634 467.542 193.186 467.69 192.624 467.69H190.546V462.781H191.385V464.473ZM191.385 465.158V467.005H192.633C192.947 467.005 193.191 466.925 193.363 466.764C193.536 466.601 193.622 466.379 193.622 466.097C193.622 465.825 193.537 465.603 193.368 465.431C193.201 465.255 192.967 465.164 192.664 465.158H191.385Z" fill="#CF3D3D"/>
<rect x="4.79883" y="10.2886" width="228.716" height="28.5895" fill="black"/>
<path d="M224.756 29.2316C225.001 29.4762 225.001 29.8726 224.756 30.1171C224.512 30.3617 224.115 30.3617 223.871 30.1171L219.222 25.4682L214.573 30.1171C214.328 30.3617 213.932 30.3617 213.687 30.1171C213.443 29.8726 213.443 29.4762 213.687 29.2316L218.336 24.5826L213.687 19.9337C213.443 19.6891 213.443 19.2927 213.687 19.0481C213.932 18.8036 214.328 18.8036 214.573 19.0481L219.222 23.6971L223.871 19.0481C224.115 18.8036 224.512 18.8036 224.756 19.0481C225.001 19.2927 225.001 19.6891 224.756 19.9337L220.107 24.5826L224.756 29.2316Z" fill="white"/>
<path d="M21.9261 20.5762L25.4302 22.6226H19.882C18.7531 22.6226 17.838 23.5389 17.838 24.6691C17.838 25.7993 18.7531 26.7155 19.882 26.7155H24.8462C25.876 26.7155 26.7279 25.9532 26.8696 24.9614H28.0452C27.8977 26.6005 26.5218 27.8849 24.8462 27.8849H19.882C18.108 27.8849 16.6699 26.4452 16.6699 24.6691C16.6699 22.893 18.108 21.4532 19.882 21.4532H21.9261V20.5762Z" fill="white"/>
<path d="M28.6293 28.4696H23.3862L26.5983 30.5161V29.639H28.6293C30.4033 29.639 31.8414 28.1993 31.8414 26.4232C31.8414 24.6471 30.4033 23.2073 28.6293 23.2073H23.6651C21.9895 23.2073 20.6136 24.4918 20.4661 26.1308H21.6417C21.7834 25.1391 22.6353 24.3767 23.6651 24.3767H28.6293C29.7582 24.3767 30.6733 25.293 30.6733 26.4232C30.6733 27.5534 29.7582 28.4696 28.6293 28.4696Z" fill="white"/>
<path d="M56.2981 28.9467V23.757H57.8361V28.9467H56.2981Z" fill="white"/>
<path d="M57.0619 22.9932C56.8038 22.9932 56.591 22.9199 56.4236 22.7735C56.2562 22.62 56.1725 22.4247 56.1725 22.1875C56.1725 21.9504 56.2562 21.7585 56.4236 21.6121C56.591 21.4656 56.8038 21.3923 57.0619 21.3923C57.3269 21.3923 57.5397 21.4656 57.7001 21.6121C57.8675 21.7585 57.9512 21.9504 57.9512 22.1875C57.9512 22.4247 57.8675 22.62 57.7001 22.7735C57.5397 22.9199 57.3269 22.9932 57.0619 22.9932Z" fill="white"/>
<path fill-rule="evenodd" clip-rule="evenodd" d="M47.6256 29.0722C47.3954 29.0722 47.1617 29.0164 46.9245 28.9048C46.6943 28.7862 46.4781 28.6153 46.2758 28.3921H46.234L46.1084 28.9467H44.9052V21.6121H46.4432V23.4117L46.4014 24.2069C46.6037 24.0255 46.8199 23.886 47.0501 23.7884C47.2872 23.6837 47.5279 23.6314 47.772 23.6314C48.0859 23.6314 48.3684 23.6942 48.6195 23.8198C48.8707 23.9453 49.0834 24.1232 49.2578 24.3534C49.4392 24.5766 49.5752 24.8521 49.6659 25.18C49.7635 25.5008 49.8123 25.8601 49.8123 26.2577C49.8123 26.7041 49.7496 27.1017 49.624 27.4505C49.5054 27.7992 49.3415 28.0957 49.1322 28.3398C48.93 28.577 48.6963 28.7583 48.4312 28.8839C48.1731 29.0095 47.9046 29.0722 47.6256 29.0722ZM47.2698 27.8167C47.5349 27.8167 47.7616 27.6981 47.9499 27.4609C48.1382 27.2168 48.2324 26.8262 48.2324 26.2891C48.2324 25.3544 47.9325 24.887 47.3326 24.887C47.0257 24.887 46.7292 25.0439 46.4432 25.3578V27.4818C46.5827 27.6074 46.7222 27.6946 46.8617 27.7434C47.0013 27.7923 47.1373 27.8167 47.2698 27.8167Z" fill="white"/>
<path fill-rule="evenodd" clip-rule="evenodd" d="M40.6509 29.0722C40.1906 29.0722 39.7685 28.992 39.3849 28.8316C39.0082 28.6642 38.6839 28.427 38.4118 28.1201C38.1398 27.8132 37.927 27.44 37.7736 27.0005C37.6271 26.5611 37.5539 26.0624 37.5539 25.5043C37.5539 24.9463 37.6271 24.451 37.7736 24.0186C37.927 23.5791 38.1398 23.2129 38.4118 22.9199C38.6839 22.62 39.0082 22.3933 39.3849 22.2398C39.7685 22.0794 40.1906 21.9992 40.6509 21.9992C41.1113 21.9992 41.5298 22.0794 41.9065 22.2398C42.2901 22.3933 42.618 22.62 42.89 22.9199C43.1621 23.2199 43.3713 23.5896 43.5178 24.029C43.6713 24.4615 43.748 24.9533 43.748 25.5043C43.748 26.0624 43.6713 26.5611 43.5178 27.0005C43.3713 27.44 43.1621 27.8132 42.89 28.1201C42.618 28.427 42.2901 28.6642 41.9065 28.8316C41.5298 28.992 41.1113 29.0722 40.6509 29.0722ZM40.6509 27.7434C41.1183 27.7434 41.488 27.5446 41.76 27.147C42.0321 26.7425 42.1681 26.1949 42.1681 25.5043C42.1681 24.8207 42.0321 24.2871 41.76 23.9035C41.488 23.5198 41.1183 23.328 40.6509 23.328C40.1836 23.328 39.8139 23.5198 39.5418 23.9035C39.2698 24.2871 39.1338 24.8207 39.1338 25.5043C39.1338 26.1949 39.2698 26.7425 39.5418 27.147C39.8139 27.5446 40.1836 27.7434 40.6509 27.7434Z" fill="white"/>
<path d="M50.2667 23.757L52.0141 28.9467H53.7928L55.4878 23.757H54.0125L53.3324 26.2053C53.2627 26.4634 53.1929 26.7285 53.1232 27.0005C53.0604 27.2656 52.9976 27.5342 52.9348 27.8062H52.893C52.8232 27.5342 52.7535 27.2656 52.6837 27.0005C52.6209 26.7285 52.5547 26.4634 52.4849 26.2053L51.8153 23.757H50.2667Z" fill="white"/>
<path d="M59.4094 28.8002C59.5908 28.9816 59.814 29.0722 60.0791 29.0722C60.3441 29.0722 60.5639 28.9816 60.7382 28.8002C60.9196 28.6119 61.0103 28.3817 61.0103 28.1096C61.0103 27.8306 60.9196 27.6004 60.7382 27.4191C60.5639 27.2307 60.3441 27.1366 60.0791 27.1366C59.814 27.1366 59.5908 27.2307 59.4094 27.4191C59.2351 27.6004 59.1479 27.8306 59.1479 28.1096C59.1479 28.3817 59.2351 28.6119 59.4094 28.8002Z" fill="white"/>
<path d="M63.7391 29.0722C63.474 29.0722 63.2508 29.0304 63.0695 28.9467C62.8881 28.863 62.7416 28.7479 62.63 28.6014C62.5254 28.4479 62.4487 28.2666 62.3998 28.0573C62.351 27.8411 62.3266 27.6004 62.3266 27.3354V21.6121H63.8647V27.3981C63.8647 27.5586 63.8926 27.6702 63.9484 27.733C64.0111 27.7957 64.0739 27.8271 64.1367 27.8271H64.2204C64.2483 27.8271 64.2832 27.8202 64.325 27.8062L64.5134 28.9467C64.4297 28.9816 64.3215 29.0095 64.189 29.0304C64.0635 29.0583 63.9135 29.0722 63.7391 29.0722Z" fill="white"/>
<path d="M65.3204 23.757V28.9467H66.8585V23.757H65.3204Z" fill="white"/>
<path d="M65.446 22.7735C65.6134 22.9199 65.8261 22.9932 66.0842 22.9932C66.3493 22.9932 66.562 22.9199 66.7225 22.7735C66.8899 22.62 66.9736 22.4247 66.9736 22.1875C66.9736 21.9504 66.8899 21.7585 66.7225 21.6121C66.562 21.4656 66.3493 21.3923 66.0842 21.3923C65.8261 21.3923 65.6134 21.4656 65.446 21.6121C65.2786 21.7585 65.1949 21.9504 65.1949 22.1875C65.1949 22.4247 65.2786 22.62 65.446 22.7735Z" fill="white"/>
<path d="M68.2121 28.9467V23.757H69.4676L69.5723 24.4162H69.6141C69.8373 24.2069 70.0815 24.0255 70.3465 23.8721C70.6116 23.7116 70.922 23.6314 71.2778 23.6314C71.8428 23.6314 72.2508 23.8163 72.5019 24.186C72.76 24.5557 72.8891 25.0684 72.8891 25.724V28.9467H71.351V25.9228C71.351 25.5462 71.2987 25.2881 71.194 25.1486C71.0964 25.0091 70.936 24.9393 70.7127 24.9393C70.5174 24.9393 70.35 24.9847 70.2105 25.0753C70.071 25.159 69.9175 25.2811 69.7501 25.4415V28.9467H68.2121Z" fill="white"/>
<path d="M74.1997 21.6121V28.9467H75.696V27.6702L76.3551 26.9273L77.527 28.9467H79.1906L77.234 25.8915L79.0546 23.757H77.3805L75.7378 25.8182H75.696V21.6121H74.1997Z" fill="white"/>
<path d="M37.8025 60.0278H36.9269V56.9745H33.5968V60.0278H32.7257V53.4221H33.5968V56.2622H36.9269V53.4221H37.8025V60.0278ZM42.2487 60.0278C42.2003 59.931 42.161 59.7586 42.1307 59.5106C41.7406 59.9159 41.2748 60.1186 40.7334 60.1186C40.2494 60.1186 39.8517 59.9825 39.5402 59.7102C39.2316 59.435 39.0774 59.0872 39.0774 58.6668C39.0774 58.1556 39.271 57.7594 39.6581 57.4781C40.0483 57.1938 40.5957 57.0516 41.3005 57.0516H42.1171V56.666C42.1171 56.3726 42.0294 56.1397 41.854 55.9673C41.6785 55.7919 41.4199 55.7042 41.0782 55.7042C40.7787 55.7042 40.5277 55.7798 40.325 55.931C40.1224 56.0822 40.0211 56.2652 40.0211 56.48H39.1772C39.1772 56.235 39.2634 55.9991 39.4358 55.7722C39.6112 55.5423 39.8472 55.3609 40.1436 55.2278C40.443 55.0947 40.7712 55.0282 41.1281 55.0282C41.6937 55.0282 42.1368 55.1703 42.4574 55.4546C42.778 55.7359 42.9443 56.1246 42.9564 56.6206V58.88C42.9564 59.3307 43.0139 59.6891 43.1288 59.9552V60.0278H42.2487ZM40.8559 59.3881C41.119 59.3881 41.3685 59.3201 41.6044 59.184C41.8404 59.0479 42.0113 58.8709 42.1171 58.6531V57.646H41.4593C40.4309 57.646 39.9167 57.9469 39.9167 58.5488C39.9167 58.8119 40.0044 59.0176 40.1799 59.1658C40.3553 59.314 40.5806 59.3881 40.8559 59.3881ZM46.9716 56.4618C46.9716 56.232 46.8839 56.0505 46.7085 55.9174C46.533 55.7813 46.2926 55.7132 45.9871 55.7132C45.6907 55.7132 45.4427 55.7904 45.243 55.9446C45.0464 56.0989 44.9481 56.2803 44.9481 56.489H44.1134C44.1134 56.0626 44.2918 55.7132 44.6487 55.441C45.0056 55.1688 45.4517 55.0327 45.9871 55.0327C46.5618 55.0327 47.0094 55.1567 47.33 55.4047C47.6506 55.6497 47.8109 56.0006 47.8109 56.4573C47.8109 56.6781 47.7444 56.8807 47.6113 57.0652C47.4782 57.2497 47.2892 57.3964 47.0442 57.5053C47.6158 57.6989 47.9017 58.08 47.9017 58.6486C47.9017 59.0993 47.7278 59.4562 47.3799 59.7193C47.0321 59.9825 46.5678 60.114 45.9871 60.114C45.4215 60.114 44.9542 59.9764 44.5852 59.7012C44.2192 59.4229 44.0362 59.0479 44.0362 58.576H44.871C44.871 58.815 44.9769 59.0206 45.1886 59.193C45.4033 59.3624 45.6695 59.4471 45.9871 59.4471C46.3077 59.4471 46.5663 59.373 46.7629 59.2248C46.9595 59.0766 47.0578 58.8845 47.0578 58.6486C47.0578 58.3734 46.9746 58.1768 46.8083 58.0588C46.6449 57.9378 46.3894 57.8773 46.0415 57.8773H45.2022V57.1696H46.1141C46.6858 57.1545 46.9716 56.9185 46.9716 56.4618ZM52.0212 60.0278C51.9728 59.931 51.9335 59.7586 51.9032 59.5106C51.5131 59.9159 51.0473 60.1186 50.5059 60.1186C50.0219 60.1186 49.6242 59.9825 49.3127 59.7102C49.0041 59.435 48.8499 59.0872 48.8499 58.6668C48.8499 58.1556 49.0435 57.7594 49.4306 57.4781C49.8208 57.1938 50.3682 57.0516 51.073 57.0516H51.8896V56.666C51.8896 56.3726 51.8019 56.1397 51.6265 55.9673C51.451 55.7919 51.1924 55.7042 50.8507 55.7042C50.5512 55.7042 50.3002 55.7798 50.0975 55.931C49.8949 56.0822 49.7936 56.2652 49.7936 56.48H48.9497C48.9497 56.235 49.0359 55.9991 49.2083 55.7722C49.3837 55.5423 49.6196 55.3609 49.9161 55.2278C50.2155 55.0947 50.5437 55.0282 50.9006 55.0282C51.4662 55.0282 51.9093 55.1703 52.2299 55.4546C52.5505 55.7359 52.7168 56.1246 52.7289 56.6206V58.88C52.7289 59.3307 52.7864 59.6891 52.9013 59.9552V60.0278H52.0212ZM50.6284 59.3881C50.8915 59.3881 51.141 59.3201 51.3769 59.184C51.6129 59.0479 51.7838 58.8709 51.8896 58.6531V57.646H51.2318C50.2034 57.646 49.6892 57.9469 49.6892 58.5488C49.6892 58.8119 49.7769 59.0176 49.9524 59.1658C50.1278 59.314 50.3531 59.3881 50.6284 59.3881ZM54.0038 59.3428L54.2942 58.9843C54.6208 58.5609 54.8068 57.9257 54.8522 57.0788L54.9293 55.1189H58.0916V59.3428H58.7222V61.4706H57.8829V60.0278H54.4575V61.4706H53.6182L53.6227 59.3428H54.0038ZM54.9974 59.3428H57.2522V55.8947H55.7414L55.6915 57.0652C55.6401 58.0422 55.4087 58.8014 54.9974 59.3428Z" fill="black"/>
<rect x="15.8769" y="46.3823" width="53.6053" height="20.7274" rx="3.21632" stroke="#D6D6D6" stroke-width="0.714737"/>
<path d="M22.7876 56.3514C22.8144 56.3102 22.8458 56.2712 22.882 56.2351L25.0211 54.0966C25.3004 53.8174 25.753 53.8174 26.0322 54.0966C26.3115 54.3757 26.3115 54.8282 26.0322 55.1073L24.3928 56.7463L26.032 58.385C26.3112 58.6641 26.3112 59.1166 26.032 59.3958C25.7528 59.6749 25.3001 59.6749 25.0209 59.3958L22.8774 57.2528C22.6323 57.0078 22.6023 56.6291 22.7876 56.3514Z" fill="black"/>
</g>
<defs>
<linearGradient id="paint0_linear_0_19535" x1="114.358" y1="0" x2="114.358" y2="5.7179" gradientUnits="userSpaceOnUse">
<stop/>
<stop offset="1" stop-color="white" stop-opacity="0"/>
</linearGradient>
</defs>
</svg>
