<svg width="239" height="499" viewBox="0 0 239 499" fill="none" xmlns="http://www.w3.org/2000/svg">
<path d="M0.625 99.3917C0.625 98.0429 1.64466 96.9496 2.90248 96.9496C4.16029 96.9496 5.17995 98.0429 5.17995 99.3917V159.63C5.17995 160.979 4.16029 162.072 2.90248 162.072C1.64466 162.072 0.625 160.979 0.625 159.63V99.3917Z" fill="#161616"/>
<path d="M0.625 177.538C0.625 176.19 1.64466 175.096 2.90248 175.096C4.16029 175.096 5.17995 176.19 5.17995 177.538V198.703C5.17995 200.052 4.16029 201.145 2.90248 201.145C1.64466 201.145 0.625 200.052 0.625 198.703V177.538Z" fill="#161616"/>
<path d="M234.446 93.6934C234.446 92.3447 235.465 91.2514 236.723 91.2514C237.981 91.2514 239.001 92.3447 239.001 93.6934V114.858C239.001 116.207 237.981 117.3 236.723 117.3C235.465 117.3 234.446 116.207 234.446 114.858V93.6934Z" fill="#161616"/>
<path d="M2.14332 20.3507C2.14332 9.11134 10.6405 0 21.1223 0H218.504C228.985 0 237.482 9.11133 237.482 20.3507V478.649C237.482 489.889 228.985 499 218.504 499H21.1223C10.6405 499 2.14332 489.889 2.14332 478.649V20.3507Z" fill="#161616"/>
<path d="M3.66211 23.5646C3.66211 12.3252 12.1593 3.21387 22.6411 3.21387H216.986C227.467 3.21387 235.965 12.3252 235.965 23.5646V475.435C235.965 486.674 227.467 495.785 216.986 495.785H22.6411C12.1593 495.785 3.66211 486.674 3.66211 475.435V23.5646Z" fill="url(#paint0_linear_0_19168)"/>
<path d="M3.66211 475.435C3.66211 486.674 12.1593 495.785 22.6411 495.785H216.986C227.467 495.785 235.965 486.674 235.965 475.435V23.5646C235.965 12.3252 227.467 3.21387 216.986 3.21387H22.6411C12.1593 3.21387 3.66211 12.3252 3.66211 23.5646V475.435Z" fill="url(#paint1_linear_0_19168)"/>
<mask id="mask0_0_19168" style="mask-type:alpha" maskUnits="userSpaceOnUse" x="5" y="10" width="230" height="470">
<path d="M5.93945 23.6069C5.93945 16.4137 11.3776 10.5824 18.086 10.5824H222.3C229.008 10.5824 234.446 16.4137 234.446 23.6069V466.439C234.446 473.632 229.008 479.463 222.3 479.463H18.086C11.3776 479.463 5.93945 473.632 5.93945 466.439V23.6069Z" fill="#CFCFCF"/>
</mask>
<g mask="url(#mask0_0_19168)">
<path d="M3.66211 23.6068C3.66211 12.3674 12.1593 3.2561 22.6411 3.2561H216.986C227.467 3.2561 235.965 12.3674 235.965 23.6068V475.393C235.965 486.633 227.467 495.744 216.986 495.744H22.6411C12.1593 495.744 3.66211 486.633 3.66211 475.393V23.6068Z" fill="url(#paint2_linear_0_19168)"/>
<rect x="6.18555" y="397.293" width="228.046" height="87.4044" fill="white"/>
<rect width="228.304" height="469.6" transform="translate(5.92578 10.33)" fill="white"/>
<rect x="16.9856" y="105.575" width="181.216" height="24.2573" rx="3.21052" fill="white" stroke="#E5E5E5" stroke-width="0.713449"/>
<path d="M33.165 121.353H32.291V118.305H28.9669V121.353H28.0974V114.759H28.9669V117.594H32.291V114.759H33.165V121.353ZM37.6032 121.353C37.5549 121.256 37.5156 121.084 37.4854 120.837C37.096 121.241 36.631 121.443 36.0906 121.443C35.6075 121.443 35.2105 121.307 34.8995 121.036C34.5916 120.761 34.4376 120.414 34.4376 119.994C34.4376 119.484 34.6308 119.088 35.0173 118.808C35.4068 118.524 35.9532 118.382 36.6567 118.382H37.4719V117.997C37.4719 117.704 37.3843 117.472 37.2092 117.3C37.0341 117.124 36.7759 117.037 36.4348 117.037C36.1359 117.037 35.8853 117.112 35.683 117.263C35.4807 117.414 35.3796 117.597 35.3796 117.811H34.5372C34.5372 117.567 34.6233 117.331 34.7954 117.105C34.9705 116.875 35.206 116.694 35.5019 116.561C35.8008 116.429 36.1283 116.362 36.4846 116.362C37.0492 116.362 37.4915 116.504 37.8115 116.788C38.1315 117.069 38.2976 117.457 38.3097 117.952V120.207C38.3097 120.657 38.367 121.015 38.4818 121.28V121.353H37.6032ZM36.2129 120.714C36.4755 120.714 36.7246 120.646 36.9601 120.51C37.1956 120.375 37.3662 120.198 37.4719 119.981V118.975H36.8152C35.7887 118.975 35.2754 119.276 35.2754 119.876C35.2754 120.139 35.363 120.344 35.5381 120.492C35.7132 120.64 35.9381 120.714 36.2129 120.714ZM42.3176 117.793C42.3176 117.564 42.23 117.383 42.0549 117.25C41.8798 117.114 41.6398 117.046 41.3349 117.046C41.039 117.046 40.7914 117.123 40.5921 117.277C40.3959 117.431 40.2978 117.612 40.2978 117.82H39.4645C39.4645 117.395 39.6426 117.046 39.9989 116.774C40.3551 116.503 40.8005 116.367 41.3349 116.367C41.9085 116.367 42.3553 116.49 42.6754 116.738C42.9954 116.983 43.1554 117.333 43.1554 117.789C43.1554 118.009 43.089 118.211 42.9561 118.396C42.8233 118.58 42.6346 118.726 42.39 118.835C42.9607 119.028 43.246 119.408 43.246 119.976C43.246 120.426 43.0724 120.782 42.7252 121.045C42.378 121.307 41.9145 121.439 41.3349 121.439C40.7703 121.439 40.3038 121.301 39.9355 121.027C39.5702 120.749 39.3875 120.375 39.3875 119.904H40.2208C40.2208 120.142 40.3265 120.347 40.5378 120.519C40.7522 120.689 41.0178 120.773 41.3349 120.773C41.6549 120.773 41.913 120.699 42.1093 120.551C42.3055 120.403 42.4036 120.212 42.4036 119.976C42.4036 119.701 42.3206 119.505 42.1546 119.387C41.9915 119.267 41.7364 119.206 41.3892 119.206H40.5514V118.5H41.4617C42.0323 118.485 42.3176 118.249 42.3176 117.793ZM44.4099 121.353V116.453H46.321C46.9731 116.453 47.4728 116.567 47.82 116.797C48.1702 117.023 48.3453 117.357 48.3453 117.798C48.3453 118.024 48.2774 118.229 48.1415 118.414C48.0057 118.595 47.8049 118.734 47.5392 118.83C47.8351 118.9 48.0721 119.036 48.2502 119.238C48.4314 119.44 48.5219 119.682 48.5219 119.962C48.5219 120.412 48.3559 120.757 48.0238 120.995C47.6947 121.234 47.2282 121.353 46.6244 121.353H44.4099ZM45.2477 119.202V120.678H46.6335C46.9837 120.678 47.2448 120.613 47.4169 120.483C47.592 120.353 47.6796 120.171 47.6796 119.935C47.6796 119.446 47.3203 119.202 46.6018 119.202H45.2477ZM45.2477 118.531H46.33C47.115 118.531 47.5075 118.302 47.5075 117.843C47.5075 117.384 47.1362 117.147 46.3934 117.132H45.2477V118.531ZM52.6567 121.353C52.6084 121.256 52.5691 121.084 52.5389 120.837C52.1495 121.241 51.6845 121.443 51.1441 121.443C50.661 121.443 50.264 121.307 49.953 121.036C49.6451 120.761 49.4911 120.414 49.4911 119.994C49.4911 119.484 49.6843 119.088 50.0708 118.808C50.4602 118.524 51.0067 118.382 51.7102 118.382H52.5253V117.997C52.5253 117.704 52.4378 117.472 52.2627 117.3C52.0876 117.124 51.8294 117.037 51.4883 117.037C51.1894 117.037 50.9388 117.112 50.7365 117.263C50.5342 117.414 50.4331 117.597 50.4331 117.811H49.5907C49.5907 117.567 49.6768 117.331 49.8489 117.105C50.024 116.875 50.2595 116.694 50.5553 116.561C50.8542 116.429 51.1818 116.362 51.5381 116.362C52.1027 116.362 52.545 116.504 52.865 116.788C53.185 117.069 53.3511 117.457 53.3632 117.952V120.207C53.3632 120.657 53.4205 121.015 53.5352 121.28V121.353H52.6567ZM51.2664 120.714C51.529 120.714 51.7781 120.646 52.0136 120.51C52.2491 120.375 52.4197 120.198 52.5253 119.981V118.975H51.8687C50.8422 118.975 50.3289 119.276 50.3289 119.876C50.3289 120.139 50.4165 120.344 50.5916 120.492C50.7667 120.64 50.9916 120.714 51.2664 120.714ZM58.6799 121.353H57.8421V119.261H55.5913V121.353H54.7489V116.453H55.5913V118.577H57.8421V116.453H58.6799V121.353ZM63.1996 116.453H64.0374V121.353H63.1996V117.78L60.9397 121.353H60.1019V116.453H60.9397V120.03L63.1996 116.453ZM67.4158 121.443C66.7516 121.443 66.2112 121.226 65.7945 120.791C65.3779 120.353 65.1695 119.769 65.1695 119.039V118.885C65.1695 118.399 65.2616 117.965 65.4458 117.585C65.633 117.201 65.8926 116.903 66.2247 116.688C66.5599 116.471 66.9222 116.362 67.3116 116.362C67.9487 116.362 68.4438 116.572 68.7971 116.992C69.1503 117.411 69.3269 118.012 69.3269 118.794V119.143H66.0074C66.0194 119.626 66.1598 120.017 66.4285 120.316C66.7003 120.612 67.0444 120.76 67.4611 120.76C67.757 120.76 68.0075 120.699 68.2129 120.578C68.4182 120.458 68.5978 120.298 68.7518 120.098L69.2635 120.497C68.8529 121.128 68.237 121.443 67.4158 121.443ZM67.3116 117.05C66.9735 117.05 66.6897 117.174 66.4602 117.422C66.2308 117.666 66.0889 118.011 66.0345 118.454H68.4891V118.391C68.465 117.965 68.3502 117.636 68.1449 117.404C67.9396 117.168 67.6619 117.05 67.3116 117.05Z" fill="#343434"/>
<path d="M20.7772 93.6994C20.7772 93.3491 20.6489 93.0714 20.3923 92.8661C20.1387 92.6578 19.7809 92.5536 19.319 92.5536C18.9325 92.5536 18.608 92.6608 18.3453 92.8751C18.0856 93.0865 17.9558 93.3491 17.9558 93.6631H17.0863C17.0863 93.3129 17.1814 92.9989 17.3716 92.7212C17.5648 92.4434 17.8335 92.2275 18.1777 92.0736C18.5219 91.9166 18.9023 91.8381 19.319 91.8381C20.0556 91.8381 20.6278 92.0041 21.0354 92.3362C21.4429 92.6653 21.6467 93.1242 21.6467 93.713C21.6467 94.0179 21.5531 94.2956 21.366 94.5462C21.1788 94.7968 20.9176 94.9946 20.5825 95.1395C21.3584 95.3991 21.7464 95.9139 21.7464 96.6838C21.7464 97.2756 21.526 97.745 21.0852 98.0922C20.6444 98.4394 20.0556 98.613 19.319 98.613C18.8812 98.613 18.4827 98.536 18.1234 98.3821C17.7671 98.2251 17.4894 98.0032 17.2901 97.7163C17.0908 97.4295 16.9912 97.0884 16.9912 96.6929H17.8607C17.8607 97.0401 17.9981 97.3299 18.2728 97.5624C18.5476 97.7918 18.8963 97.9066 19.319 97.9066C19.793 97.9066 20.1704 97.7964 20.4512 97.576C20.735 97.3556 20.8769 97.0642 20.8769 96.7019C20.8769 95.929 20.3983 95.535 19.4412 95.5199H18.6261V94.8044H19.4367C19.8775 94.7953 20.2111 94.6957 20.4376 94.5055C20.664 94.3153 20.7772 94.0466 20.7772 93.6994ZM25.795 98.5225C25.7467 98.4258 25.7075 98.2538 25.6773 98.0062C25.2878 98.4108 24.8229 98.613 24.2825 98.613C23.7994 98.613 23.4024 98.4772 23.0914 98.2055C22.7834 97.9307 22.6295 97.5835 22.6295 97.1638C22.6295 96.6536 22.8227 96.2581 23.2091 95.9773C23.5986 95.6935 24.1451 95.5516 24.8485 95.5516H25.6637V95.1667C25.6637 94.8738 25.5762 94.6413 25.4011 94.4693C25.2259 94.2941 24.9678 94.2066 24.6266 94.2066C24.3277 94.2066 24.0772 94.2821 23.8749 94.433C23.6726 94.584 23.5714 94.7666 23.5714 94.981H22.7291C22.7291 94.7364 22.8151 94.501 22.9872 94.2745C23.1623 94.0451 23.3978 93.8639 23.6937 93.7311C23.9926 93.5982 24.3202 93.5318 24.6765 93.5318C25.241 93.5318 25.6833 93.6737 26.0034 93.9575C26.3234 94.2383 26.4895 94.6262 26.5015 95.1214V97.3767C26.5015 97.8265 26.5589 98.1843 26.6736 98.45V98.5225H25.795ZM24.4047 97.8839C24.6674 97.8839 24.9165 97.816 25.152 97.6801C25.3875 97.5443 25.558 97.3676 25.6637 97.1503V96.1449H25.0071C23.9805 96.1449 23.4673 96.4453 23.4673 97.0461C23.4673 97.3088 23.5548 97.5141 23.7299 97.662C23.9051 97.8099 24.13 97.8839 24.4047 97.8839ZM30.9804 94.3153H28.7206V98.5225H27.8783V93.6224H30.9804V94.3153ZM31.3971 96.0271C31.3971 95.5471 31.4907 95.1153 31.6779 94.7319C31.8681 94.3485 32.1307 94.0526 32.4659 93.8443C32.804 93.636 33.189 93.5318 33.6207 93.5318C34.2879 93.5318 34.8268 93.7628 35.2374 94.2247C35.6511 94.6866 35.8579 95.301 35.8579 96.0679V96.1268C35.8579 96.6038 35.7658 97.0325 35.5816 97.4129C35.4005 97.7903 35.1393 98.0847 34.7982 98.296C34.46 98.5074 34.0705 98.613 33.6297 98.613C32.9655 98.613 32.4266 98.3821 32.013 97.9201C31.6024 97.4582 31.3971 96.8468 31.3971 96.086V96.0271ZM32.2394 96.1268C32.2394 96.6702 32.3647 97.1065 32.6153 97.4356C32.8689 97.7647 33.2071 97.9292 33.6297 97.9292C34.0554 97.9292 34.3936 97.7631 34.6442 97.431C34.8948 97.0959 35.0201 96.6279 35.0201 96.0271C35.0201 95.4897 34.8918 95.055 34.6351 94.7229C34.3815 94.3877 34.0434 94.2202 33.6207 94.2202C33.2071 94.2202 32.8734 94.3847 32.6198 94.7138C32.3662 95.0429 32.2394 95.5139 32.2394 96.1268ZM40.8531 93.6224V98.5225H40.0107V94.3153H38.3442L38.2445 96.1494C38.1902 96.9918 38.0483 97.5941 37.8188 97.9564C37.5924 98.3187 37.2316 98.5074 36.7365 98.5225H36.4013V97.7843L36.6414 97.7662C36.9131 97.736 37.1078 97.579 37.2256 97.2952C37.3433 97.0114 37.4188 96.486 37.452 95.7192L37.5426 93.6224H40.8531ZM41.9762 96.0271C41.9762 95.5471 42.0698 95.1153 42.257 94.7319C42.4472 94.3485 42.7098 94.0526 43.045 93.8443C43.3831 93.636 43.7681 93.5318 44.1998 93.5318C44.867 93.5318 45.4059 93.7628 45.8166 94.2247C46.2302 94.6866 46.437 95.301 46.437 96.0679V96.1268C46.437 96.6038 46.3449 97.0325 46.1607 97.4129C45.9796 97.7903 45.7184 98.0847 45.3773 98.296C45.0391 98.5074 44.6496 98.613 44.2089 98.613C43.5446 98.613 43.0057 98.3821 42.5921 97.9201C42.1815 97.4582 41.9762 96.8468 41.9762 96.086V96.0271ZM42.8185 96.1268C42.8185 96.6702 42.9438 97.1065 43.1944 97.4356C43.448 97.7647 43.7862 97.9292 44.2089 97.9292C44.6346 97.9292 44.9727 97.7631 45.2233 97.431C45.4739 97.0959 45.5992 96.6279 45.5992 96.0271C45.5992 95.4897 45.4709 95.055 45.2142 94.7229C44.9606 94.3877 44.6225 94.2202 44.1998 94.2202C43.7862 94.2202 43.4526 94.3847 43.1989 94.7138C42.9453 95.0429 42.8185 95.5139 42.8185 96.1268ZM47.5646 98.5225V93.6224H49.4758C50.1279 93.6224 50.6276 93.7371 50.9748 93.9666C51.325 94.193 51.5001 94.5266 51.5001 94.9674C51.5001 95.1938 51.4322 95.3991 51.2963 95.5833C51.1604 95.7645 50.9597 95.9033 50.694 96C50.9899 96.0694 51.2269 96.2053 51.405 96.4075C51.5861 96.6098 51.6767 96.8514 51.6767 97.1321C51.6767 97.582 51.5107 97.9262 51.1786 98.1647C50.8495 98.4032 50.383 98.5225 49.7792 98.5225H47.5646ZM48.4025 96.3713V97.8477H49.7882C50.1385 97.8477 50.3996 97.7828 50.5717 97.6529C50.7468 97.5231 50.8344 97.3405 50.8344 97.105C50.8344 96.6159 50.4751 96.3713 49.7565 96.3713H48.4025ZM48.4025 95.7011H49.4848C50.2698 95.7011 50.6623 95.4716 50.6623 95.0127C50.6623 94.5538 50.2909 94.3168 49.5482 94.3017H48.4025V95.7011ZM52.5644 96.0271C52.5644 95.5471 52.6579 95.1153 52.8451 94.7319C53.0353 94.3485 53.298 94.0526 53.6331 93.8443C53.9713 93.636 54.3562 93.5318 54.788 93.5318C55.4552 93.5318 55.9941 93.7628 56.4047 94.2247C56.8183 94.6866 57.0252 95.301 57.0252 96.0679V96.1268C57.0252 96.6038 56.9331 97.0325 56.7489 97.4129C56.5677 97.7903 56.3066 98.0847 55.9654 98.296C55.6273 98.5074 55.2378 98.613 54.797 98.613C54.1328 98.613 53.5939 98.3821 53.1803 97.9201C52.7697 97.4582 52.5644 96.8468 52.5644 96.086V96.0271ZM53.4067 96.1268C53.4067 96.6702 53.532 97.1065 53.7826 97.4356C54.0362 97.7647 54.3743 97.9292 54.797 97.9292C55.2227 97.9292 55.5609 97.7631 55.8115 97.431C56.062 97.0959 56.1873 96.6279 56.1873 96.0271C56.1873 95.4897 56.059 95.055 55.8024 94.7229C55.5488 94.3877 55.2106 94.2202 54.788 94.2202C54.3743 94.2202 54.0407 94.3847 53.7871 94.7138C53.5335 95.0429 53.4067 95.5139 53.4067 96.1268ZM59.602 96.4347H58.9906V98.5225H58.1483V93.6224H58.9906V95.6965H59.5386L61.1871 93.6224H62.2015L60.2632 95.9773L62.3645 98.5225H61.3003L59.602 96.4347Z" fill="#9E9E9E"/>
<rect x="16.9856" y="156.943" width="181.216" height="24.2573" rx="3.21052" fill="white" stroke="#E5E5E5" stroke-width="0.713449"/>
<path d="M180.924 167.492C180.653 167.764 180.653 168.205 180.924 168.477L183.742 171.306C183.758 171.327 183.776 171.346 183.795 171.365C184.009 171.58 184.328 171.625 184.586 171.5C184.656 171.467 184.721 171.421 184.779 171.363C184.79 171.352 184.801 171.34 184.812 171.329L187.652 168.477C187.923 168.205 187.923 167.764 187.652 167.492C187.381 167.221 186.943 167.221 186.672 167.492L184.288 169.886L181.904 167.492C181.633 167.221 181.194 167.221 180.924 167.492Z" fill="#343434"/>
<path d="M33.1333 172.721H32.2593V166.843H29.0077V172.721H28.1381V166.127H33.1333V172.721ZM34.3651 170.226C34.3651 169.746 34.4587 169.314 34.6459 168.931C34.8361 168.547 35.0988 168.251 35.4339 168.043C35.7721 167.835 36.157 167.731 36.5887 167.731C37.256 167.731 37.7949 167.961 38.2055 168.423C38.6191 168.885 38.8259 169.5 38.8259 170.267V170.325C38.8259 170.803 38.7339 171.231 38.5497 171.612C38.3685 171.989 38.1074 172.283 37.7662 172.495C37.4281 172.706 37.0386 172.812 36.5978 172.812C35.9336 172.812 35.3947 172.581 34.9811 172.119C34.5704 171.657 34.3651 171.046 34.3651 170.285V170.226ZM35.2075 170.325C35.2075 170.869 35.3328 171.305 35.5834 171.634C35.837 171.963 36.1751 172.128 36.5978 172.128C37.0235 172.128 37.3617 171.962 37.6122 171.63C37.8628 171.295 37.9881 170.827 37.9881 170.226C37.9881 169.688 37.8598 169.254 37.6032 168.922C37.3496 168.586 37.0114 168.419 36.5887 168.419C36.1751 168.419 35.8415 168.583 35.5879 168.913C35.3343 169.242 35.2075 169.713 35.2075 170.325ZM46.1942 167.821V172.721H45.3518V168.514H43.6853L43.5856 170.348C43.5313 171.19 43.3894 171.793 43.1599 172.155C42.9335 172.517 42.5727 172.706 42.0776 172.721H41.7424V171.983L41.9825 171.965C42.2542 171.935 42.4489 171.778 42.5667 171.494C42.6844 171.21 42.7599 170.685 42.7931 169.918L42.8837 167.821H46.1942ZM49.5726 172.812C48.9084 172.812 48.368 172.594 47.9513 172.16C47.5347 171.722 47.3264 171.138 47.3264 170.407V170.253C47.3264 169.767 47.4184 169.334 47.6026 168.953C47.7898 168.57 48.0494 168.271 48.3816 168.057C48.7167 167.839 49.079 167.731 49.4684 167.731C50.1055 167.731 50.6006 167.94 50.9539 168.36C51.3071 168.78 51.4837 169.381 51.4837 170.162V170.511H48.1642C48.1763 170.994 48.3166 171.385 48.5853 171.684C48.8571 171.98 49.2013 172.128 49.6179 172.128C49.9138 172.128 50.1644 172.068 50.3697 171.947C50.575 171.826 50.7546 171.666 50.9086 171.467L51.4203 171.865C51.0097 172.496 50.3938 172.812 49.5726 172.812ZM49.4684 168.419C49.1303 168.419 48.8465 168.543 48.617 168.79C48.3876 169.035 48.2457 169.379 48.1913 169.823H50.6459V169.759C50.6218 169.334 50.507 169.005 50.3017 168.772C50.0964 168.537 49.8187 168.419 49.4684 168.419ZM52.5344 172.721V167.821H54.4455C55.0977 167.821 55.5973 167.936 55.9445 168.165C56.2948 168.392 56.4699 168.725 56.4699 169.166C56.4699 169.393 56.4019 169.598 56.2661 169.782C56.1302 169.963 55.9294 170.102 55.6637 170.199C55.9596 170.268 56.1966 170.404 56.3748 170.606C56.5559 170.809 56.6465 171.05 56.6465 171.331C56.6465 171.781 56.4804 172.125 56.1483 172.363C55.8192 172.602 55.3528 172.721 54.7489 172.721H52.5344ZM53.3722 170.57V172.046H54.758C55.1082 172.046 55.3694 171.981 55.5415 171.852C55.7166 171.722 55.8041 171.539 55.8041 171.304C55.8041 170.815 55.4449 170.57 54.7263 170.57H53.3722ZM53.3722 169.9H54.4546C55.2396 169.9 55.632 169.67 55.632 169.211C55.632 168.753 55.2607 168.516 54.518 168.5H53.3722V169.9ZM57.5341 170.226C57.5341 169.746 57.6277 169.314 57.8149 168.931C58.0051 168.547 58.2678 168.251 58.6029 168.043C58.941 167.835 59.326 167.731 59.7577 167.731C60.4249 167.731 60.9639 167.961 61.3745 168.423C61.7881 168.885 61.9949 169.5 61.9949 170.267V170.325C61.9949 170.803 61.9028 171.231 61.7187 171.612C61.5375 171.989 61.2763 172.283 60.9352 172.495C60.597 172.706 60.2076 172.812 59.7668 172.812C59.1026 172.812 58.5636 172.581 58.15 172.119C57.7394 171.657 57.5341 171.046 57.5341 170.285V170.226ZM58.3765 170.325C58.3765 170.869 58.5017 171.305 58.7523 171.634C59.0059 171.963 59.3441 172.128 59.7668 172.128C60.1925 172.128 60.5306 171.962 60.7812 171.63C61.0318 171.295 61.1571 170.827 61.1571 170.226C61.1571 169.688 61.0288 169.254 60.7722 168.922C60.5185 168.586 60.1804 168.419 59.7577 168.419C59.3441 168.419 59.0105 168.583 58.7569 168.913C58.5033 169.242 58.3765 169.713 58.3765 170.325ZM65.867 171.612L67.5335 167.821H68.5797V172.721H67.7419V169.157L66.1568 172.721H65.5771L63.9604 169.08V172.721H63.1226V167.821H64.2095L65.867 171.612ZM71.5324 171.494L72.6736 167.821H73.5703L71.6003 173.477C71.2954 174.293 70.8108 174.7 70.1466 174.7L69.9881 174.687L69.6756 174.628V173.948L69.9021 173.967C70.1859 173.967 70.4063 173.909 70.5633 173.794C70.7233 173.68 70.8546 173.47 70.9573 173.165L71.1429 172.667L69.3948 167.821H70.3097L71.5324 171.494ZM78.1489 170.633H77.5375V172.721H76.6952V167.821H77.5375V169.895H78.0855L79.7339 167.821H80.7484L78.8101 170.176L80.9114 172.721H79.8471L78.1489 170.633ZM85.7707 170.325C85.7707 171.071 85.6001 171.672 85.259 172.128C84.9178 172.584 84.4559 172.812 83.8732 172.812C83.2784 172.812 82.8104 172.623 82.4693 172.246V174.605H81.6315V167.821H82.3968L82.4376 168.365C82.7787 167.942 83.2528 167.731 83.8596 167.731C84.4483 167.731 84.9133 167.952 85.2545 168.396C85.5986 168.84 85.7707 169.457 85.7707 170.249V170.325ZM84.9329 170.23C84.9329 169.678 84.8152 169.242 84.5797 168.922C84.3442 168.602 84.0211 168.442 83.6105 168.442C83.1033 168.442 82.7229 168.666 82.4693 169.116V171.458C82.7199 171.905 83.1033 172.128 83.6196 172.128C84.0211 172.128 84.3396 171.969 84.5751 171.652C84.8137 171.332 84.9329 170.858 84.9329 170.23ZM89.8647 172.721C89.8164 172.625 89.7771 172.452 89.7469 172.205C89.3575 172.609 88.8925 172.812 88.3521 172.812C87.869 172.812 87.472 172.676 87.161 172.404C86.8531 172.129 86.6991 171.782 86.6991 171.363C86.6991 170.852 86.8923 170.457 87.2788 170.176C87.6683 169.892 88.2147 169.75 88.9182 169.75H89.7334V169.365C89.7334 169.073 89.6458 168.84 89.4707 168.668C89.2956 168.493 89.0374 168.405 88.6963 168.405C88.3974 168.405 88.1468 168.481 87.9445 168.632C87.7422 168.783 87.6411 168.965 87.6411 169.18H86.7987C86.7987 168.935 86.8848 168.7 87.0569 168.473C87.232 168.244 87.4675 168.063 87.7634 167.93C88.0623 167.797 88.3898 167.731 88.7461 167.731C89.3107 167.731 89.753 167.872 90.073 168.156C90.393 168.437 90.5591 168.825 90.5712 169.32V171.575C90.5712 172.025 90.6285 172.383 90.7433 172.649V172.721H89.8647ZM88.4744 172.083C88.737 172.083 88.9861 172.015 89.2216 171.879C89.4571 171.743 89.6277 171.566 89.7334 171.349V170.344H89.0767C88.0502 170.344 87.5369 170.644 87.5369 171.245C87.5369 171.507 87.6245 171.713 87.7996 171.861C87.9747 172.009 88.1996 172.083 88.4744 172.083ZM92.7993 169.9H93.9768C94.0402 169.248 94.2711 168.724 94.6697 168.328C95.0712 167.93 95.5769 167.731 96.1868 167.731C96.8269 167.731 97.3507 167.946 97.7583 168.378C98.1659 168.81 98.3862 169.371 98.4195 170.063L98.424 170.325C98.424 170.803 98.3304 171.233 98.1432 171.616C97.956 172 97.6934 172.295 97.3552 172.504C97.0171 172.709 96.6306 172.812 96.1959 172.812C95.5649 172.812 95.0486 172.606 94.647 172.196C94.2455 171.782 94.0206 171.246 93.9722 170.588H92.7993V172.721H91.9615V167.821H92.7993V169.9ZM94.801 170.325C94.801 170.869 94.9263 171.305 95.1769 171.634C95.4305 171.963 95.7702 172.128 96.1959 172.128C96.6216 172.128 96.9582 171.96 97.2058 171.625C97.4563 171.29 97.5816 170.824 97.5816 170.226C97.5816 169.691 97.4548 169.257 97.2012 168.922C96.9476 168.586 96.6095 168.419 96.1868 168.419C95.7702 168.419 95.435 168.583 95.1814 168.913C94.9278 169.242 94.801 169.713 94.801 170.325Z" fill="#343434"/>
<path d="M17.3943 149.891V143.297H19.5499C20.2655 143.297 20.8029 143.445 21.1622 143.741C21.5245 144.037 21.7056 144.475 21.7056 145.054C21.7056 145.362 21.6181 145.635 21.4429 145.874C21.2678 146.109 21.0293 146.292 20.7274 146.422C21.0837 146.521 21.3644 146.712 21.5697 146.992C21.7781 147.27 21.8822 147.602 21.8822 147.989C21.8822 148.581 21.6905 149.046 21.3071 149.384C20.9236 149.722 20.3817 149.891 19.6813 149.891H17.3943ZM18.2638 146.807V149.18H19.6994C20.1039 149.18 20.4225 149.076 20.6549 148.867C20.8904 148.656 21.0082 148.366 21.0082 147.998C21.0082 147.204 20.5764 146.807 19.713 146.807H18.2638ZM18.2638 146.109H19.5771C19.9575 146.109 20.2609 146.014 20.4874 145.824C20.7168 145.634 20.8316 145.376 20.8316 145.05C20.8316 144.687 20.7259 144.425 20.5146 144.262C20.3032 144.096 19.9817 144.013 19.5499 144.013H18.2638V146.109ZM23.9564 146.68H25.229C25.7845 146.686 26.2238 146.831 26.5468 147.115C26.8699 147.399 27.0314 147.784 27.0314 148.27C27.0314 148.759 26.8653 149.151 26.5332 149.447C26.2011 149.743 25.7543 149.891 25.1927 149.891H23.1186V144.991H23.9564V146.68ZM28.7795 149.891H27.9371V144.991H28.7795V149.891ZM23.9564 147.364V149.207H25.2018C25.5158 149.207 25.7588 149.127 25.9309 148.967C26.103 148.804 26.189 148.582 26.189 148.301C26.189 148.03 26.1045 147.808 25.9354 147.636C25.7694 147.46 25.5354 147.37 25.2335 147.364H23.9564ZM34.3815 147.495C34.3815 148.241 34.2109 148.842 33.8698 149.298C33.5286 149.753 33.0667 149.981 32.484 149.981C31.8892 149.981 31.4212 149.793 31.0801 149.415V151.775H30.2423V144.991H31.0076L31.0484 145.534C31.3895 145.112 31.8635 144.9 32.4704 144.9C33.0591 144.9 33.5241 145.122 33.8652 145.566C34.2094 146.01 34.3815 146.627 34.3815 147.418V147.495ZM33.5437 147.4C33.5437 146.848 33.426 146.411 33.1905 146.091C32.955 145.771 32.6319 145.611 32.2213 145.611C31.7141 145.611 31.3337 145.836 31.0801 146.286V148.627C31.3307 149.074 31.7141 149.298 32.2304 149.298C32.6319 149.298 32.9504 149.139 33.1859 148.822C33.4244 148.502 33.5437 148.028 33.5437 147.4ZM38.4755 149.891C38.4272 149.794 38.3879 149.622 38.3577 149.375C37.9683 149.779 37.5033 149.981 36.9629 149.981C36.4798 149.981 36.0828 149.846 35.7718 149.574C35.4639 149.299 35.3099 148.952 35.3099 148.532C35.3099 148.022 35.5031 147.627 35.8896 147.346C36.2791 147.062 36.8255 146.92 37.529 146.92H38.3442V146.535C38.3442 146.242 38.2566 146.01 38.0815 145.838C37.9064 145.663 37.6482 145.575 37.3071 145.575C37.0082 145.575 36.7576 145.65 36.5553 145.801C36.353 145.952 36.2519 146.135 36.2519 146.349H35.4095C35.4095 146.105 35.4956 145.869 35.6677 145.643C35.8428 145.413 36.0783 145.232 36.3742 145.099C36.6731 144.967 37.0006 144.9 37.3569 144.9C37.9215 144.9 38.3638 145.042 38.6838 145.326C39.0038 145.607 39.1699 145.995 39.182 146.49V148.745C39.182 149.195 39.2393 149.553 39.3541 149.818V149.891H38.4755ZM37.0852 149.252C37.3478 149.252 37.5969 149.184 37.8324 149.049C38.0679 148.913 38.2385 148.736 38.3442 148.519V147.513H37.6875C36.661 147.513 36.1477 147.814 36.1477 148.415C36.1477 148.677 36.2353 148.882 36.4104 149.03C36.5855 149.178 36.8104 149.252 37.0852 149.252ZM40.5723 149.891V144.991H42.4834C43.1355 144.991 43.6352 145.106 43.9824 145.335C44.3326 145.561 44.5077 145.895 44.5077 146.336C44.5077 146.562 44.4398 146.768 44.304 146.952C44.1681 147.133 43.9673 147.272 43.7016 147.368C43.9975 147.438 44.2345 147.574 44.4126 147.776C44.5938 147.978 44.6844 148.22 44.6844 148.501C44.6844 148.95 44.5183 149.295 44.1862 149.533C43.8571 149.772 43.3907 149.891 42.7868 149.891H40.5723ZM41.4101 147.74V149.216H42.7959C43.1461 149.216 43.4073 149.151 43.5794 149.021C43.7545 148.892 43.842 148.709 43.842 148.473C43.842 147.984 43.4827 147.74 42.7642 147.74H41.4101ZM41.4101 147.069H42.4925C43.2774 147.069 43.6699 146.84 43.6699 146.381C43.6699 145.922 43.2986 145.685 42.5559 145.67H41.4101V147.069ZM49.7973 149.891H48.9595V147.799H46.7087V149.891H45.8664V144.991H46.7087V147.115H48.9595V144.991H49.7973V149.891ZM54.317 144.991H55.1548V149.891H54.317V146.318L52.0571 149.891H51.2193V144.991H52.0571V148.568L54.317 144.991ZM56.5768 149.891V144.991H58.4879C59.1401 144.991 59.6397 145.106 59.9869 145.335C60.3372 145.561 60.5123 145.895 60.5123 146.336C60.5123 146.562 60.4443 146.768 60.3085 146.952C60.1726 147.133 59.9718 147.272 59.7062 147.368C60.002 147.438 60.239 147.574 60.4172 147.776C60.5983 147.978 60.6889 148.22 60.6889 148.501C60.6889 148.95 60.5228 149.295 60.1907 149.533C59.8616 149.772 59.3952 149.891 58.7914 149.891H56.5768ZM57.4146 147.74V149.216H58.8004C59.1506 149.216 59.4118 149.151 59.5839 149.021C59.759 148.892 59.8465 148.709 59.8465 148.473C59.8465 147.984 59.4873 147.74 58.7687 147.74H57.4146ZM57.4146 147.069H58.497C59.282 147.069 59.6745 146.84 59.6745 146.381C59.6745 145.922 59.3031 145.685 58.5604 145.67H57.4146V147.069ZM64.8236 149.891C64.7753 149.794 64.7361 149.622 64.7059 149.375C64.3164 149.779 63.8515 149.981 63.311 149.981C62.828 149.981 62.4309 149.846 62.12 149.574C61.812 149.299 61.658 148.952 61.658 148.532C61.658 148.022 61.8513 147.627 62.2377 147.346C62.6272 147.062 63.1737 146.92 63.8771 146.92H64.6923V146.535C64.6923 146.242 64.6047 146.01 64.4296 145.838C64.2545 145.663 63.9964 145.575 63.6552 145.575C63.3563 145.575 63.1057 145.65 62.9034 145.801C62.7012 145.952 62.6 146.135 62.6 146.349H61.7577C61.7577 146.105 61.8437 145.869 62.0158 145.643C62.1909 145.413 62.4264 145.232 62.7223 145.099C63.0212 144.967 63.3488 144.9 63.705 144.9C64.2696 144.9 64.7119 145.042 65.0319 145.326C65.352 145.607 65.518 145.995 65.5301 146.49V148.745C65.5301 149.195 65.5875 149.553 65.7022 149.818V149.891H64.8236ZM63.4333 149.252C63.696 149.252 63.945 149.184 64.1805 149.049C64.416 148.913 64.5866 148.736 64.6923 148.519V147.513H64.0356C63.0091 147.513 62.4959 147.814 62.4959 148.415C62.4959 148.677 62.5834 148.882 62.7585 149.03C62.9336 149.178 63.1586 149.252 63.4333 149.252ZM70.8468 149.891H70.009V147.799H67.7582V149.891H66.9159V144.991H67.7582V147.115H70.009V144.991H70.8468V149.891ZM75.3665 144.991H76.2043V149.891H75.3665V146.318L73.1067 149.891H72.2688V144.991H73.1067V148.568L75.3665 144.991ZM79.5827 149.981C78.9185 149.981 78.3781 149.764 77.9615 149.329C77.5448 148.892 77.3365 148.307 77.3365 147.577V147.423C77.3365 146.937 77.4286 146.503 77.6127 146.123C77.7999 145.74 78.0596 145.441 78.3917 145.226C78.7268 145.009 79.0891 144.9 79.4786 144.9C80.1156 144.9 80.6108 145.11 80.964 145.53C81.3172 145.949 81.4939 146.55 81.4939 147.332V147.681H78.1743C78.1864 148.164 78.3268 148.555 78.5955 148.854C78.8672 149.15 79.2114 149.298 79.628 149.298C79.9239 149.298 80.1745 149.237 80.3798 149.116C80.5851 148.996 80.7647 148.836 80.9187 148.636L81.4305 149.035C81.0199 149.666 80.404 149.981 79.5827 149.981ZM79.4786 145.589C79.1404 145.589 78.8566 145.712 78.6272 145.96C78.3977 146.204 78.2558 146.549 78.2015 146.992H80.656V146.929C80.6319 146.503 80.5172 146.174 80.3119 145.942C80.1066 145.706 79.8288 145.589 79.4786 145.589ZM88.4092 145.67H86.7653V149.891H85.9275V145.67H84.3153V144.991H88.4092V145.67ZM90.8955 149.981C90.2313 149.981 89.6909 149.764 89.2742 149.329C88.8576 148.892 88.6493 148.307 88.6493 147.577V147.423C88.6493 146.937 88.7413 146.503 88.9255 146.123C89.1127 145.74 89.3723 145.441 89.7044 145.226C90.0396 145.009 90.4019 144.9 90.7913 144.9C91.4284 144.9 91.9235 145.11 92.2768 145.53C92.63 145.949 92.8066 146.55 92.8066 147.332V147.681H89.4871C89.4991 148.164 89.6395 148.555 89.9082 148.854C90.18 149.15 90.5241 149.298 90.9408 149.298C91.2367 149.298 91.4873 149.237 91.6926 149.116C91.8979 148.996 92.0775 148.836 92.2315 148.636L92.7432 149.035C92.3326 149.666 91.7167 149.981 90.8955 149.981ZM90.7913 145.589C90.4532 145.589 90.1694 145.712 89.9399 145.96C89.7105 146.204 89.5686 146.549 89.5142 146.992H91.9688V146.929C91.9447 146.503 91.8299 146.174 91.6246 145.942C91.4193 145.706 91.1416 145.589 90.7913 145.589ZM95.3065 147.803H94.6951V149.891H93.8528V144.991H94.6951V147.065H95.2431L96.8915 144.991H97.906L95.9677 147.346L98.069 149.891H97.0048L95.3065 147.803ZM100.682 149.298C100.981 149.298 101.242 149.207 101.466 149.026C101.689 148.845 101.813 148.618 101.837 148.347H102.629C102.614 148.627 102.518 148.895 102.34 149.148C102.161 149.402 101.923 149.604 101.624 149.755C101.328 149.906 101.014 149.981 100.682 149.981C100.015 149.981 99.4835 149.76 99.088 149.316C98.6955 148.869 98.4992 148.259 98.4992 147.486V147.346C98.4992 146.869 98.5868 146.445 98.7619 146.073C98.937 145.702 99.1876 145.413 99.5137 145.208C99.8428 145.003 100.231 144.9 100.678 144.9C101.227 144.9 101.683 145.065 102.045 145.394C102.411 145.723 102.605 146.15 102.629 146.675H101.837C101.813 146.358 101.692 146.099 101.475 145.897C101.26 145.691 100.995 145.589 100.678 145.589C100.252 145.589 99.9213 145.743 99.6858 146.051C99.4533 146.355 99.337 146.798 99.337 147.377V147.536C99.337 148.101 99.4533 148.535 99.6858 148.84C99.9182 149.145 100.25 149.298 100.682 149.298ZM107.213 145.67H105.569V149.891H104.731V145.67H103.119V144.991H107.213V145.67ZM110.98 149.891C110.932 149.794 110.893 149.622 110.863 149.375C110.473 149.779 110.008 149.981 109.468 149.981C108.985 149.981 108.588 149.846 108.277 149.574C107.969 149.299 107.815 148.952 107.815 148.532C107.815 148.022 108.008 147.627 108.395 147.346C108.784 147.062 109.33 146.92 110.034 146.92H110.849V146.535C110.849 146.242 110.762 146.01 110.586 145.838C110.411 145.663 110.153 145.575 109.812 145.575C109.513 145.575 109.263 145.65 109.06 145.801C108.858 145.952 108.757 146.135 108.757 146.349H107.914C107.914 146.105 108.001 145.869 108.173 145.643C108.348 145.413 108.583 145.232 108.879 145.099C109.178 144.967 109.506 144.9 109.862 144.9C110.426 144.9 110.869 145.042 111.189 145.326C111.509 145.607 111.675 145.995 111.687 146.49V148.745C111.687 149.195 111.744 149.553 111.859 149.818V149.891H110.98ZM109.59 149.252C109.853 149.252 110.102 149.184 110.337 149.049C110.573 148.913 110.743 148.736 110.849 148.519V147.513H110.192C109.166 147.513 108.653 147.814 108.653 148.415C108.653 148.677 108.74 148.882 108.915 149.03C109.09 149.178 109.315 149.252 109.59 149.252Z" fill="#9E9E9E"/>
<rect x="16.9856" y="208.311" width="181.216" height="24.2573" rx="3.21052" fill="white" stroke="#E5E5E5" stroke-width="0.713449"/>
<path d="M32.3046 222.934L33.2465 219.189H34.0844L32.6578 224.089H31.9785L30.7874 220.376L29.6281 224.089H28.9488L27.5268 219.189H28.3601L29.3247 222.857L30.4659 219.189H31.1407L32.3046 222.934ZM39.2788 222.934L40.2208 219.189H41.0586L39.6321 224.089H38.9527L37.7617 220.376L36.6023 224.089H35.923L34.501 219.189H35.3343L36.2989 222.857L37.4401 219.189H38.1149L39.2788 222.934ZM46.2531 222.934L47.195 219.189H48.0328L46.6063 224.089H45.927L44.7359 220.376L43.5766 224.089H42.8973L41.4752 219.189H42.3085L43.2731 222.857L44.4144 219.189H45.0892L46.2531 222.934ZM48.3453 223.65C48.3453 223.505 48.3876 223.384 48.4721 223.288C48.5597 223.191 48.6895 223.143 48.8616 223.143C49.0337 223.143 49.1635 223.191 49.2511 223.288C49.3416 223.384 49.3869 223.505 49.3869 223.65C49.3869 223.789 49.3416 223.905 49.2511 223.999C49.1635 224.092 49.0337 224.139 48.8616 224.139C48.6895 224.139 48.5597 224.092 48.4721 223.999C48.3876 223.905 48.3453 223.789 48.3453 223.65ZM50.5508 221.594C50.5508 221.114 50.6444 220.682 50.8316 220.299C51.0218 219.915 51.2845 219.619 51.6196 219.411C51.9577 219.203 52.3427 219.098 52.7744 219.098C53.4417 219.098 53.9806 219.329 54.3912 219.791C54.8048 220.253 55.0116 220.868 55.0116 221.635V221.693C55.0116 222.17 54.9195 222.599 54.7354 222.98C54.5542 223.357 54.2931 223.651 53.9519 223.863C53.6137 224.074 53.2243 224.18 52.7835 224.18C52.1193 224.18 51.5803 223.949 51.1667 223.487C50.7561 223.025 50.5508 222.413 50.5508 221.653V221.594ZM51.3932 221.693C51.3932 222.237 51.5185 222.673 51.769 223.002C52.0227 223.331 52.3608 223.496 52.7835 223.496C53.2092 223.496 53.5473 223.33 53.7979 222.998C54.0485 222.663 54.1738 222.195 54.1738 221.594C54.1738 221.056 54.0455 220.622 53.7889 220.29C53.5352 219.954 53.1971 219.787 52.7744 219.787C52.3608 219.787 52.0272 219.951 51.7736 220.28C51.52 220.61 51.3932 221.081 51.3932 221.693ZM60.2106 221.693C60.2106 222.442 60.0385 223.044 59.6943 223.5C59.3501 223.953 58.8882 224.18 58.3085 224.18C57.6896 224.18 57.2111 223.961 56.8729 223.523L56.8322 224.089H56.0623V217.133H56.9001V219.728C57.2382 219.308 57.7047 219.098 58.2995 219.098C58.8942 219.098 59.3607 219.323 59.6988 219.773C60.04 220.223 60.2106 220.839 60.2106 221.621V221.693ZM59.3728 221.598C59.3728 221.028 59.2626 220.587 59.0422 220.276C58.8218 219.965 58.5048 219.809 58.0911 219.809C57.5386 219.809 57.1416 220.066 56.9001 220.579V222.699C57.1567 223.212 57.5568 223.469 58.1002 223.469C58.5017 223.469 58.8142 223.313 59.0376 223.002C59.2611 222.691 59.3728 222.223 59.3728 221.598ZM62.8327 222.952L64.0464 219.189H64.9023L63.1452 224.089H62.5067L60.7314 219.189H61.5873L62.8327 222.952ZM66.6187 224.089H65.7809V219.189H66.6187V224.089ZM65.713 217.889C65.713 217.753 65.7537 217.639 65.8353 217.545C65.9198 217.452 66.0436 217.405 66.2066 217.405C66.3697 217.405 66.4934 217.452 66.578 217.545C66.6625 217.639 66.7048 217.753 66.7048 217.889C66.7048 218.025 66.6625 218.138 66.578 218.229C66.4934 218.32 66.3697 218.365 66.2066 218.365C66.0436 218.365 65.9198 218.32 65.8353 218.229C65.7537 218.138 65.713 218.025 65.713 217.889ZM67.9819 223.65C67.9819 223.505 68.0242 223.384 68.1087 223.288C68.1962 223.191 68.3261 223.143 68.4982 223.143C68.6702 223.143 68.8001 223.191 68.8876 223.288C68.9782 223.384 69.0235 223.505 69.0235 223.65C69.0235 223.789 68.9782 223.905 68.8876 223.999C68.8001 224.092 68.6702 224.139 68.4982 224.139C68.3261 224.139 68.1962 224.092 68.1087 223.999C68.0242 223.905 67.9819 223.789 67.9819 223.65ZM72.3748 223.496C72.6736 223.496 72.9348 223.405 73.1582 223.224C73.3816 223.043 73.5054 222.817 73.5296 222.545H74.3221C74.307 222.826 74.2104 223.093 74.0323 223.346C73.8541 223.6 73.6156 223.802 73.3167 223.953C73.0208 224.104 72.7069 224.18 72.3748 224.18C71.7075 224.18 71.1761 223.958 70.7806 223.514C70.3881 223.067 70.1919 222.457 70.1919 221.684V221.544C70.1919 221.067 70.2795 220.643 70.4546 220.271C70.6297 219.9 70.8803 219.612 71.2063 219.406C71.5354 219.201 71.9234 219.098 72.3702 219.098C72.9197 219.098 73.3756 219.263 73.7379 219.592C74.1032 219.921 74.2979 220.348 74.3221 220.874H73.5296C73.5054 220.557 73.3847 220.297 73.1673 220.095C72.9529 219.889 72.6872 219.787 72.3702 219.787C71.9445 219.787 71.6139 219.941 71.3784 220.249C71.146 220.554 71.0297 220.996 71.0297 221.576V221.734C71.0297 222.299 71.146 222.734 71.3784 223.038C71.6109 223.343 71.943 223.496 72.3748 223.496ZM76.1744 224.089H75.3365V217.133H76.1744V224.089ZM80.5446 223.605C80.2185 223.988 79.74 224.18 79.109 224.18C78.5867 224.18 78.1881 224.029 77.9134 223.727C77.6417 223.422 77.5043 222.972 77.5013 222.377V219.189H78.3391V222.355C78.3391 223.097 78.641 223.469 79.2448 223.469C79.8849 223.469 80.3106 223.23 80.5219 222.753V219.189H81.3597V224.089H80.5627L80.5446 223.605ZM86.7852 221.693C86.7852 222.442 86.6131 223.044 86.2689 223.5C85.9247 223.953 85.4628 224.18 84.8831 224.18C84.2642 224.18 83.7856 223.961 83.4475 223.523L83.4067 224.089H82.6368V217.133H83.4747V219.728C83.8128 219.308 84.2793 219.098 84.874 219.098C85.4688 219.098 85.9353 219.323 86.2734 219.773C86.6146 220.223 86.7852 220.839 86.7852 221.621V221.693ZM85.9473 221.598C85.9473 221.028 85.8371 220.587 85.6167 220.276C85.3963 219.965 85.0793 219.809 84.6657 219.809C84.1132 219.809 83.7162 220.066 83.4747 220.579V222.699C83.7313 223.212 84.1313 223.469 84.6748 223.469C85.0763 223.469 85.3888 223.313 85.6122 223.002C85.8356 222.691 85.9473 222.223 85.9473 221.598ZM88.0124 224.655H87.2924L90.0458 217.495H90.7614L88.0124 224.655ZM95.8154 221.693C95.8154 222.442 95.6433 223.044 95.2992 223.5C94.955 223.953 94.4931 224.18 93.9134 224.18C93.2944 224.18 92.8159 223.961 92.4778 223.523L92.437 224.089H91.6671V217.133H92.5049V219.728C92.8431 219.308 93.3095 219.098 93.9043 219.098C94.4991 219.098 94.9655 219.323 95.3037 219.773C95.6449 220.223 95.8154 220.839 95.8154 221.621V221.693ZM94.9776 221.598C94.9776 221.028 94.8674 220.587 94.647 220.276C94.4266 219.965 94.1096 219.809 93.696 219.809C93.1435 219.809 92.7465 220.066 92.5049 220.579V222.699C92.7616 223.212 93.1616 223.469 93.7051 223.469C94.1066 223.469 94.4191 223.313 94.6425 223.002C94.8659 222.691 94.9776 222.223 94.9776 221.598ZM96.6533 221.594C96.6533 221.114 96.7469 220.682 96.934 220.299C97.1242 219.915 97.3869 219.619 97.722 219.411C98.0602 219.203 98.4451 219.098 98.8769 219.098C99.5441 219.098 100.083 219.329 100.494 219.791C100.907 220.253 101.114 220.868 101.114 221.635V221.693C101.114 222.17 101.022 222.599 100.838 222.98C100.657 223.357 100.395 223.651 100.054 223.863C99.7162 224.074 99.3267 224.18 98.8859 224.18C98.2217 224.18 97.6828 223.949 97.2692 223.487C96.8586 223.025 96.6533 222.413 96.6533 221.653V221.594ZM97.4956 221.693C97.4956 222.237 97.6209 222.673 97.8715 223.002C98.1251 223.331 98.4632 223.496 98.8859 223.496C99.3116 223.496 99.6498 223.33 99.9004 222.998C100.151 222.663 100.276 222.195 100.276 221.594C100.276 221.056 100.148 220.622 99.8913 220.29C99.6377 219.954 99.2995 219.787 98.8769 219.787C98.4632 219.787 98.1296 219.951 97.876 220.28C97.6224 220.61 97.4956 221.081 97.4956 221.693ZM104.533 219.941C104.406 219.92 104.269 219.909 104.121 219.909C103.572 219.909 103.199 220.143 103.003 220.611V224.089H102.165V219.189H102.98L102.993 219.755C103.268 219.317 103.658 219.098 104.162 219.098C104.325 219.098 104.449 219.12 104.533 219.162V219.941ZM106.218 224.089H105.38V219.189H106.218V224.089ZM105.312 217.889C105.312 217.753 105.353 217.639 105.434 217.545C105.519 217.452 105.643 217.405 105.806 217.405C105.969 217.405 106.093 217.452 106.177 217.545C106.262 217.639 106.304 217.753 106.304 217.889C106.304 218.025 106.262 218.138 106.177 218.229C106.093 218.32 105.969 218.365 105.806 218.365C105.643 218.365 105.519 218.32 105.434 218.229C105.353 218.138 105.312 218.025 105.312 217.889ZM110.416 222.789C110.416 222.563 110.33 222.388 110.158 222.264C109.989 222.137 109.691 222.029 109.266 221.938C108.843 221.847 108.506 221.739 108.256 221.612C108.008 221.485 107.824 221.334 107.703 221.159C107.586 220.984 107.527 220.776 107.527 220.534C107.527 220.133 107.696 219.793 108.034 219.515C108.375 219.237 108.81 219.098 109.338 219.098C109.894 219.098 110.344 219.242 110.688 219.529C111.035 219.816 111.209 220.182 111.209 220.629H110.366C110.366 220.4 110.268 220.202 110.072 220.036C109.879 219.87 109.634 219.787 109.338 219.787C109.033 219.787 108.795 219.853 108.623 219.986C108.451 220.119 108.365 220.293 108.365 220.507C108.365 220.709 108.445 220.862 108.605 220.964C108.765 221.067 109.053 221.165 109.47 221.259C109.889 221.352 110.229 221.464 110.489 221.594C110.748 221.724 110.94 221.881 111.064 222.065C111.19 222.246 111.254 222.468 111.254 222.73C111.254 223.168 111.079 223.52 110.729 223.786C110.378 224.048 109.924 224.18 109.365 224.18C108.973 224.18 108.626 224.11 108.324 223.971C108.022 223.832 107.785 223.639 107.613 223.392C107.444 223.141 107.359 222.871 107.359 222.581H108.197C108.212 222.862 108.324 223.085 108.532 223.251C108.743 223.414 109.021 223.496 109.365 223.496C109.682 223.496 109.936 223.432 110.126 223.306C110.319 223.176 110.416 223.004 110.416 222.789ZM114.379 224.18C113.714 224.18 113.174 223.962 112.757 223.528C112.341 223.09 112.132 222.506 112.132 221.775V221.621C112.132 221.135 112.225 220.702 112.409 220.321C112.596 219.938 112.856 219.639 113.188 219.425C113.523 219.207 113.885 219.098 114.275 219.098C114.912 219.098 115.407 219.308 115.76 219.728C116.113 220.148 116.29 220.748 116.29 221.53V221.879H112.97C112.982 222.362 113.123 222.753 113.391 223.052C113.663 223.348 114.007 223.496 114.424 223.496C114.72 223.496 114.97 223.435 115.176 223.315C115.381 223.194 115.561 223.034 115.715 222.835L116.226 223.233C115.816 223.864 115.2 224.18 114.379 224.18ZM114.275 219.787C113.936 219.787 113.653 219.911 113.423 220.158C113.194 220.403 113.052 220.747 112.997 221.191H115.452V221.127C115.428 220.702 115.313 220.373 115.108 220.14C114.903 219.905 114.625 219.787 114.275 219.787ZM118.817 222.952L120.031 219.189H120.886L119.129 224.089H118.491L116.716 219.189H117.571L118.817 222.952ZM122.603 224.089H121.765V219.189H122.603V224.089ZM121.697 217.889C121.697 217.753 121.738 217.639 121.819 217.545C121.904 217.452 122.028 217.405 122.191 217.405C122.354 217.405 122.478 217.452 122.562 217.545C122.647 217.639 122.689 217.753 122.689 217.889C122.689 218.025 122.647 218.138 122.562 218.229C122.478 218.32 122.354 218.365 122.191 218.365C122.028 218.365 121.904 218.32 121.819 218.229C121.738 218.138 121.697 218.025 121.697 217.889ZM125.913 223.496C126.212 223.496 126.473 223.405 126.697 223.224C126.92 223.043 127.044 222.817 127.068 222.545H127.861C127.846 222.826 127.749 223.093 127.571 223.346C127.393 223.6 127.154 223.802 126.855 223.953C126.559 224.104 126.245 224.18 125.913 224.18C125.246 224.18 124.715 223.958 124.319 223.514C123.927 223.067 123.731 222.457 123.731 221.684V221.544C123.731 221.067 123.818 220.643 123.993 220.271C124.168 219.9 124.419 219.612 124.745 219.406C125.074 219.201 125.462 219.098 125.909 219.098C126.458 219.098 126.914 219.263 127.277 219.592C127.642 219.921 127.837 220.348 127.861 220.874H127.068C127.044 220.557 126.923 220.297 126.706 220.095C126.492 219.889 126.226 219.787 125.909 219.787C125.483 219.787 125.153 219.941 124.917 220.249C124.685 220.554 124.568 220.996 124.568 221.576V221.734C124.568 222.299 124.685 222.734 124.917 223.038C125.15 223.343 125.482 223.496 125.913 223.496ZM129.64 219.782C130.012 219.326 130.495 219.098 131.09 219.098C132.125 219.098 132.648 219.683 132.657 220.851V224.089H131.819V220.847C131.816 220.493 131.734 220.232 131.574 220.063C131.417 219.894 131.171 219.809 130.836 219.809C130.564 219.809 130.326 219.882 130.121 220.027C129.915 220.172 129.755 220.362 129.64 220.597V224.089H128.803V217.133H129.64V219.782ZM138.05 221.693C138.05 222.439 137.88 223.04 137.539 223.496C137.197 223.952 136.736 224.18 136.153 224.18C135.558 224.18 135.09 223.991 134.749 223.614V225.973H133.911V219.189H134.676L134.717 219.732C135.058 219.31 135.532 219.098 136.139 219.098C136.728 219.098 137.193 219.32 137.534 219.764C137.878 220.208 138.05 220.825 138.05 221.616V221.693ZM137.213 221.598C137.213 221.046 137.095 220.61 136.859 220.29C136.624 219.969 136.301 219.809 135.89 219.809C135.383 219.809 135.003 220.034 134.749 220.484V222.826C134.999 223.272 135.383 223.496 135.899 223.496C136.301 223.496 136.619 223.337 136.855 223.02C137.093 222.7 137.213 222.226 137.213 221.598ZM142.144 224.089C142.096 223.992 142.057 223.82 142.027 223.573C141.637 223.977 141.172 224.18 140.632 224.18C140.149 224.18 139.752 224.044 139.441 223.772C139.133 223.497 138.979 223.15 138.979 222.73C138.979 222.22 139.172 221.825 139.558 221.544C139.948 221.26 140.494 221.118 141.198 221.118H142.013V220.733C142.013 220.44 141.925 220.208 141.75 220.036C141.575 219.861 141.317 219.773 140.976 219.773C140.677 219.773 140.426 219.849 140.224 220C140.022 220.151 139.921 220.333 139.921 220.548H139.078C139.078 220.303 139.164 220.068 139.337 219.841C139.512 219.612 139.747 219.431 140.043 219.298C140.342 219.165 140.669 219.098 141.026 219.098C141.59 219.098 142.033 219.24 142.353 219.524C142.673 219.805 142.839 220.193 142.851 220.688V222.943C142.851 223.393 142.908 223.751 143.023 224.017V224.089H142.144ZM140.754 223.451C141.017 223.451 141.266 223.383 141.501 223.247C141.737 223.111 141.907 222.934 142.013 222.717V221.712H141.356C140.33 221.712 139.817 222.012 139.817 222.613C139.817 222.875 139.904 223.081 140.079 223.229C140.254 223.377 140.479 223.451 140.754 223.451ZM145.708 222.952L146.922 219.189H147.778L146.021 224.089H145.382L143.607 219.189H144.463L145.708 222.952ZM150.554 224.18C149.89 224.18 149.35 223.962 148.933 223.528C148.516 223.09 148.308 222.506 148.308 221.775V221.621C148.308 221.135 148.4 220.702 148.584 220.321C148.771 219.938 149.031 219.639 149.363 219.425C149.698 219.207 150.061 219.098 150.45 219.098C151.087 219.098 151.582 219.308 151.935 219.728C152.289 220.148 152.465 220.748 152.465 221.53V221.879H149.146C149.158 222.362 149.298 222.753 149.567 223.052C149.839 223.348 150.183 223.496 150.599 223.496C150.895 223.496 151.146 223.435 151.351 223.315C151.557 223.194 151.736 223.034 151.89 222.835L152.402 223.233C151.991 223.864 151.375 224.18 150.554 224.18ZM150.45 219.787C150.112 219.787 149.828 219.911 149.599 220.158C149.369 220.403 149.227 220.747 149.173 221.191H151.627V221.127C151.603 220.702 151.489 220.373 151.283 220.14C151.078 219.905 150.8 219.787 150.45 219.787ZM154.349 224.089H153.511V217.133H154.349V224.089Z" fill="#343434"/>
<path d="M21.9502 195.381H19.8307V201.259H18.9657V195.381H16.8508V194.665H21.9502V195.381ZM24.3776 201.349C23.7133 201.349 23.1729 201.132 22.7563 200.697C22.3396 200.259 22.1313 199.675 22.1313 198.945V198.791C22.1313 198.305 22.2234 197.871 22.4076 197.491C22.5947 197.107 22.8544 196.809 23.1865 196.594C23.5216 196.377 23.8839 196.268 24.2734 196.268C24.9104 196.268 25.4056 196.478 25.7588 196.898C26.1121 197.317 26.2887 197.918 26.2887 198.7V199.049H22.9691C22.9812 199.532 23.1216 199.923 23.3903 200.222C23.662 200.518 24.0062 200.666 24.4228 200.666C24.7187 200.666 24.9693 200.605 25.1746 200.484C25.3799 200.364 25.5596 200.204 25.7135 200.004L26.2253 200.403C25.8147 201.034 25.1988 201.349 24.3776 201.349ZM24.2734 196.956C23.9353 196.956 23.6515 197.08 23.422 197.328C23.1925 197.572 23.0506 197.917 22.9963 198.36H25.4509V198.297C25.4267 197.871 25.312 197.542 25.1067 197.31C24.9014 197.074 24.6236 196.956 24.2734 196.956ZM28.7885 199.171H28.1772V201.259H27.3348V196.359H28.1772V198.433H28.7251L30.3736 196.359H31.388L29.4497 198.714L31.5511 201.259H30.4868L28.7885 199.171ZM34.1641 200.666C34.463 200.666 34.7242 200.575 34.9476 200.394C35.171 200.213 35.2948 199.986 35.319 199.714H36.1115C36.0964 199.995 35.9998 200.262 35.8217 200.516C35.6435 200.77 35.405 200.972 35.1061 201.123C34.8102 201.274 34.4962 201.349 34.1641 201.349C33.4969 201.349 32.9655 201.127 32.57 200.684C32.1775 200.237 31.9813 199.627 31.9813 198.854V198.714C31.9813 198.237 32.0688 197.812 32.244 197.441C32.4191 197.07 32.6697 196.781 32.9957 196.576C33.3248 196.371 33.7128 196.268 34.1596 196.268C34.7091 196.268 35.165 196.433 35.5273 196.762C35.8926 197.091 36.0873 197.518 36.1115 198.043H35.319C35.2948 197.726 35.174 197.467 34.9567 197.264C34.7423 197.059 34.4766 196.956 34.1596 196.956C33.7339 196.956 33.4033 197.11 33.1678 197.418C32.9353 197.723 32.8191 198.166 32.8191 198.745V198.904C32.8191 199.468 32.9353 199.903 33.1678 200.208C33.4003 200.513 33.7324 200.666 34.1641 200.666ZM40.6946 197.038H39.0506V201.259H38.2128V197.038H36.6006V196.359H40.6946V197.038ZM44.4625 201.259C44.4142 201.162 44.3749 200.99 44.3447 200.743C43.9552 201.147 43.4903 201.349 42.9499 201.349C42.4668 201.349 42.0698 201.214 41.7588 200.942C41.4509 200.667 41.2969 200.32 41.2969 199.9C41.2969 199.39 41.4901 198.994 41.8766 198.714C42.266 198.43 42.8125 198.288 43.516 198.288H44.3311V197.903C44.3311 197.61 44.2436 197.378 44.0685 197.206C43.8934 197.03 43.6352 196.943 43.2941 196.943C42.9952 196.943 42.7446 197.018 42.5423 197.169C42.34 197.32 42.2389 197.503 42.2389 197.717H41.3965C41.3965 197.473 41.4826 197.237 41.6547 197.011C41.8298 196.781 42.0653 196.6 42.3611 196.467C42.66 196.335 42.9876 196.268 43.3439 196.268C43.9084 196.268 44.3508 196.41 44.6708 196.694C44.9908 196.975 45.1569 197.363 45.1689 197.858V200.113C45.1689 200.563 45.2263 200.921 45.341 201.186V201.259H44.4625ZM43.0721 200.62C43.3348 200.62 43.5839 200.552 43.8194 200.416C44.0549 200.281 44.2255 200.104 44.3311 199.887V198.881H43.6745C42.648 198.881 42.1347 199.182 42.1347 199.782C42.1347 200.045 42.2223 200.25 42.3974 200.398C42.5725 200.546 42.7974 200.62 43.0721 200.62Z" fill="#9E9E9E"/>
<rect x="5.92578" y="74.5399" width="228.304" height="0.713449" fill="#EFEFEF"/>
<path d="M86.9872 55.0395H84.9312V60.7095H83.7945V55.0395H81.7565V54.1156H86.9872V55.0395ZM89.5007 60.8C88.8032 60.8 88.2371 60.5812 87.8024 60.1434C87.3706 59.7026 87.1548 59.1169 87.1548 58.3862V58.2504C87.1548 57.7613 87.2484 57.325 87.4356 56.9416C87.6258 56.5551 87.8914 56.2547 88.2326 56.0404C88.5738 55.826 88.9542 55.7188 89.3738 55.7188C90.0411 55.7188 90.5558 55.9317 90.9181 56.3574C91.2835 56.7831 91.4661 57.3854 91.4661 58.1643V58.6081H88.2643C88.2975 59.0127 88.4319 59.3327 88.6674 59.5682C88.9059 59.8037 89.2048 59.9215 89.5641 59.9215C90.0683 59.9215 90.4789 59.7177 90.7959 59.3101L91.3891 59.8762C91.1929 60.169 90.9302 60.397 90.6011 60.56C90.2751 60.72 89.9082 60.8 89.5007 60.8ZM89.3693 56.6019C89.0674 56.6019 88.8229 56.7076 88.6357 56.9189C88.4515 57.1303 88.3337 57.4246 88.2824 57.802H90.3792V57.7205C90.3551 57.3522 90.2569 57.0744 90.0849 56.8872C89.9128 56.697 89.6743 56.6019 89.3693 56.6019ZM94.0656 58.7712H93.5086V60.7095H92.4081V55.8094H93.5086V57.7658H93.9931L95.3472 55.8094H96.7059L94.9351 58.1553L96.8553 60.7095H95.4242L94.0656 58.7712ZM99.4004 59.9215C99.6752 59.9215 99.9031 59.8415 100.084 59.6815C100.265 59.5214 100.362 59.3237 100.374 59.0882H101.411C101.399 59.3931 101.304 59.6784 101.126 59.9441C100.948 60.2068 100.706 60.4151 100.401 60.5691C100.096 60.7231 99.7673 60.8 99.414 60.8C98.7287 60.8 98.1852 60.5781 97.7837 60.1343C97.3821 59.6905 97.1814 59.0776 97.1814 58.2957V58.1824C97.1814 57.4367 97.3806 56.8404 97.7792 56.3936C98.1777 55.9437 98.7211 55.7188 99.4095 55.7188C99.9922 55.7188 100.466 55.8894 100.832 56.2306C101.2 56.5687 101.393 57.014 101.411 57.5665H100.374C100.362 57.2858 100.265 57.0548 100.084 56.8736C99.9062 56.6925 99.6782 56.6019 99.4004 56.6019C99.0442 56.6019 98.7694 56.7317 98.5762 56.9914C98.383 57.248 98.2849 57.639 98.2819 58.1643V58.3409C98.2819 58.8723 98.377 59.2693 98.5672 59.532C98.7604 59.7917 99.0381 59.9215 99.4004 59.9215ZM106.098 56.6834H104.509V60.7095H103.408V56.6834H101.837V55.8094H106.098V56.6834ZM106.492 58.2141C106.492 57.7341 106.588 57.3024 106.778 56.9189C106.968 56.5325 107.235 56.2366 107.579 56.0313C107.924 55.823 108.319 55.7188 108.766 55.7188C109.427 55.7188 109.963 55.9317 110.374 56.3574C110.787 56.7831 111.011 57.3476 111.044 58.0511L111.048 58.3092C111.048 58.7923 110.955 59.2241 110.768 59.6045C110.583 59.9849 110.318 60.2792 109.97 60.4876C109.626 60.6959 109.228 60.8 108.775 60.8C108.084 60.8 107.53 60.5706 107.113 60.1117C106.699 59.6498 106.492 59.0354 106.492 58.2685V58.2141ZM107.593 58.3092C107.593 58.8134 107.697 59.209 107.905 59.4958C108.114 59.7796 108.404 59.9215 108.775 59.9215C109.146 59.9215 109.435 59.7766 109.64 59.4867C109.848 59.1969 109.952 58.7727 109.952 58.2141C109.952 57.719 109.845 57.3265 109.631 57.0367C109.42 56.7468 109.131 56.6019 108.766 56.6019C108.407 56.6019 108.121 56.7453 107.91 57.0321C107.699 57.3159 107.593 57.7416 107.593 58.3092ZM112.063 60.7095V55.8094H114.051C114.721 55.8094 115.231 55.9271 115.582 56.1626C115.932 56.3951 116.107 56.7302 116.107 57.168C116.107 57.3944 116.036 57.5982 115.894 57.7794C115.755 57.9575 115.548 58.0949 115.274 58.1915C115.594 58.2579 115.847 58.3923 116.034 58.5946C116.222 58.7968 116.315 59.0354 116.315 59.3101C116.315 59.766 116.146 60.1132 115.808 60.3517C115.473 60.5902 114.99 60.7095 114.359 60.7095H112.063ZM113.163 58.6217V59.84H114.368C114.932 59.84 115.215 59.6377 115.215 59.2331C115.215 58.8255 114.928 58.6217 114.354 58.6217H113.163ZM113.163 57.8337H114.069C114.694 57.8337 115.006 57.6496 115.006 57.2812C115.006 56.8948 114.711 56.6955 114.119 56.6834H113.163V57.8337ZM118.453 57.3673H119.531C119.932 57.3673 120.282 57.4367 120.581 57.5756C120.88 57.7145 121.107 57.9092 121.261 58.1598C121.418 58.4104 121.496 58.7017 121.496 59.0338C121.496 59.538 121.318 59.9426 120.962 60.2475C120.605 60.5525 120.131 60.7065 119.54 60.7095H117.352V55.8094H118.453V57.3673ZM123.412 60.7095H122.311V55.8094H123.412V60.7095ZM118.453 58.2504V59.8309H119.526C119.795 59.8309 120.006 59.7645 120.16 59.6316C120.317 59.4958 120.396 59.3041 120.396 59.0565C120.396 58.8089 120.319 58.6142 120.165 58.4723C120.014 58.3274 119.808 58.2534 119.549 58.2504H118.453ZM127.791 55.8094H128.887V60.7095H127.791V57.4397L125.871 60.7095H124.775V55.8094H125.871V59.0791L127.791 55.8094ZM128.307 53.93C128.307 54.3104 128.174 54.6183 127.909 54.8538C127.643 55.0893 127.288 55.2071 126.845 55.2071C126.401 55.2071 126.046 55.0893 125.78 54.8538C125.515 54.6183 125.382 54.3104 125.382 53.93H126.206C126.206 54.1292 126.262 54.2847 126.374 54.3964C126.488 54.5051 126.645 54.5595 126.845 54.5595C127.044 54.5595 127.199 54.5051 127.311 54.3964C127.423 54.2847 127.479 54.1292 127.479 53.93H128.307ZM134.675 56.0811C135.291 56.0811 135.784 56.2879 136.156 56.7015C136.527 57.1122 136.713 57.6707 136.713 58.3772V58.4315C136.713 59.138 136.51 59.7101 136.106 60.1479C135.704 60.5857 135.158 60.8046 134.466 60.8046C133.793 60.8046 133.25 60.5812 132.836 60.1343C132.422 59.6875 132.216 59.0776 132.216 58.3047V57.9877C132.216 56.931 132.403 56.0947 132.777 55.4788C133.152 54.8629 133.71 54.4779 134.453 54.324C134.869 54.2394 135.138 54.1504 135.259 54.0568C135.383 53.9602 135.445 53.8303 135.445 53.6673H136.332C136.332 53.9722 136.282 54.2198 136.183 54.41C136.083 54.6002 135.931 54.7557 135.725 54.8765C135.52 54.9942 135.167 55.1059 134.666 55.2116C134.207 55.3082 133.857 55.4803 133.615 55.7279C133.376 55.9754 133.216 56.3181 133.135 56.7559C133.573 56.306 134.086 56.0811 134.675 56.0811ZM134.457 56.9642C134.101 56.9642 133.822 57.085 133.62 57.3265C133.417 57.565 133.316 57.9334 133.316 58.4315C133.316 58.9025 133.416 59.2693 133.615 59.532C133.814 59.7947 134.098 59.926 134.466 59.926C134.832 59.926 135.114 59.7947 135.313 59.532C135.516 59.2663 135.617 58.8678 135.617 58.3364C135.617 57.9137 135.516 57.5801 135.313 57.3356C135.114 57.088 134.829 56.9642 134.457 56.9642ZM141.74 55.8094V60.7095H140.639V56.697H139.253L139.163 58.4044C139.105 59.2256 138.947 59.8158 138.687 60.1751C138.431 60.5313 138.037 60.7095 137.505 60.7095H137.166L137.161 59.7947L137.387 59.772C137.629 59.7388 137.804 59.5924 137.913 59.3327C138.024 59.0701 138.095 58.593 138.126 57.9017L138.216 55.8094H141.74ZM142.704 58.2141C142.704 57.7341 142.799 57.3024 142.989 56.9189C143.18 56.5325 143.447 56.2366 143.791 56.0313C144.135 55.823 144.531 55.7188 144.978 55.7188C145.639 55.7188 146.175 55.9317 146.585 56.3574C146.999 56.7831 147.222 57.3476 147.256 58.0511L147.26 58.3092C147.26 58.7923 147.166 59.2241 146.979 59.6045C146.795 59.9849 146.529 60.2792 146.182 60.4876C145.838 60.6959 145.439 60.8 144.987 60.8C144.295 60.8 143.741 60.5706 143.325 60.1117C142.911 59.6498 142.704 59.0354 142.704 58.2685V58.2141ZM143.805 58.3092C143.805 58.8134 143.909 59.209 144.117 59.4958C144.325 59.7796 144.615 59.9215 144.987 59.9215C145.358 59.9215 145.646 59.7766 145.852 59.4867C146.06 59.1969 146.164 58.7727 146.164 58.2141C146.164 57.719 146.057 57.3265 145.843 57.0367C145.631 56.7468 145.343 56.6019 144.978 56.6019C144.618 56.6019 144.333 56.7453 144.122 57.0321C143.91 57.3159 143.805 57.7416 143.805 58.3092ZM149.932 58.7712H149.375V60.7095H148.274V55.8094H149.375V57.7658H149.86L151.214 55.8094H152.572L150.801 58.1553L152.722 60.7095H151.291L149.932 58.7712Z" fill="black"/>
<rect x="16.6289" y="247.195" width="206.9" height="107.017" fill="#F8F8F8"/>
<rect x="64.7845" y="288.218" width="111.298" height="24.2573" rx="3.21052" stroke="#D6D6D6" stroke-width="0.713449"/>
<path d="M105.374 305.612H104.509V303.996H99.7763V305.617H98.9067L98.9022 303.285H99.4411C99.7249 302.965 99.9499 302.536 100.116 301.998C100.285 301.458 100.391 300.866 100.433 300.223L100.578 297.402H104.522V303.285H105.383L105.374 305.612ZM100.433 303.285H103.648V298.117H101.416L101.321 300.056C101.281 300.813 101.18 301.46 101.017 301.994C100.857 302.528 100.662 302.959 100.433 303.285ZM106.062 301.5C106.062 301.02 106.156 300.588 106.343 300.205C106.533 299.822 106.796 299.526 107.131 299.317C107.469 299.109 107.854 299.005 108.286 299.005C108.953 299.005 109.492 299.236 109.902 299.698C110.316 300.16 110.523 300.774 110.523 301.541V301.6C110.523 302.077 110.431 302.506 110.247 302.886C110.066 303.263 109.804 303.558 109.463 303.769C109.125 303.981 108.736 304.086 108.295 304.086C107.631 304.086 107.092 303.855 106.678 303.393C106.267 302.931 106.062 302.32 106.062 301.559V301.5ZM106.904 301.6C106.904 302.143 107.03 302.58 107.28 302.909C107.534 303.238 107.872 303.402 108.295 303.402C108.72 303.402 109.059 303.236 109.309 302.904C109.56 302.569 109.685 302.101 109.685 301.5C109.685 300.963 109.557 300.528 109.3 300.196C109.047 299.861 108.708 299.693 108.286 299.693C107.872 299.693 107.538 299.858 107.285 300.187C107.031 300.516 106.904 300.987 106.904 301.6ZM113.725 299.376C114.341 299.376 114.833 299.583 115.201 299.997C115.572 300.407 115.758 300.949 115.758 301.623V301.7C115.758 302.161 115.669 302.575 115.491 302.94C115.313 303.303 115.056 303.585 114.721 303.787C114.389 303.987 114.006 304.086 113.571 304.086C112.913 304.086 112.383 303.867 111.981 303.43C111.58 302.989 111.379 302.398 111.379 301.659V301.251C111.379 300.222 111.569 299.403 111.949 298.797C112.333 298.19 112.897 297.82 113.643 297.687C114.066 297.612 114.351 297.52 114.499 297.411C114.647 297.302 114.721 297.153 114.721 296.962H115.409C115.409 297.34 115.323 297.634 115.151 297.846C114.982 298.057 114.71 298.206 114.336 298.294L113.711 298.434C113.213 298.552 112.839 298.751 112.588 299.032C112.34 299.31 112.179 299.681 112.103 300.146C112.547 299.633 113.088 299.376 113.725 299.376ZM113.562 300.065C113.151 300.065 112.825 300.204 112.584 300.481C112.342 300.756 112.221 301.138 112.221 301.627V301.7C112.221 302.225 112.342 302.642 112.584 302.949C112.828 303.254 113.157 303.407 113.571 303.407C113.987 303.407 114.316 303.253 114.558 302.945C114.8 302.637 114.92 302.187 114.92 301.595C114.92 301.133 114.798 300.764 114.553 300.486C114.312 300.205 113.981 300.065 113.562 300.065ZM119.725 303.996C119.677 303.899 119.638 303.727 119.608 303.479C119.218 303.884 118.753 304.086 118.213 304.086C117.73 304.086 117.333 303.95 117.022 303.679C116.714 303.404 116.56 303.057 116.56 302.637C116.56 302.127 116.753 301.731 117.139 301.45C117.529 301.167 118.075 301.025 118.779 301.025H119.594V300.64C119.594 300.347 119.506 300.114 119.331 299.942C119.156 299.767 118.898 299.68 118.557 299.68C118.258 299.68 118.007 299.755 117.805 299.906C117.603 300.057 117.502 300.24 117.502 300.454H116.659C116.659 300.21 116.745 299.974 116.917 299.748C117.093 299.518 117.328 299.337 117.624 299.204C117.923 299.071 118.25 299.005 118.607 299.005C119.171 299.005 119.614 299.147 119.934 299.431C120.254 299.711 120.42 300.099 120.432 300.595V302.85C120.432 303.3 120.489 303.657 120.604 303.923V303.996H119.725ZM118.335 303.357C118.598 303.357 118.847 303.289 119.082 303.153C119.318 303.017 119.488 302.841 119.594 302.623V301.618H118.937C117.911 301.618 117.398 301.918 117.398 302.519C117.398 302.782 117.485 302.987 117.66 303.135C117.835 303.283 118.06 303.357 118.335 303.357ZM121.822 303.996V299.096H123.733C124.385 299.096 124.885 299.21 125.232 299.44C125.582 299.666 125.758 300 125.758 300.441C125.758 300.667 125.69 300.872 125.554 301.056C125.418 301.238 125.217 301.376 124.951 301.473C125.247 301.543 125.484 301.678 125.662 301.881C125.844 302.083 125.934 302.325 125.934 302.605C125.934 303.055 125.768 303.399 125.436 303.638C125.107 303.876 124.64 303.996 124.037 303.996H121.822ZM122.66 301.844V303.321H124.046C124.396 303.321 124.657 303.256 124.829 303.126C125.004 302.996 125.092 302.814 125.092 302.578C125.092 302.089 124.733 301.844 124.014 301.844H122.66ZM122.66 301.174H123.742C124.527 301.174 124.92 300.945 124.92 300.486C124.92 300.027 124.548 299.79 123.806 299.775H122.66V301.174ZM130.214 299.096H131.052V303.996H130.214V300.422L127.954 303.996H127.116V299.096H127.954V302.673L130.214 299.096ZM136.038 299.775H134.394V303.996H133.556V299.775H131.944V299.096H136.038V299.775ZM137.768 300.785H139.04C139.596 300.791 140.035 300.936 140.358 301.219C140.681 301.503 140.843 301.888 140.843 302.374C140.843 302.863 140.677 303.256 140.345 303.552C140.012 303.848 139.566 303.996 139.004 303.996H136.93V299.096H137.768V300.785ZM137.768 301.469V303.312H139.013C139.327 303.312 139.57 303.232 139.742 303.072C139.914 302.909 140 302.687 140 302.406C140 302.134 139.916 301.912 139.747 301.74C139.581 301.565 139.347 301.475 139.045 301.469H137.768ZM144.008 301.636C144.008 300.818 144.167 300.175 144.484 299.707C144.801 299.239 145.236 299.005 145.788 299.005C146.045 299.005 146.27 299.049 146.463 299.136V297.039H147.301V299.163C147.512 299.058 147.76 299.005 148.043 299.005C148.599 299.005 149.035 299.239 149.352 299.707C149.669 300.175 149.828 300.85 149.828 301.731C149.828 302.453 149.669 303.026 149.352 303.452C149.038 303.878 148.605 304.091 148.052 304.091C147.76 304.091 147.509 304.042 147.301 303.946V305.88H146.463V303.959C146.264 304.047 146.036 304.091 145.779 304.091C145.23 304.091 144.796 303.878 144.479 303.452C144.165 303.026 144.008 302.444 144.008 301.704V301.636ZM148.99 301.636C148.99 301.02 148.884 300.543 148.673 300.205C148.462 299.864 148.17 299.693 147.799 299.693C147.609 299.693 147.443 299.724 147.301 299.784V303.33C147.437 303.381 147.606 303.407 147.808 303.407C148.182 303.407 148.472 303.262 148.677 302.972C148.886 302.682 148.99 302.237 148.99 301.636ZM144.846 301.731C144.846 302.281 144.944 302.697 145.141 302.981C145.337 303.265 145.619 303.407 145.987 303.407C146.163 303.407 146.321 303.38 146.463 303.325V299.77C146.336 299.719 146.181 299.693 145.996 299.693C145.628 299.693 145.344 299.858 145.145 300.187C144.946 300.516 144.846 301.031 144.846 301.731ZM150.697 301.5C150.697 301.02 150.791 300.588 150.978 300.205C151.168 299.822 151.431 299.526 151.766 299.317C152.104 299.109 152.489 299.005 152.921 299.005C153.588 299.005 154.127 299.236 154.538 299.698C154.951 300.16 155.158 300.774 155.158 301.541V301.6C155.158 302.077 155.066 302.506 154.882 302.886C154.701 303.263 154.44 303.558 154.098 303.769C153.76 303.981 153.371 304.086 152.93 304.086C152.266 304.086 151.727 303.855 151.313 303.393C150.903 302.931 150.697 302.32 150.697 301.559V301.5ZM151.54 301.6C151.54 302.143 151.665 302.58 151.915 302.909C152.169 303.238 152.507 303.402 152.93 303.402C153.356 303.402 153.694 303.236 153.944 302.904C154.195 302.569 154.32 302.101 154.32 301.5C154.32 300.963 154.192 300.528 153.935 300.196C153.682 299.861 153.344 299.693 152.921 299.693C152.507 299.693 152.174 299.858 151.92 300.187C151.666 300.516 151.54 300.987 151.54 301.6ZM159.75 299.775H158.106V303.996H157.268V299.775H155.656V299.096H159.75V299.775ZM160.153 301.5C160.153 301.02 160.247 300.588 160.434 300.205C160.624 299.822 160.887 299.526 161.222 299.317C161.56 299.109 161.945 299.005 162.377 299.005C163.044 299.005 163.583 299.236 163.994 299.698C164.407 300.16 164.614 300.774 164.614 301.541V301.6C164.614 302.077 164.522 302.506 164.338 302.886C164.157 303.263 163.895 303.558 163.554 303.769C163.216 303.981 162.827 304.086 162.386 304.086C161.722 304.086 161.183 303.855 160.769 303.393C160.359 302.931 160.153 302.32 160.153 301.559V301.5ZM160.996 301.6C160.996 302.143 161.121 302.58 161.371 302.909C161.625 303.238 161.963 303.402 162.386 303.402C162.812 303.402 163.15 303.236 163.4 302.904C163.651 302.569 163.776 302.101 163.776 301.5C163.776 300.963 163.648 300.528 163.391 300.196C163.138 299.861 162.8 299.693 162.377 299.693C161.963 299.693 161.63 299.858 161.376 300.187C161.122 300.516 160.996 300.987 160.996 301.6Z" fill="#20AF48"/>
<rect x="68.7115" y="292.142" width="22.1169" height="16.4093" rx="2.14035" stroke="#20AF48" stroke-width="1.4269"/>
<rect x="84.4068" y="294.996" width="3.56724" height="3.56724" rx="1.78362" stroke="#20AF48" stroke-width="1.4269"/>
<path d="M70.9672 308.551L76.5016 303.017C77.0589 302.46 77.9623 302.46 78.5196 303.017L84.054 308.551H86.072L79.5285 302.008C78.4141 300.894 76.6071 300.894 75.4927 302.008L68.9492 308.551H70.9672Z" fill="#20AF48"/>
<path d="M90.4761 306.775L87.8492 304.148C86.7347 303.034 84.9278 303.034 83.8133 304.148L82.2715 305.69L83.2805 306.699L84.8223 305.157C85.3795 304.6 86.283 304.6 86.8402 305.157L89.4671 307.784L90.4761 306.775Z" fill="#20AF48"/>
<circle cx="214.608" cy="117.704" r="8.91811" fill="#F5F5F5"/>
<path d="M214.02 118.934C214.02 118.531 214.065 118.21 214.155 117.971C214.244 117.732 214.408 117.498 214.645 117.268C214.886 117.035 215.045 116.846 215.125 116.703C215.204 116.556 215.243 116.402 215.243 116.241C215.243 115.755 215.037 115.512 214.626 115.512C214.43 115.512 214.273 115.578 214.155 115.71C214.038 115.84 213.978 116.019 213.972 116.249H212.824C212.829 115.7 212.992 115.27 213.311 114.959C213.633 114.649 214.071 114.493 214.626 114.493C215.185 114.493 215.619 114.641 215.928 114.938C216.237 115.231 216.391 115.647 216.391 116.185C216.391 116.429 216.341 116.661 216.241 116.879C216.141 117.095 215.965 117.335 215.714 117.6L215.394 117.932C215.193 118.142 215.078 118.388 215.049 118.67L215.033 118.934H214.02ZM213.905 120.258C213.905 120.066 213.964 119.907 214.083 119.784C214.205 119.657 214.359 119.594 214.546 119.594C214.734 119.594 214.887 119.657 215.006 119.784C215.127 119.907 215.188 120.066 215.188 120.258C215.188 120.448 215.128 120.605 215.01 120.729C214.894 120.852 214.739 120.914 214.546 120.914C214.354 120.914 214.198 120.852 214.079 120.729C213.963 120.605 213.905 120.448 213.905 120.258Z" fill="#343434"/>
<circle cx="214.608" cy="169.072" r="8.91811" fill="#F5F5F5"/>
<path d="M214.02 170.302C214.02 169.899 214.065 169.578 214.155 169.34C214.244 169.101 214.408 168.866 214.645 168.636C214.886 168.403 215.045 168.215 215.125 168.071C215.204 167.924 215.243 167.77 215.243 167.609C215.243 167.123 215.037 166.88 214.626 166.88C214.43 166.88 214.273 166.946 214.155 167.078C214.038 167.208 213.978 167.388 213.972 167.618H212.824C212.829 167.068 212.992 166.638 213.311 166.327C213.633 166.017 214.071 165.861 214.626 165.861C215.185 165.861 215.619 166.01 215.928 166.306C216.237 166.599 216.391 167.015 216.391 167.553C216.391 167.798 216.341 168.029 216.241 168.248C216.141 168.464 215.965 168.704 215.714 168.968L215.394 169.301C215.193 169.511 215.078 169.757 215.049 170.039L215.033 170.302H214.02ZM213.905 171.627C213.905 171.434 213.964 171.276 214.083 171.152C214.205 171.025 214.359 170.962 214.546 170.962C214.734 170.962 214.887 171.025 215.006 171.152C215.127 171.276 215.188 171.434 215.188 171.627C215.188 171.816 215.128 171.973 215.01 172.097C214.894 172.221 214.739 172.282 214.546 172.282C214.354 172.282 214.198 172.221 214.079 172.097C213.963 171.973 213.905 171.816 213.905 171.627Z" fill="#343434"/>
<circle cx="214.608" cy="220.44" r="8.91811" fill="#F5F5F5"/>
<path d="M214.02 221.67C214.02 221.267 214.065 220.947 214.155 220.708C214.244 220.469 214.408 220.235 214.645 220.004C214.886 219.771 215.045 219.583 215.125 219.439C215.204 219.292 215.243 219.138 215.243 218.977C215.243 218.491 215.037 218.248 214.626 218.248C214.43 218.248 214.273 218.314 214.155 218.447C214.038 218.576 213.978 218.756 213.972 218.986H212.824C212.829 218.437 212.992 218.006 213.311 217.696C213.633 217.385 214.071 217.23 214.626 217.23C215.185 217.23 215.619 217.378 215.928 217.674C216.237 217.968 216.391 218.383 216.391 218.921C216.391 219.166 216.341 219.397 216.241 219.616C216.141 219.832 215.965 220.072 215.714 220.337L215.394 220.669C215.193 220.879 215.078 221.125 215.049 221.407L215.033 221.67H214.02ZM213.905 222.995C213.905 222.802 213.964 222.644 214.083 222.52C214.205 222.394 214.359 222.33 214.546 222.33C214.734 222.33 214.887 222.394 215.006 222.52C215.127 222.644 215.188 222.802 215.188 222.995C215.188 223.185 215.128 223.342 215.01 223.465C214.894 223.589 214.739 223.651 214.546 223.651C214.354 223.651 214.198 223.589 214.079 223.465C213.963 223.342 213.905 223.185 213.905 222.995Z" fill="#343434"/>
<rect x="5.92578" y="10.33" width="228.304" height="28.5379" fill="black"/>
<path d="M225.482 29.2384C225.726 29.4825 225.726 29.8783 225.482 30.1224C225.238 30.3665 224.842 30.3665 224.598 30.1224L219.958 25.4818L215.317 30.1224C215.073 30.3665 214.677 30.3665 214.433 30.1224C214.189 29.8783 214.189 29.4825 214.433 29.2384L219.074 24.5978L214.433 19.9572C214.189 19.7132 214.189 19.3174 214.433 19.0733C214.677 18.8292 215.073 18.8292 215.317 19.0733L219.958 23.7139L224.598 19.0733C224.842 18.8292 225.238 18.8292 225.482 19.0733C225.726 19.3174 225.726 19.7132 225.482 19.9572L220.842 24.5978L225.482 29.2384Z" fill="white"/>
<path d="M23.3809 20.6586L26.8991 22.7133L21.3286 22.7133C20.1951 22.7133 19.2763 23.6332 19.2763 24.7679C19.2763 25.9027 20.1951 26.8226 21.3286 26.8226H26.3127C27.3466 26.8226 28.202 26.0572 28.3442 25.0615H29.5246C29.3765 26.7071 27.995 27.9967 26.3127 27.9967H21.3286C19.5474 27.9967 18.1035 26.5512 18.1035 24.7679C18.1035 22.9847 19.5474 21.5392 21.3286 21.5392H23.3809V20.6586Z" fill="white"/>
<path d="M30.111 28.5838H24.8468L28.0718 30.6385V29.7579H30.111C31.8921 29.7579 33.336 28.3123 33.336 26.5291C33.336 24.7459 31.8921 23.3003 30.111 23.3003H25.1268C23.4445 23.3003 22.0631 24.5899 21.9149 26.2356H23.0953C23.2376 25.2399 24.0929 24.4744 25.1268 24.4744H30.111C31.2444 24.4744 32.1633 25.3943 32.1633 26.5291C32.1633 27.6639 31.2444 28.5838 30.111 28.5838Z" fill="white"/>
<path d="M57.8911 29.0628V23.8522H59.4354V29.0628H57.8911Z" fill="white"/>
<path d="M58.658 23.0853C58.3989 23.0853 58.1853 23.0118 58.0172 22.8647C57.8491 22.7106 57.7651 22.5145 57.7651 22.2764C57.7651 22.0383 57.8491 21.8457 58.0172 21.6986C58.1853 21.5516 58.3989 21.478 58.658 21.478C58.9241 21.478 59.1377 21.5516 59.2988 21.6986C59.4669 21.8457 59.5509 22.0383 59.5509 22.2764C59.5509 22.5145 59.4669 22.7106 59.2988 22.8647C59.1377 23.0118 58.9241 23.0853 58.658 23.0853Z" fill="white"/>
<path fill-rule="evenodd" clip-rule="evenodd" d="M49.1837 29.1888C48.9526 29.1888 48.718 29.1328 48.4799 29.0207C48.2488 28.9017 48.0316 28.7301 47.8285 28.506H47.7865L47.6605 29.0628H46.4524V21.6986H47.9966V23.5055L47.9546 24.3039C48.1577 24.1218 48.3748 23.9818 48.6059 23.8837C48.844 23.7787 49.0857 23.7261 49.3308 23.7261C49.6459 23.7261 49.9296 23.7892 50.1817 23.9152C50.4338 24.0413 50.6474 24.2199 50.8225 24.451C51.0046 24.6751 51.1412 24.9517 51.2322 25.2809C51.3303 25.6031 51.3793 25.9637 51.3793 26.3629C51.3793 26.8111 51.3163 27.2103 51.1902 27.5605C51.0711 27.9107 50.9066 28.2083 50.6965 28.4535C50.4934 28.6916 50.2587 28.8737 49.9926 28.9997C49.7335 29.1258 49.4639 29.1888 49.1837 29.1888ZM48.8265 27.9282C49.0927 27.9282 49.3203 27.8091 49.5094 27.571C49.6985 27.3259 49.793 26.9337 49.793 26.3944C49.793 25.456 49.4919 24.9867 48.8896 24.9867C48.5814 24.9867 48.2838 25.1443 47.9966 25.4595V27.592C48.1367 27.7181 48.2768 27.8056 48.4168 27.8547C48.5569 27.9037 48.6935 27.9282 48.8265 27.9282Z" fill="white"/>
<path fill-rule="evenodd" clip-rule="evenodd" d="M42.181 29.1888C41.7188 29.1888 41.2951 29.1083 40.9099 28.9472C40.5317 28.7791 40.2061 28.541 39.9329 28.2328C39.6598 27.9247 39.4462 27.55 39.2921 27.1088C39.145 26.6676 39.0715 26.1668 39.0715 25.6066C39.0715 25.0463 39.145 24.549 39.2921 24.1148C39.4462 23.6736 39.6598 23.3059 39.9329 23.0118C40.2061 22.7106 40.5317 22.483 40.9099 22.3289C41.2951 22.1679 41.7188 22.0873 42.181 22.0873C42.6433 22.0873 43.0635 22.1679 43.4416 22.3289C43.8268 22.483 44.156 22.7106 44.4291 23.0118C44.7023 23.3129 44.9124 23.6841 45.0594 24.1253C45.2135 24.5595 45.2906 25.0533 45.2906 25.6066C45.2906 26.1668 45.2135 26.6676 45.0594 27.1088C44.9124 27.55 44.7023 27.9247 44.4291 28.2328C44.156 28.541 43.8268 28.7791 43.4416 28.9472C43.0635 29.1083 42.6433 29.1888 42.181 29.1888ZM42.181 27.8547C42.6503 27.8547 43.0214 27.6551 43.2946 27.2559C43.5677 26.8497 43.7043 26.2999 43.7043 25.6066C43.7043 24.9202 43.5677 24.3844 43.2946 23.9993C43.0214 23.6141 42.6503 23.4215 42.181 23.4215C41.7118 23.4215 41.3406 23.6141 41.0675 23.9993C40.7943 24.3844 40.6578 24.9202 40.6578 25.6066C40.6578 26.2999 40.7943 26.8497 41.0675 27.2559C41.3406 27.6551 41.7118 27.8547 42.181 27.8547Z" fill="white"/>
<path d="M51.8355 23.8522L53.5899 29.0628H55.3758L57.0776 23.8522H55.5964L54.9136 26.3104C54.8435 26.5695 54.7735 26.8357 54.7035 27.1088C54.6404 27.3749 54.5774 27.6446 54.5144 27.9177H54.4723C54.4023 27.6446 54.3323 27.3749 54.2622 27.1088C54.1992 26.8357 54.1327 26.5695 54.0626 26.3104L53.3903 23.8522H51.8355Z" fill="white"/>
<path d="M61.015 28.9157C61.1971 29.0978 61.4212 29.1888 61.6873 29.1888C61.9535 29.1888 62.1741 29.0978 62.3492 28.9157C62.5313 28.7266 62.6223 28.4955 62.6223 28.2223C62.6223 27.9422 62.5313 27.7111 62.3492 27.529C62.1741 27.3399 61.9535 27.2454 61.6873 27.2454C61.4212 27.2454 61.1971 27.3399 61.015 27.529C60.8399 27.7111 60.7524 27.9422 60.7524 28.2223C60.7524 28.4955 60.8399 28.7266 61.015 28.9157Z" fill="white"/>
<path d="M65.3621 29.1888C65.096 29.1888 64.8719 29.1468 64.6898 29.0628C64.5077 28.9787 64.3606 28.8632 64.2486 28.7161C64.1435 28.562 64.0665 28.3799 64.0174 28.1698C63.9684 27.9527 63.9439 27.7111 63.9439 27.445V21.6986H65.4882V27.508C65.4882 27.6691 65.5162 27.7811 65.5722 27.8442C65.6352 27.9072 65.6983 27.9387 65.7613 27.9387H65.8453C65.8734 27.9387 65.9084 27.9317 65.9504 27.9177L66.1395 29.0628C66.0555 29.0978 65.9469 29.1258 65.8138 29.1468C65.6878 29.1748 65.5372 29.1888 65.3621 29.1888Z" fill="white"/>
<path d="M66.9498 23.8522V29.0628H68.4941V23.8522H66.9498Z" fill="white"/>
<path d="M67.0759 22.8647C67.2439 23.0118 67.4575 23.0853 67.7167 23.0853C67.9828 23.0853 68.1964 23.0118 68.3575 22.8647C68.5256 22.7106 68.6096 22.5145 68.6096 22.2764C68.6096 22.0383 68.5256 21.8457 68.3575 21.6986C68.1964 21.5516 67.9828 21.478 67.7167 21.478C67.4575 21.478 67.2439 21.5516 67.0759 21.6986C66.9078 21.8457 66.8237 22.0383 66.8237 22.2764C66.8237 22.5145 66.9078 22.7106 67.0759 22.8647Z" fill="white"/>
<path d="M69.8531 29.0628V23.8522H71.1137L71.2188 24.514H71.2608C71.4849 24.3039 71.73 24.1218 71.9961 23.9677C72.2623 23.8067 72.5739 23.7261 72.9311 23.7261C73.4984 23.7261 73.9081 23.9117 74.1602 24.2829C74.4193 24.6541 74.5489 25.1688 74.5489 25.8272V29.0628H73.0046V26.0268C73.0046 25.6486 72.9521 25.3894 72.8471 25.2494C72.749 25.1093 72.5879 25.0393 72.3638 25.0393C72.1677 25.0393 71.9996 25.0848 71.8596 25.1758C71.7195 25.2599 71.5654 25.3824 71.3973 25.5435V29.0628H69.8531Z" fill="white"/>
<path d="M75.8648 21.6986V29.0628H77.3671V27.7811L78.0289 27.0353L79.2055 29.0628H80.8758L78.9113 25.9952L80.7392 23.8522H79.0584L77.4091 25.9217H77.3671V21.6986H75.8648Z" fill="white"/>
<rect x="5.92578" y="451.392" width="228.304" height="28.5379" fill="#20AF48"/>
<rect opacity="0.1" width="228.304" height="5.70759" transform="matrix(1 0 0 -1 5.92578 451.392)" fill="url(#paint3_linear_0_19168)"/>
<path d="M102.19 467.575C102.109 468.272 101.851 468.811 101.416 469.191C100.984 469.569 100.409 469.758 99.6903 469.758C98.9114 469.758 98.2864 469.478 97.8155 468.92C97.3475 468.361 97.1135 467.614 97.1135 466.678V466.044C97.1135 465.431 97.2222 464.892 97.4396 464.427C97.66 463.962 97.9709 463.606 98.3725 463.358C98.774 463.108 99.239 462.983 99.7673 462.983C100.468 462.983 101.029 463.179 101.452 463.571C101.875 463.961 102.121 464.501 102.19 465.193H101.316C101.241 464.667 101.076 464.287 100.823 464.051C100.572 463.816 100.22 463.698 99.7673 463.698C99.2118 463.698 98.7755 463.903 98.4585 464.314C98.1445 464.725 97.9875 465.309 97.9875 466.067V466.705C97.9875 467.421 98.137 467.99 98.4359 468.413C98.7348 468.835 99.1529 469.047 99.6903 469.047C100.173 469.047 100.543 468.938 100.8 468.72C101.06 468.5 101.232 468.118 101.316 467.575H102.19ZM103.028 467.172C103.028 466.692 103.122 466.26 103.309 465.876C103.499 465.493 103.762 465.197 104.097 464.989C104.435 464.78 104.82 464.676 105.252 464.676C105.919 464.676 106.458 464.907 106.868 465.369C107.282 465.831 107.489 466.446 107.489 467.212V467.271C107.489 467.748 107.397 468.177 107.213 468.557C107.031 468.935 106.77 469.229 106.429 469.441C106.091 469.652 105.701 469.758 105.261 469.758C104.596 469.758 104.058 469.527 103.644 469.065C103.233 468.603 103.028 467.991 103.028 467.231V467.172ZM103.87 467.271C103.87 467.815 103.996 468.251 104.246 468.58C104.5 468.909 104.838 469.074 105.261 469.074C105.686 469.074 106.025 468.908 106.275 468.576C106.526 468.24 106.651 467.772 106.651 467.172C106.651 466.634 106.523 466.199 106.266 465.867C106.012 465.532 105.674 465.365 105.252 465.365C104.838 465.365 104.504 465.529 104.251 465.858C103.997 466.187 103.87 466.658 103.87 467.271ZM110.084 466.556L111.171 464.767H112.149L110.546 467.19L112.199 469.667H111.23L110.097 467.833L108.965 469.667H107.992L109.644 467.19L108.041 464.767H109.01L110.084 466.556ZM117.18 467.271C117.18 468.017 117.01 468.618 116.669 469.074C116.327 469.53 115.865 469.758 115.283 469.758C114.688 469.758 114.22 469.569 113.879 469.191V471.551H113.041V464.767H113.806L113.847 465.31C114.188 464.888 114.662 464.676 115.269 464.676C115.858 464.676 116.323 464.898 116.664 465.342C117.008 465.786 117.18 466.403 117.18 467.194V467.271ZM116.342 467.176C116.342 466.624 116.225 466.187 115.989 465.867C115.754 465.547 115.431 465.387 115.02 465.387C114.513 465.387 114.132 465.612 113.879 466.062V468.403C114.129 468.85 114.513 469.074 115.029 469.074C115.431 469.074 115.749 468.915 115.985 468.598C116.223 468.278 116.342 467.804 116.342 467.176ZM121.274 469.667C121.226 469.57 121.187 469.398 121.157 469.151C120.767 469.555 120.302 469.758 119.762 469.758C119.279 469.758 118.882 469.622 118.571 469.35C118.263 469.075 118.109 468.728 118.109 468.308C118.109 467.798 118.302 467.403 118.688 467.122C119.078 466.838 119.624 466.696 120.328 466.696H121.143V466.311C121.143 466.018 121.055 465.786 120.88 465.614C120.705 465.439 120.447 465.351 120.106 465.351C119.807 465.351 119.556 465.427 119.354 465.578C119.152 465.729 119.051 465.911 119.051 466.126H118.208C118.208 465.881 118.294 465.645 118.466 465.419C118.642 465.19 118.877 465.008 119.173 464.876C119.472 464.743 119.799 464.676 120.156 464.676C120.72 464.676 121.163 464.818 121.483 465.102C121.803 465.383 121.969 465.771 121.981 466.266V468.521C121.981 468.971 122.038 469.329 122.153 469.595V469.667H121.274ZM119.884 469.028C120.147 469.028 120.396 468.961 120.631 468.825C120.867 468.689 121.037 468.512 121.143 468.295V467.289H120.486C119.46 467.289 118.946 467.59 118.946 468.191C118.946 468.453 119.034 468.659 119.209 468.807C119.384 468.954 119.609 469.028 119.884 469.028ZM127.297 469.667H126.46V467.575H124.209V469.667H123.367V464.767H124.209V466.891H126.46V464.767H127.297V469.667ZM131.817 464.767H132.655V469.667H131.817V466.094L129.557 469.667H128.719V464.767H129.557V468.345L131.817 464.767ZM137.641 465.446H135.997V469.667H135.159V465.446H133.547V464.767H137.641V465.446ZM139.371 466.456H140.644C141.199 466.462 141.638 466.607 141.961 466.891C142.285 467.175 142.446 467.56 142.446 468.046C142.446 468.535 142.28 468.927 141.948 469.223C141.616 469.519 141.169 469.667 140.607 469.667H138.533V464.767H139.371V466.456ZM139.371 467.14V468.983H140.616C140.93 468.983 141.173 468.903 141.346 468.743C141.518 468.58 141.604 468.358 141.604 468.077C141.604 467.806 141.519 467.584 141.35 467.412C141.184 467.237 140.95 467.146 140.648 467.14H139.371Z" fill="white"/>
<path d="M38.8721 59.9962H37.998V56.9484H34.6739V59.9962H33.8044V53.4024H34.6739V56.2374H37.998V53.4024H38.8721V59.9962ZM43.3102 59.9962C43.2619 59.8996 43.2227 59.7275 43.1925 59.4799C42.803 59.8845 42.338 60.0868 41.7976 60.0868C41.3146 60.0868 40.9175 59.9509 40.6066 59.6792C40.2986 59.4045 40.1446 59.0573 40.1446 58.6376C40.1446 58.1274 40.3379 57.7319 40.7243 57.4511C41.1138 57.1673 41.6602 57.0254 42.3637 57.0254H43.1789V56.6404C43.1789 56.3476 43.0913 56.1151 42.9162 55.943C42.7411 55.7679 42.483 55.6803 42.1418 55.6803C41.8429 55.6803 41.5923 55.7558 41.39 55.9068C41.1878 56.0577 41.0866 56.2404 41.0866 56.4548H40.2443C40.2443 56.2102 40.3303 55.9747 40.5024 55.7483C40.6775 55.5188 40.913 55.3377 41.2089 55.2048C41.5078 55.072 41.8354 55.0056 42.1916 55.0056C42.7562 55.0056 43.1985 55.1475 43.5185 55.4313C43.8386 55.712 44.0046 56.1 44.0167 56.5951V58.8504C44.0167 59.3003 44.0741 59.6581 44.1888 59.9238V59.9962H43.3102ZM41.9199 59.3577C42.1826 59.3577 42.4316 59.2897 42.6671 59.1539C42.9026 59.018 43.0732 58.8414 43.1789 58.624V57.6186H42.5222C41.4957 57.6186 40.9824 57.919 40.9824 58.5199C40.9824 58.7825 41.07 58.9878 41.2451 59.1358C41.4202 59.2837 41.6452 59.3577 41.9199 59.3577ZM48.0246 56.4366C48.0246 56.2072 47.9371 56.026 47.762 55.8932C47.5868 55.7573 47.3468 55.6894 47.0419 55.6894C46.746 55.6894 46.4984 55.7664 46.2992 55.9204C46.1029 56.0743 46.0048 56.2555 46.0048 56.4638H45.1715C45.1715 56.0381 45.3497 55.6894 45.7059 55.4177C46.0622 55.1459 46.5075 55.0101 47.0419 55.0101C47.6155 55.0101 48.0624 55.1339 48.3824 55.3814C48.7024 55.626 48.8624 55.9762 48.8624 56.4321C48.8624 56.6525 48.796 56.8548 48.6632 57.039C48.5303 57.2231 48.3416 57.3696 48.0971 57.4782C48.6677 57.6715 48.953 58.0519 48.953 58.6195C48.953 59.0693 48.7794 59.4256 48.4322 59.6883C48.085 59.9509 47.6216 60.0823 47.0419 60.0823C46.4773 60.0823 46.0108 59.9449 45.6425 59.6701C45.2772 59.3924 45.0945 59.018 45.0945 58.547H45.9278C45.9278 58.7855 46.0335 58.9908 46.2448 59.1629C46.4592 59.332 46.7249 59.4165 47.0419 59.4165C47.3619 59.4165 47.6201 59.3426 47.8163 59.1946C48.0125 59.0467 48.1107 58.855 48.1107 58.6195C48.1107 58.3447 48.0276 58.1485 47.8616 58.0307C47.6986 57.91 47.4434 57.8496 47.0962 57.8496H46.2584V57.1431H47.1687C47.7393 57.128 48.0246 56.8925 48.0246 56.4366ZM53.0651 59.9962C53.0168 59.8996 52.9775 59.7275 52.9473 59.4799C52.5579 59.8845 52.0929 60.0868 51.5525 60.0868C51.0694 60.0868 50.6724 59.9509 50.3614 59.6792C50.0535 59.4045 49.8995 59.0573 49.8995 58.6376C49.8995 58.1274 50.0927 57.7319 50.4792 57.4511C50.8687 57.1673 51.4151 57.0254 52.1186 57.0254H52.9338V56.6404C52.9338 56.3476 52.8462 56.1151 52.6711 55.943C52.496 55.7679 52.2378 55.6803 51.8967 55.6803C51.5978 55.6803 51.3472 55.7558 51.1449 55.9068C50.9426 56.0577 50.8415 56.2404 50.8415 56.4548H49.9991C49.9991 56.2102 50.0852 55.9747 50.2573 55.7483C50.4324 55.5188 50.6679 55.3377 50.9638 55.2048C51.2627 55.072 51.5902 55.0056 51.9465 55.0056C52.5111 55.0056 52.9534 55.1475 53.2734 55.4313C53.5934 55.712 53.7595 56.1 53.7716 56.5951V58.8504C53.7716 59.3003 53.8289 59.6581 53.9437 59.9238V59.9962H53.0651ZM51.6748 59.3577C51.9374 59.3577 52.1865 59.2897 52.422 59.1539C52.6575 59.018 52.8281 58.8414 52.9338 58.624V57.6186H52.2771C51.2506 57.6186 50.7373 57.919 50.7373 58.5199C50.7373 58.7825 50.8249 58.9878 51 59.1358C51.1751 59.2837 51.4 59.3577 51.6748 59.3577ZM55.0441 59.3124L55.334 58.9546C55.6601 58.5319 55.8457 57.8979 55.891 57.0525L55.968 55.0961H59.1245V59.3124H59.754V61.4364H58.9162V59.9962H55.497V61.4364H54.6592L54.6637 59.3124H55.0441ZM56.0359 59.3124H58.2867V55.8705H56.7786L56.7288 57.039C56.6775 58.0141 56.4465 58.7719 56.0359 59.3124Z" fill="black"/>
<rect x="16.9856" y="46.3588" width="53.5087" height="20.69" rx="3.21052" stroke="#D6D6D6" stroke-width="0.713449"/>
<path d="M23.8831 56.3097C23.9098 56.2686 23.9412 56.2297 23.9773 56.1936L26.1126 54.0589C26.3913 53.7803 26.8432 53.7803 27.1219 54.0589C27.4006 54.3376 27.4006 54.7893 27.1219 55.0679L25.4854 56.7039L27.1217 58.3396C27.4004 58.6182 27.4004 59.07 27.1217 59.3486C26.843 59.6272 26.3911 59.6272 26.1124 59.3486L23.9727 57.2096C23.728 56.9649 23.6981 56.5869 23.8831 56.3097Z" fill="black"/>
</g>
<path d="M3.48633 23.6062C3.48633 12.3671 11.9686 3.2561 22.4319 3.2561H217.193C227.656 3.2561 236.138 12.3671 236.138 23.6062V475.378C236.138 486.617 227.656 495.728 217.193 495.728H22.4319C11.9686 495.728 3.48633 486.617 3.48633 475.378V23.6062Z" fill="url(#paint4_linear_0_19168)"/>
<path d="M236.138 23.6062C236.138 12.3671 227.656 3.2561 217.193 3.2561H22.4319C11.9686 3.2561 3.48633 12.3671 3.48633 23.6062V475.378C3.48633 486.617 11.9686 495.728 22.4319 495.728H217.193C227.656 495.728 236.138 486.617 236.138 475.378V23.6062Z" fill="url(#paint5_linear_0_19168)"/>
<defs>
<linearGradient id="paint0_linear_0_19168" x1="119.813" y1="-0.803846" x2="119.813" y2="18.4812" gradientUnits="userSpaceOnUse">
<stop/>
<stop offset="1" stop-color="#3A3A3A" stop-opacity="0"/>
</linearGradient>
<linearGradient id="paint1_linear_0_19168" x1="119.813" y1="499.803" x2="119.813" y2="480.518" gradientUnits="userSpaceOnUse">
<stop/>
<stop offset="1" stop-color="#3A3A3A" stop-opacity="0"/>
</linearGradient>
<linearGradient id="paint2_linear_0_19168" x1="-83.4001" y1="809.648" x2="194.605" y2="-110.587" gradientUnits="userSpaceOnUse">
<stop stop-color="#FC5980"/>
<stop offset="1" stop-color="#3300FF"/>
</linearGradient>
<linearGradient id="paint3_linear_0_19168" x1="114.152" y1="0" x2="114.152" y2="5.70759" gradientUnits="userSpaceOnUse">
<stop/>
<stop offset="1" stop-color="white" stop-opacity="0"/>
</linearGradient>
<linearGradient id="paint4_linear_0_19168" x1="-17.6638" y1="495.728" x2="265.122" y2="495.728" gradientUnits="userSpaceOnUse">
<stop stop-color="#FDFDFD"/>
<stop offset="0.116343" stop-color="white" stop-opacity="0"/>
</linearGradient>
<linearGradient id="paint5_linear_0_19168" x1="257.288" y1="495.728" x2="-25.4972" y2="495.728" gradientUnits="userSpaceOnUse">
<stop stop-color="#FDFDFD"/>
<stop offset="0.116343" stop-color="white" stop-opacity="0"/>
</linearGradient>
</defs>
</svg>
