<svg width="0" height="0" class="hidden">
  <symbol fill="none" xmlns="http://www.w3.org/2000/svg" viewBox="0 0 52 63" id="buttons">
    <rect x="5" y="5" width="47" height="58" rx="3" fill="#E4F0FD"></rect>
    <rect x="1" y="1" width="45" height="56" rx="2" stroke="#131313" stroke-width="2"></rect>
    <path fill-rule="evenodd" clip-rule="evenodd" d="M16.5047 25H25.0121C25.0492 25 25.0863 25.0006 25.1231 25.0017H29.2586C28.2489 23.7792 26.7215 23 25.0121 23H16.5047C13.4646 23 11 25.4646 11 28.5047C11 31.5449 13.4646 34.0095 16.5047 34.0095H25.0121C27.8836 34.0095 30.2416 31.8108 30.4944 29.0052H28.4814C28.2385 30.7037 26.7778 32.0095 25.0121 32.0095H16.5047C14.5691 32.0095 13 30.4404 13 28.5047C13 26.5691 14.5691 25 16.5047 25Z" fill="black"></path>
    <path fill-rule="evenodd" clip-rule="evenodd" d="M31.4953 35.012H22.9879C22.9521 35.012 22.9164 35.0114 22.8808 35.0104H18.7415C19.7512 36.2328 21.2786 37.012 22.9879 37.012H31.4953C34.5354 37.012 37 34.5474 37 31.5072C37 28.467 34.5354 26.0025 31.4953 26.0025H22.9879C20.1164 26.0025 17.7584 28.2012 17.5056 31.0069H19.5186C19.7614 29.3083 21.2222 28.0025 22.9879 28.0025H31.4953C33.4309 28.0025 35 29.5716 35 31.5072C35 33.4428 33.4309 35.012 31.4953 35.012Z" fill="black"></path>
  </symbol>
  <symbol fill="none" xmlns="http://www.w3.org/2000/svg" viewBox="0 0 55 76" id="design">
    <rect x="5" y="18" width="47" height="58" rx="3" fill="#E4F0FD"></rect>
    <path fill-rule="evenodd" clip-rule="evenodd" d="M36.9474 13H3C1.34315 13 0 14.3431 0 16V68C0 69.6569 1.34315 71 3 71H44C45.6569 71 47 69.6569 47 68V16C47 15.1005 46.6041 14.2935 45.9772 13.7437L45 15L44.7742 15.367C44.9153 15.5394 45 15.7598 45 16V68C45 68.5523 44.5523 69 44 69H3C2.44772 69 2 68.5523 2 68V16C2 15.4477 2.44772 15 3 15H35.8947L36.9474 13Z" fill="#131313"></path>
    <path d="M33.6039 37.2268C36.1213 34.0019 39.2747 29.2466 42.4282 23.7845C48.5773 13.1341 52.399 3.82843 50.9641 3C49.5292 2.17157 43.3811 10.1341 37.2321 20.7845C34.0786 26.2466 31.537 31.3552 30.0029 35.1478L33.6039 37.2268Z" fill="#E4F0FD"></path>
    <path d="M29.1068 48.858C27.9627 50.8396 20.4641 55.8275 20.4641 55.8275C20.4641 55.8275 21.0345 46.8396 22.1786 44.858C22.8519 43.6917 23.9876 42.9655 25.1981 42.7907C25.131 42.1762 25.2518 41.535 25.585 40.958C26.011 40.22 26.7018 39.7301 27.4672 39.5398L31.0682 41.6188C31.2861 42.3768 31.2072 43.22 30.7811 43.958C30.448 44.535 29.9531 44.9602 29.3873 45.2094C29.8412 46.345 29.7801 47.6917 29.1068 48.858Z" fill="#E4F0FD"></path>
    <path d="M17.4641 55.8275L16.4661 55.7642L16.3383 57.7774L18.0179 56.6602L17.4641 55.8275ZM17.4641 55.8275C18.0179 56.6602 18.018 56.6601 18.0181 56.66L18.0185 56.6598L18.0197 56.659L18.0241 56.6561L18.041 56.6448L18.1055 56.6016C18.1618 56.5638 18.2441 56.5085 18.349 56.4376C18.5587 56.2957 18.8589 56.0911 19.2225 55.8397C19.9491 55.3371 20.9315 54.6451 21.9517 53.8894C22.9695 53.1354 24.0365 52.3093 24.9274 51.5397C25.78 50.8032 26.5909 50.0195 26.9728 49.358C27.6439 48.1956 27.8241 46.8812 27.5683 45.6717C27.9948 45.3543 28.365 44.9466 28.6471 44.458C29.2142 43.4758 29.3192 42.3511 29.0292 41.3425L28.9177 40.9546L28.5682 40.7528L24.9672 38.6738L24.6176 38.472L24.2259 38.5693C23.2075 38.8225 22.286 39.4758 21.7189 40.458C21.4368 40.9466 21.2689 41.4711 21.2073 41.9991C20.0319 42.3823 18.9837 43.1956 18.3125 44.358C17.9307 45.0195 17.6574 46.1136 17.4458 47.2202C17.2248 48.3766 17.0429 49.7136 16.8988 50.9721C16.7544 52.2335 16.6463 53.4303 16.5744 54.3108C16.5384 54.7514 16.5114 55.1137 16.4934 55.3662C16.4844 55.4925 16.4776 55.5914 16.473 55.6591L16.4679 55.7366L16.4666 55.7568L16.4662 55.7621L16.4661 55.7636L16.4661 55.764C16.4661 55.7641 16.4661 55.7642 17.4641 55.8275ZM30.1039 38.0929L30.857 38.5277L31.3922 37.8422C33.9465 34.5699 37.1255 29.773 40.2943 24.2845C43.3839 18.9331 45.8988 13.903 47.4652 10.0889C48.2456 8.18871 48.8064 6.55245 49.0774 5.31294C49.2113 4.70037 49.2885 4.12389 49.2598 3.63549C49.2346 3.20578 49.105 2.50401 48.4641 2.13397C47.8232 1.76394 47.1507 2.00264 46.7659 2.19565C46.3286 2.41502 45.868 2.7701 45.4044 3.19237C44.4665 4.04681 43.3298 5.35061 42.0744 6.97653C39.5545 10.2401 36.4557 14.9331 33.3661 20.2845C30.1973 25.773 27.6325 30.9245 26.0759 34.7728L25.7497 35.579L26.5029 36.0138L30.1039 38.0929Z" stroke="#131313" stroke-width="2"></path>
  </symbol>
  <symbol fill="none" xmlns="http://www.w3.org/2000/svg" viewBox="0 0 74 55" id="map">
    <path d="M14.1564 37.6028C14.6752 36.6171 15.6974 36 16.8112 36H62.1888C63.3026 36 64.3248 36.6171 64.8436 37.6028L71.6857 50.6028C72.7371 52.6005 71.2884 55 69.0309 55H9.96909C7.71156 55 6.2629 52.6005 7.31434 50.6028L14.1564 37.6028Z" fill="#E4F0FD"></path>
    <path d="M9.76017 35.6028C10.2789 34.6171 11.3011 34 12.4149 34H56.5851C57.6989 34 58.7211 34.6171 59.2398 35.6028L65.0293 46.6028C66.0807 48.6005 64.6321 51 62.3745 51H6.62545C4.36792 51 2.91926 48.6005 3.9707 46.6028L9.76017 35.6028Z" stroke="#131313" stroke-width="2"></path>
    <path d="M55 17.7222C55 24.3617 50.8443 30.6916 46.5101 35.4593C44.3616 37.8226 42.21 39.7576 40.5947 41.102C39.7877 41.7736 39.1165 42.2962 38.649 42.6496C38.5968 42.6891 38.5471 42.7265 38.5 42.7617C38.4529 42.7265 38.4032 42.6891 38.351 42.6496C37.8835 42.2962 37.2123 41.7736 36.4053 41.102C34.79 39.7576 32.6384 37.8226 30.4899 35.4593C26.1557 30.6916 22 24.3617 22 17.7222C22 8.47486 29.3992 1 38.5 1C47.6008 1 55 8.47486 55 17.7222Z" fill="white" stroke="#131313" stroke-width="2"></path>
    <path d="M51 18.7222C51 30.0314 39.9945 40.1536 35.6935 43.6776C34.6967 44.4943 33.3033 44.4943 32.3065 43.6776C28.0055 40.1536 17 30.0314 17 18.7222C17 8.93451 24.6112 1 34 1C43.3888 1 51 8.93451 51 18.7222Z" fill="#E4F0FD"></path>
    <path d="M48 17.7222C48 24.3617 43.8443 30.6916 39.5101 35.4593C37.3616 37.8226 35.21 39.7576 33.5947 41.102C32.7877 41.7736 32.1165 42.2962 31.649 42.6496C31.5968 42.6891 31.5471 42.7265 31.5 42.7617C31.4529 42.7265 31.4032 42.6891 31.351 42.6496C30.8835 42.2962 30.2123 41.7736 29.4053 41.102C27.79 39.7576 25.6384 37.8226 23.4899 35.4593C19.1557 30.6916 15 24.3617 15 17.7222C15 8.47486 22.3992 1 31.5 1C40.6008 1 48 8.47486 48 17.7222Z" stroke="#131313" stroke-width="2"></path>
    <circle cx="31.5" cy="16.5" r="7.5" stroke="#131313" stroke-width="2"></circle>
  </symbol>
  <symbol fill="none" xmlns="http://www.w3.org/2000/svg" viewBox="0 0 73 66" id="massenger">
    <path d="M9 5C6.79083 5 5 6.79083 5 9V40C5 42.2091 6.79083 44 9 44H12.0001L12 56L18.9282 44H44C46.2092 44 48 42.2091 48 40V9C48 6.79083 46.2092 5 44 5H9Z" fill="#E4F0FD"></path>
    <path d="M69 15C71.2092 15 73 16.7908 73 19V50C73 52.2091 71.2092 54 69 54H65.9999L66 66L59.0718 54H34C31.7908 54 30 52.2091 30 50V19C30 16.7908 31.7908 15 34 15H69Z" fill="#E4F0FD"></path>
    <path d="M8.00012 39L8.00013 38H7.00012H4C2.34313 38 1 36.6568 1 35V4C1 2.34312 2.34312 1 4 1H39C40.6569 1 42 2.34312 42 4V35C42 36.6568 40.6569 38 39 38H13.9282H13.3509L13.0622 38.5L8.00004 47.2679L8.00012 39Z" stroke="#131313" stroke-width="2"></path>
    <path d="M59.9999 49L59.9999 48H60.9999H64C65.6569 48 67 46.6568 67 45V14C67 12.3431 65.6569 11 64 11H29C27.3431 11 26 12.3431 26 14V45C26 46.6568 27.3431 48 29 48H54.0718H54.6491L54.9378 48.5L60 57.2679L59.9999 49Z" stroke="#131313" stroke-width="2"></path>
  </symbol>
  <symbol fill="none" xmlns="http://www.w3.org/2000/svg" viewBox="0 0 58 56" id="reviews">
    <path d="M9 5C6.79083 5 5 6.79083 5 9V40C5 42.2091 6.79083 44 9 44H12.0001L12 56L18.9282 44H54C56.2092 44 58 42.2091 58 40V9C58 6.79083 56.2092 5 54 5H9Z" fill="#E4F0FD"></path>
    <path d="M8.00012 39L8.00013 38H7.00012H4C2.34313 38 1 36.6568 1 35V4C1 2.34312 2.34312 1 4 1H49C50.6569 1 52 2.34312 52 4V35C52 36.6568 50.6569 38 49 38H13.9282H13.3509L13.0622 38.5L8.00004 47.2679L8.00012 39Z" stroke="#131313" stroke-width="2"></path>
    <circle cx="16.5" cy="19.5" r="2.5" fill="#131313"></circle>
    <circle cx="26.5" cy="19.5" r="2.5" fill="#131313"></circle>
    <circle cx="36.5" cy="19.5" r="2.5" fill="#131313"></circle>
  </symbol>
  <symbol fill="none" xmlns="http://www.w3.org/2000/svg" viewBox="0 0 52 63" id="services">
    <rect x="5" y="5" width="47" height="58" rx="3" fill="#E4F0FD"></rect>
    <rect x="1" y="1" width="45" height="56" rx="2" stroke="#131313" stroke-width="2"></rect>
    <rect x="9" y="13" width="4" height="4" rx="2" stroke="#131313" stroke-width="2"></rect>
    <rect x="16" y="14" width="23" height="2" rx="1" fill="#131313"></rect>
    <rect x="9" y="22" width="4" height="4" rx="2" stroke="#131313" stroke-width="2"></rect>
    <rect x="16" y="23" width="23" height="2" rx="1" fill="#131313"></rect>
    <rect x="9" y="31" width="4" height="4" rx="2" stroke="#131313" stroke-width="2"></rect>
    <rect x="16" y="32" width="23" height="2" rx="1" fill="#131313"></rect>
    <rect x="9" y="40" width="4" height="4" rx="2" stroke="#131313" stroke-width="2"></rect>
    <rect x="16" y="41" width="23" height="2" rx="1" fill="#131313"></rect>
  </symbol>
  <symbol fill="none" xmlns="http://www.w3.org/2000/svg" viewBox="0 0 52 63" id="text-block">
    <rect x="5" y="5" width="47" height="58" rx="3" fill="#E4F0FD"></rect>
    <rect x="1" y="1" width="45" height="56" rx="2" stroke="#131313" stroke-width="2"></rect>
    <rect x="10" y="10" width="29" height="2" rx="1" fill="#131313"></rect>
    <rect x="19" y="16" width="20" height="2" rx="1" fill="#131313"></rect>
    <rect x="10" y="22" width="29" height="2" rx="1" fill="#131313"></rect>
    <rect x="19" y="28" width="20" height="2" rx="1" fill="#131313"></rect>
    <rect x="10" y="34" width="29" height="2" rx="1" fill="#131313"></rect>
    <rect x="19" y="40" width="20" height="2" rx="1" fill="#131313"></rect>
    <rect x="10" y="46" width="29" height="2" rx="1" fill="#131313"></rect>
  </symbol>
  <symbol fill="none" xmlns="http://www.w3.org/2000/svg" viewBox="0 0 65 45" id="video">
    <path d="M8 5C6.34315 5 5 6.34315 5 8V42C5 43.6569 6.34315 45 8 45H49C50.6569 45 52 43.6569 52 42V37.8095L60.7102 41.9572C62.701 42.9052 65 41.4537 65 39.2487V10.7513C65 8.54634 62.701 7.09476 60.7102 8.04276L52 12.1905V8C52 6.34315 50.6569 5 49 5H8Z" fill="#E4F0FD"></path>
    <path d="M47.5766 29.9925L46 28.8797V30.8095V37C46 38.1046 45.1046 39 44 39H3C1.89543 39 1 38.1046 1 37V3C1 1.89543 1.89543 1 3 1H44C45.1046 1 46 1.89543 46 3V9.19048V11.1203L47.5766 10.0075L56.2103 3.91376C57.5208 3.34781 59 4.30719 59 5.75134V34.2487C59 35.6928 57.5208 36.6522 56.2103 36.0862L47.5766 29.9925Z" stroke="#131313" stroke-width="2"></path>
    <circle cx="24" cy="20" r="12" stroke="#131313" stroke-width="2"></circle>
    <path d="M28.0563 20L21 24.2338L21 15.7662L28.0563 20Z" stroke="#131313" stroke-width="2"></path>
  </symbol>
</svg>